<?xml version="1.0" encoding="utf-8"?>
<!-- Generator: Adobe Illustrator 16.0.0, SVG Export Plug-In . SVG Version: 6.00 Build 0)  -->
<!DOCTYPE svg PUBLIC "-//W3C//DTD SVG 1.1//EN" "http://www.w3.org/Graphics/SVG/1.1/DTD/svg11.dtd">
<svg version="1.1" id="Capa_1" xmlns="http://www.w3.org/2000/svg" xmlns:xlink="http://www.w3.org/1999/xlink" x="0px" y="0px"
	 width="960px" height="560px" viewBox="0 0 960 560" enable-background="new 0 0 960 560" xml:space="preserve">
<g>
	<path fill-rule="evenodd" clip-rule="evenodd" fill="#FFFFFF" d="M77.627,548.283c-8.686,0-17.377-1.738-25.404-5.06
		c-8.027-3.32-15.391-8.247-21.535-14.394c-6.145-6.146-11.066-13.508-14.387-21.54c-3.321-8.027-5.062-16.716-5.062-25.404l0,0
		V76.87l0,0c0-8.688,1.739-17.382,5.057-25.409c3.32-8.027,8.245-15.393,14.392-21.537c6.144-6.146,13.508-11.069,21.537-14.39
		c8.025-3.32,16.716-5.062,25.402-5.062l0,0h805.499l0,0c8.688,0,17.382,1.736,25.404,5.06c8.032,3.318,15.394,8.245,21.54,14.389
		c6.141,6.146,11.063,13.512,14.384,21.54c3.321,8.03,5.06,16.721,5.06,25.409l0,0v405.016l0,0c0,8.688-1.734,17.382-5.055,25.409
		s-8.248,15.393-14.389,21.535c-6.146,6.146-13.514,11.068-21.54,14.389c-8.027,3.32-16.716,5.064-25.404,5.064l0,0H77.627
		L77.627,548.283z M883.121,537.215c7.244,0,14.487-1.45,21.178-4.217c6.689-2.768,12.826-6.872,17.944-11.99
		c5.123-5.123,9.223-11.26,11.989-17.949c2.768-6.69,4.217-13.934,4.217-21.178l0,0V76.875l0,0c0-7.244-1.449-14.487-4.217-21.178
		c-2.767-6.692-6.871-12.829-11.989-17.95s-11.255-9.225-17.944-11.992c-6.69-2.767-13.934-4.217-21.178-4.217l0,0H77.635l0,0
		c-7.241,0-14.487,1.45-21.178,4.217c-6.69,2.767-12.827,6.871-17.945,11.992c-5.121,5.121-9.225,11.257-11.989,17.948
		c-2.767,6.69-4.217,13.938-4.217,21.182l0,0v405.003l0,0c0,7.244,1.447,14.482,4.217,21.178
		c2.765,6.689,6.869,12.826,11.989,17.949c5.118,5.118,11.255,9.223,17.945,11.99c6.69,2.767,13.937,4.217,21.178,4.217l0,0H883.121
		L883.121,537.215z"/>
	<path fill-rule="evenodd" clip-rule="evenodd" fill="#FFFFFF" d="M369.49,193.41c-4.981-11.556-15.153-19.184-26.312-21.371
		c10.116-6.878,18.077-17.232,21.645-28.458c3.571-11.226,2.743-23.32-1.788-32.391c-4.533-9.07-12.768-15.114-22.989-19.282
		c-10.222-4.166-22.427-6.186-34.489-6.186l0,0H186.062V262.78h117.284l0,0c15.078,0,30.377-2.965,42.201-7.966
		c11.82-5,20.163-11.942,24.439-23.153C374.261,220.447,374.469,204.963,369.49,193.41L369.49,193.41L369.49,193.41L369.49,193.41z
		 M252.449,121.133h24.341l0,0c6.325,0,13.422,1.986,16.99,6.935c3.567,4.949,3.567,12.168,0,17.115
		c-3.568,4.949-10.665,6.935-16.99,6.935l0,0h-24.341V121.133L252.449,121.133L252.449,121.133z M302.018,220.533
		c-4.934,6.607-14.482,6.834-22.573,6.834l0,0h-26.996v-37.624h26.996l0,0c8.091,0,17.639,0.228,22.573,6.833
		C306.95,203.18,306.95,213.928,302.018,220.533L302.018,220.533L302.018,220.533L302.018,220.533z"/>
	<path fill-rule="evenodd" clip-rule="evenodd" fill="#FFFFFF" d="M404.981,250.866c-16.13-13.152-19.759-34.634-19.759-54.484l0,0
		V85.723h61.962v108.446l0,0c0,8.534,1.555,17.492,6.869,24.04c5.314,6.545,13.488,10.628,22.671,11.171
		c9.183,0.541,19.375-2.458,25.34-9.592c5.961-7.133,4.868-17.984,4.868-27.765l0,0V85.723h46.47v90.741l0,0
		c0,24.299,1.233,51.332-14.331,68.185c-15.564,16.853-41.469,22.654-67.066,23.284
		C446.408,268.559,421.111,264.019,404.981,250.866L404.981,250.866z"/>
	<path fill-rule="evenodd" clip-rule="evenodd" fill="#FFFFFF" d="M782.812,165.926c-0.622-18.682-8.302-34.164-18.709-46.493
		c-10.408-12.333-23.543-21.513-38.902-27.248c-15.359-5.735-32.868-6.462-50.083-6.462l0,0H582.17V262.78h90.734l0,0
		c18.772,0,37.859-1.949,54.197-8.377c16.339-6.431,29.905-16.229,39.906-32.07C777.004,206.491,783.435,184.608,782.812,165.926
		L782.812,165.926L782.812,165.926L782.812,165.926z M715.01,191.565c-2.714,10.378-8.165,19.557-17.471,25.984
		c-9.305,6.428-22.465,9.817-35.258,9.817l0,0h-18.146V121.133h18.146l0,0c12.817,0,26.09,3.129,35.405,9.996
		c9.311,6.866,14.644,16.879,17.327,27.679C717.693,169.604,717.718,181.185,715.01,191.565L715.01,191.565L715.01,191.565
		L715.01,191.565z"/>
	<polygon fill-rule="evenodd" clip-rule="evenodd" fill="#FFFFFF" points="208.191,435.407 208.191,470.822 64.35,470.822 
		64.35,293.763 130.737,293.763 130.737,435.407 208.191,435.407 	"/>
	<polygon fill-rule="evenodd" clip-rule="evenodd" fill="#FFFFFF" points="285.643,470.822 285.643,293.763 219.255,293.763 
		219.255,470.822 285.643,470.822 	"/>
	<path fill-rule="evenodd" clip-rule="evenodd" fill="#FFFFFF" d="M466.821,299.468c-12.034-4.525-29.097-9.428-47.924-9.639
		c-18.826-0.215-39.416,4.267-56.785,12.499c-17.37,8.229-31.521,20.208-41.758,33.779c-10.238,13.571-16.563,28.734-16.453,46.004
		c0.11,17.269,6.653,36.639,20.092,52.434c13.439,15.79,33.772,28.005,54.79,34.249c21.019,6.25,42.72,6.534,64.537,2.777
		s43.749-11.559,63.613-22.887l0,0v-86.312h-90.729v37.624h28.766v33.196l0,0c-7.121,6.45-16.987,9.736-28.228,8.193
		c-11.245-1.542-23.864-7.914-32.951-16.622c-9.085-8.703-14.634-19.737-16.373-33.505c-1.739-13.772,0.333-30.277,6.634-42.82
		s16.825-21.133,29.102-25.688c12.271-4.556,26.293-5.079,38.356-2.621c12.063,2.464,22.169,7.905,30.018,15.683l0,0l20.3-22.27l0,0
		C485.858,308.137,478.854,303.993,466.821,299.468L466.821,299.468z"/>
	<polygon fill-rule="evenodd" clip-rule="evenodd" fill="#FFFFFF" points="650.771,355.732 650.771,293.763 717.159,293.763 
		717.159,470.822 650.771,470.822 650.771,391.143 595.448,391.143 595.448,470.822 529.061,470.822 529.061,293.763 
		595.448,293.763 595.448,355.732 650.771,355.732 	"/>
	<polygon fill-rule="evenodd" clip-rule="evenodd" fill="#FFFFFF" points="907.473,329.172 852.148,329.172 852.148,470.822 
		785.761,470.822 785.761,329.172 730.438,329.172 730.438,293.763 907.473,293.763 907.473,329.172 	"/>
	<path fill-rule="evenodd" clip-rule="evenodd" fill="#FFFFFF" d="M892.045,461.923h5.5v-1.092l0,0c-1.073,0-1.91-0.367-2.391-1.343
		l0,0l-4.188-7.052l0,0c2.272-0.975,3.83-2.435,3.83-4.986c0-4.618-4.545-5.471-8.018-5.471l0,0h-10.162v0.97h0.955l0,0
		c1.557,0,1.792,0.73,1.792,2.067l0,0v13.742l0,0c0,1.944-0.837,2.072-2.63,2.072l0,0v1.092h9.928v-1.092h-0.955l0,0
		c-1.436,0-1.798-0.735-1.798-2.072l0,0v-6.322h2.753L892.045,461.923L892.045,461.923z M883.909,451.462v-8.146l0,0
		c3.11,0,6.221,0,6.221,4.134c0,2.919-1.436,4.012-4.065,4.012l0,0H883.909L883.909,451.462z M886.305,470.92
		c10.167,0,18.655-8.512,18.655-18.969c0-10.461-8.488-18.974-18.655-18.974c-10.285,0-18.777,8.513-18.777,18.974
		C867.527,462.408,876.02,470.92,886.305,470.92L886.305,470.92z M886.305,468.854c-9.09,0-16.628-7.66-16.628-16.902
		s7.415-16.906,16.628-16.906c9.09,0,16.622,7.664,16.622,16.906S895.395,468.854,886.305,468.854L886.305,468.854z"/>
</g>
</svg>
