<?xml version="1.0" encoding="utf-8"?>
<!-- Generator: Adobe Illustrator 16.0.0, SVG Export Plug-In . SVG Version: 6.00 Build 0)  -->
<!DOCTYPE svg PUBLIC "-//W3C//DTD SVG 1.1//EN" "http://www.w3.org/Graphics/SVG/1.1/DTD/svg11.dtd">
<svg version="1.1" id="Capa_1" xmlns="http://www.w3.org/2000/svg" xmlns:xlink="http://www.w3.org/1999/xlink" x="0px" y="0px"
	 width="1666px" height="1666px" viewBox="0 0 1666 1666" enable-background="new 0 0 1666 1666" xml:space="preserve">
<g>
	<path fill="#E0E0E0" d="M76.834,164.281c7.276-9.534,20.574-29.104,33.244-47.294c2.383-9.659,8.53-17.688,18.942-17.688
		c6.774,0,10.287,4.391,10.663,8.405c0,2.508-2.007,4.516-11.917,10.913c-1.756,9.159-2.759,22.581-3.386,33.62
		c3.01,0.502,4.892,2.384,4.892,6.021c0,3.513-2.258,7.402-5.394,10.036c0,5.394,0,8.279,1.881,8.279
		c1.756,0,8.907-3.638,17.813-16.183h0.501c2.384,0,4.768,1.756,4.768,4.14c0,8.404-22.33,30.734-34.498,30.734
		c-7.778,0-11.04-3.512-11.04-10.663c0-4.014,0-5.771,0.376-11.917c-5.394,0.502-13.674,1.003-20.071,1.255
		c-14.05,20.322-22.706,26.344-33.996,26.344c-12.168,0-19.444-7.401-19.444-20.197c0-10.161,7.15-19.067,16.559-19.067
		c3.513,0,5.771,1.38,6.648,4.265C60.401,165.159,67.802,164.783,76.834,164.281z M67.928,174.818
		c-7.151,0.251-12.67,0.251-17.813,0.251c-0.251,0.878-0.376,2.133-0.376,2.76c0,4.015,2.006,5.896,4.767,5.896
		C58.645,183.726,62.032,181.593,67.928,174.818z M104.559,162.273c0.626-6.522,2.006-20.573,3.512-27.849
		c-4.14,7.778-12.293,21.953-16.433,28.853C95.777,163.026,101.296,162.65,104.559,162.273z"/>
	<path fill="#E0E0E0" d="M202.785,133.17c-0.752,0.376-1.882,0.627-2.886,0.627c-3.386,0-5.393-2.885-5.393-7.401
		c0-14.05,18.441-27.347,45.412-27.347c24.587,0,34.874,10.036,34.874,24.336c0,8.029-5.52,18.441-15.053,27.724
		c12.418,6.523,15.304,15.807,15.304,21.326c0,13.297-8.781,22.957-26.971,22.957c-8.781,0-16.559-2.383-28.978-10.537
		c-5.269,4.265-7.904,6.021-10.914,6.021c-3.137,0-8.154-4.892-8.154-12.669c0-4.768,4.391-6.022,14.175-6.9
		c6.272-13.298,12.293-35.501,14.803-52.311C218.09,120.374,207.427,123.887,202.785,133.17z M256.728,175.32
		c0-6.523-5.52-11.792-21.953-18.817c-1.757,6.147-4.391,12.043-8.28,17.562c9.91,3.387,19.821,6.523,24.588,6.523
		C254.218,180.589,256.728,178.582,256.728,175.32z M237.409,147.722c1.38-0.251,3.136-0.376,5.269-0.376
		c1.882,0,4.014,0.125,6.021,0.376c4.14-6.648,6.021-13.548,6.021-17.939c0-5.52-2.759-9.409-11.29-10.914
		C241.298,131.54,239.291,140.697,237.409,147.722z"/>
	<path fill="#E0E0E0" d="M337.767,167.292c0-31.362,25.592-66.362,47.419-66.362c12.418,0,17.437,6.273,17.437,16.936
		c0,11.667-7.402,24.212-16.309,24.212c-3.136,0-4.516-0.753-5.269-2.258c2.007-4.768,3.137-13.298,3.137-16.058
		c0-5.771-1.756-7.904-4.265-7.904c-6.9,0-20.322,24.211-20.322,45.914c0,11.917,3.387,17.813,14.301,17.813
		c10.413,0,23.458-8.154,30.985-19.695c2.634,0,4.767,1.003,4.767,4.015c0,9.534-23.333,33.996-45.286,33.996
		C347.552,197.901,337.767,187.238,337.767,167.292z"/>
	<path fill="#E0E0E0" d="M471.118,173.815c5.771-11.04,13.8-39.893,16.81-54.067c-1.882-0.251-2.634-0.251-5.018-0.251
		c-8.53,0-14.552,2.006-22.079,7.778c-3.889,0-6.146-3.388-6.146-7.402c0-8.154,10.538-20.448,33.745-20.448
		c34.498,0,52.437,23.333,52.437,52.312c0,22.706-13.924,43.028-38.386,43.028c-7.652,0-16.057-2.384-27.097-7.652
		c-5.018,4.014-8.405,5.394-11.667,5.394c-5.645,0-8.782-8.154-8.782-13.423c0-3.136,1.756-6.021,5.771-6.021
		C463.841,173.062,466.477,173.313,471.118,173.815z M502.604,124.138c-4.641,23.082-12.042,43.781-17.437,52.813
		c8.028,2.258,13.172,3.513,17.939,3.513c12.67,0,17.938-11.542,17.938-24.713C521.045,143.332,515.024,131.037,502.604,124.138z"/>
	<path fill="#E0E0E0" d="M602.463,177.077c0-8.907,6.272-19.445,19.569-25.843c-3.638-3.888-6.271-10.035-6.271-17.437
		c0-15.932,14.426-32.867,31.737-32.867c11.667,0,16.811,5.52,16.811,14.928c0,12.419-7.652,18.316-14.678,18.316
		c-2.76,0-4.015-1.004-4.516-2.258c1.631-3.387,2.509-6.774,2.509-10.036c0-4.767-1.63-6.398-3.637-6.398
		c-4.517,0-9.66,8.907-9.66,18.566c0,4.391,1.004,9.284,2.258,12.545c2.761-0.627,6.9-1.003,9.284-1.003
		c4.767,0,6.021,1.379,6.021,3.136c0,7.151-5.895,14.175-12.042,14.175c-2.384,0-5.771-1.38-8.406-3.387
		c-3.386,3.513-5.645,8.907-5.645,12.42c0,6.272,3.387,10.286,10.788,10.286c11.793,0,27.473-11.29,34.75-22.33
		c2.634,0,4.767,1.003,4.767,4.015c0,8.029-21.954,35-48.297,35C612.122,198.904,602.463,189.997,602.463,177.077z"/>
	<path fill="#E0E0E0" d="M745.348,138.815c0,4.516-3.387,8.53-10.162,8.53c-7.652,0-15.556-9.283-15.556-20.573
		c0-14.051,9.409-27.097,27.348-27.097c6.146,0,10.162,0.25,19.82,2.007c31.612,5.646,41.146,6.523,53.316,6.649
		c0.878,0.877,1.504,3.261,1.504,4.767c0,7.903-7.651,13.172-17.061,13.172c-4.265,0-10.788-0.627-16.433-2.258
		c-1.882,5.646-2.885,10.538-4.265,18.44c2.007,0.251,3.763,0.628,5.395,0.628c6.147-0.125,9.91-0.878,13.172-1.882
		c1.128,0.878,2.258,3.136,2.258,4.892c0,8.28-6.273,12.294-14.803,12.294c-3.387,0-8.53-1.128-8.53-1.128
		c-0.376,2.132-3.136,13.296-3.512,15.053c-5.018,22.33-16.183,38.638-33.996,38.638c-12.545,0-19.194-7.025-19.194-17.939
		c0-9.409,5.896-19.946,35.627-39.767c-2.133-1.756-3.387-4.391-3.387-6.899c0-2.133,1.004-4.265,3.387-5.52
		c1.129-0.627,2.634-0.878,4.391-1.003c1.756-7.151,4.014-12.294,8.153-19.57c-13.297-4.266-22.329-5.646-29.104-5.646
		c-6.775,0-9.911,3.262-9.911,9.158C733.806,128.779,736.692,133.797,745.348,138.815z M740.581,191.252
		c0,5.143,1.882,7.025,4.641,7.025c4.641,0,9.534-10.287,13.422-31.738C744.219,179.962,740.581,186.61,740.581,191.252z"/>
	<path fill="#E0E0E0" d="M921.227,175.446c-0.502,19.444-6.396,44.158-30.608,44.158c-17.188,0-29.732-9.535-29.732-23.083
		c0-5.645,2.761-10.161,8.28-12.294c-4.265-4.39-6.397-11.164-6.397-19.319c0-32.365,27.975-64.479,50.179-64.479
		c11.165,0,15.304,6.398,15.304,15.179c0,11.165-6.648,20.95-14.426,20.95c-2.384,0-4.516-0.752-5.269-2.258
		c1.004-2.885,2.383-8.907,2.383-12.544c0-4.767-1.003-6.272-3.261-6.272c-9.534,0-25.34,24.337-25.34,45.161
		c0,8.28,4.139,12.294,10.537,12.294c3.261,0,7.275-1.003,11.039-2.76c1.004-16.057,0-21.953,9.158-21.953
		c6.898,0,13.798,2.258,13.798,6.272c0,4.015-2.006,8.154-5.143,14.552L921.227,175.446z M876.944,188.868
		c4.265,9.033,11.039,15.18,18.69,15.18c9.284,0,7.402-9.66,7.904-21.075c-5.646,4.265-12.546,7.024-18.942,7.024
		C881.711,189.997,879.202,189.622,876.944,188.868z"/>
	<path fill="#E0E0E0" d="M1058.591,115.983c0,10.412-2.76,28.853-5.394,38.764c3.387-0.752,7.902-1.631,11.164-2.885
		c6.899-39.642,14.051-50.806,27.222-50.806c7.025,0,12.169,4.014,12.169,10.663c0,2.133-1.129,4.642-2.509,6.021
		c-10.412,1.004-12.044,2.76-17.187,23.083c3.011,1.38,4.266,4.391,4.266,6.774c0,5.645-4.141,10.286-7.651,12.795
		c-1.382,7.527-2.511,14.175-2.511,16.434c0,2.634,0.503,3.261,1.757,3.261c2.007,0,10.538-5.52,20.574-19.569
		c2.508,0,4.892,1.505,4.892,4.14c0,8.279-22.204,32.616-37.76,32.616c-5.771,0-8.906-2.76-8.906-9.66
		c0-3.512,1.254-12.67,3.261-22.58c-2.633,0.753-8.027,1.631-13.046,2.258c-8.028,19.319-21.577,35-39.391,35
		c-13.172,0-23.333-10.287-23.333-23.71c0-11.541,6.648-17.939,26.219-19.57c7.902-0.627,14.176-1.004,21.702-1.505
		c1.756-8.656,4.015-27.097,4.015-34.122c0-5.394-4.517-10.161-4.517-16.057c0-9.033,7.778-12.796,14.678-12.796
		C1054.451,94.532,1058.591,100.177,1058.591,115.983z M1005.402,176.073c0,5.018,5.77,10.161,10.913,10.161
		c5.896,0,10.915-7.025,14.302-16.058c-6.398,0.627-10.161,0.878-16.183,1.255C1007.66,171.808,1005.402,173.438,1005.402,176.073z"
		/>
	<path fill="#E0E0E0" d="M1181.407,103.313c9.282,0,15.43,0.251,21.45,0.251c5.771,0,10.287-0.753,15.556-2.508
		c2.761,1.379,4.767,4.39,4.767,7.902c0,8.28-7.024,12.796-17.311,12.796c-6.649,29.104-10.915,45.914-13.926,54.946
		c5.019,0,9.534,0.125,14.302,0.376c1.13,1.505,1.755,3.889,1.755,5.771c0,8.028-7.148,10.412-20.321,10.412
		c-10.411,0-17.813-0.878-37.258-1.004c-0.752-0.752-1.255-2.132-1.255-3.763c0-6.648,5.52-9.659,22.455-11.039
		c4.643-16.433,9.659-38.763,13.925-58.96c-5.645-1.003-11.541-2.132-17.062-2.76c-0.751-1.003-1.127-2.383-1.127-3.764
		C1167.357,106.826,1171.37,103.313,1181.407,103.313z"/>
	<path fill="#E0E0E0" d="M1315.76,152.991c-1.631,0.627-3.137,0.878-4.517,0.878c-5.77,0-9.282-4.893-9.282-12.294
		c0-14.551,16.809-40.017,38.387-40.017c11.792,0,17.186,6.397,17.186,19.945c0,13.674-6.773,42.025-12.544,56.703
		c6.899-3.388,13.046-8.656,18.817-17.688c2.383,0,4.516,1.505,4.516,4.015c0,7.024-10.914,19.945-28.602,27.096
		c-8.907,17.312-20.699,25.34-36.757,25.34c-20.698,0-34.873-14.552-34.873-31.738c0-14.175,7.776-19.946,15.555-19.946
		c3.889,0,5.646,3.136,5.646,7.15c9.031,4.015,25.841,8.154,33.62,8.656c6.271-16.434,12.418-46.165,12.418-55.949
		c0-2.509-0.502-4.14-2.132-4.14C1325.545,121.001,1317.39,142.202,1315.76,152.991z M1319.021,191.252
		c-7.903-0.251-21.828-3.011-29.48-6.397c2.384,9.659,8.907,16.182,16.686,16.182
		C1311.621,201.036,1315.885,197.399,1319.021,191.252z"/>
	<path fill="#E0E0E0" d="M1479.095,120.75c7.149-16.684,10.536-18.565,17.185-18.565c7.903,0,12.294,6.522,12.294,12.92
		c0,2.008-0.627,4.516-2.258,6.272c-4.893,0.376-6.522,1.631-14.302,12.796c-7.652,11.04-13.924,18.44-19.82,23.584
		c4.517,3.011,8.907,11.917,13.299,20.698c1.505,3.011,2.76,3.764,4.641,3.764c1.13,0,3.638-0.376,5.144-0.753
		c1.003,1.129,1.506,3.011,1.506,4.517c0,6.899-9.535,13.172-18.44,13.172c-4.769,0-7.026-1.882-10.162-8.656
		c-7.903-17.186-10.663-23.083-16.435-24.964l-5.769,26.595c-1.131,1.129-3.012,1.631-5.27,1.631
		c-6.774,0-14.049-6.398-14.049-13.297c0-4.642,3.009-12.294,8.277-19.821l1.633-7.652c-1.13,0.125-2.762,0.251-3.891,0.251
		c-10.913,0-20.071-6.523-20.071-17.437c0-17.939,23.835-39.893,39.266-39.893c8.781,0,12.795,4.767,12.795,11.416
		c0,3.889-3.763,21.451-9.784,46.29c1.756-0.251,3.89-0.376,6.271-0.376C1466.925,146.091,1473.95,132.793,1479.095,120.75z
		 M1445.474,115.482c0-2.258-0.753-3.262-2.259-3.262c-3.511,0-14.551,10.538-14.551,19.068c0,5.269,3.387,7.903,10.913,10.286
		C1443.341,128.654,1445.474,118.744,1445.474,115.482z"/>
	<path fill="#E0E0E0" d="M1568.412,144.836c0-3.763,2.008-6.649,5.269-8.656c3.639,2.76,8.154,4.893,12.044,5.646
		c5.395-14.928,11.29-29.48,14.677-35c4.392-7.025,10.161-9.66,16.434-9.66c14.677,0,24.462,10.036,24.462,20.824
		c0,12.545-12.796,27.599-40.77,36.38c-1.506,4.39-5.896,11.917-9.534,17.186c33.62,5.646,40.769,15.806,40.769,24.588
		c0,6.272-3.762,11.29-8.277,12.545c-9.159-7.904-21.075-14.427-45.915-20.072c-4.516,4.265-8.278,6.9-12.168,6.9
		c-6.272,0-12.044-9.911-12.044-16.81c0-5.896,3.389-8.656,12.797-8.656c2.133,0,4.517,0.125,7.276,0.376
		c2.886-5.52,5.269-10.412,7.4-15.555C1573.681,153.869,1568.412,149.854,1568.412,144.836z M1604.165,141.575
		c13.171-5.269,21.45-13.297,21.45-20.573c0-3.888-4.389-7.025-9.408-7.025c-1.63,0-3.387,1.129-5.018,6.649L1604.165,141.575z"/>
	<path fill="#E0E0E0" d="M90.384,278.695c-1.256-4.642-1.757-7.527-1.757-12.419c0-10.287,10.036-22.33,21.452-22.33
		c6.774,0,9.659,3.512,9.659,6.523c0,3.136-2.508,7.778-8.529,16.308c1.63,9.033,4.766,24.713,6.146,36.129l20.824-25.09
		c3.763-15.555,11.166-23.208,21.578-23.208c4.516,0,8.907,2.634,8.907,7.653c0,3.889-6.9,9.157-14.427,16.684
		c-4.516,18.943-6.397,41.523-6.397,47.419c0,1.506,0.752,2.008,1.882,2.008c1.755,0,9.282-4.893,17.938-17.312
		c2.51,0,4.893,1.505,4.893,4.139c0,8.28-21.954,30.359-33.996,30.359c-7.653,0-10.288-3.388-10.288-10.663
		c0-9.785,1.004-17.438,5.645-36.38l-15.304,18.816c0,11.542-9.91,26.47-20.698,26.47c-5.897,0-10.288-3.513-10.288-10.035
		c0-3.137,1.882-6.022,9.534-13.172c-0.752-10.287-2.132-22.455-2.634-25.968c-17.688,43.53-31.237,57.706-47.544,57.706
		c-12.293,0-18.566-6.899-18.566-19.067c0-13.549,7.275-22.456,16.057-22.456c3.512,0,5.895,1.505,6.899,3.764
		c-2.383,5.269-3.638,10.663-3.638,13.548c0,5.519,1.38,6.899,5.394,7.276C59.021,335.397,69.308,323.981,90.384,278.695z"/>
	<path fill="#E0E0E0" d="M329.99,249.842c6.774,0,10.914,4.266,10.914,10.538c0,2.132-1.128,4.642-2.509,6.021
		c-10.914,1.129-12.293,3.763-24.587,50.179c0.626,3.513,1.254,9.533,1.254,13.925c0,9.659-6.649,15.68-14.678,15.68
		c-6.523,0-10.036-2.383-10.036-6.021c0-2.885,1.13-6.774,4.141-14.929c-2.384-6.272-9.785-20.322-15.681-29.981
		c-16.433,43.154-29.104,57.078-43.656,57.078c-12.293,0-17.437-6.272-17.437-17.813c0-13.548,7.276-22.455,16.058-22.455
		c3.513,0,5.896,1.505,6.9,3.764c-2.384,5.268-3.639,10.663-3.639,13.547c0,4.517,0.753,6.022,3.387,6.022
		c4.642,0,12.168-10.036,30.359-52.938c-1.757-5.52-2.51-9.284-2.51-14.176c0-10.286,7.779-19.695,19.193-19.695
		c6.774,0,9.66,3.514,9.66,6.524c0,3.386-2.133,7.903-8.154,17.813c3.764,7.903,13.298,22.079,16.434,29.48
		C314.184,258.749,317.696,249.842,329.99,249.842z"/>
	<path fill="#E0E0E0" d="M493.325,249.842c6.774,0,10.914,4.266,10.914,10.538c0,2.132-1.128,4.642-2.508,6.021
		c-10.914,1.129-12.294,3.763-24.587,50.179c0.626,3.513,1.254,9.533,1.254,13.925c0,9.659-6.649,15.68-14.678,15.68
		c-6.523,0-10.036-2.383-10.036-6.021c0-2.885,1.129-6.774,4.141-14.929c-2.383-6.272-9.786-20.322-15.682-29.981
		c-16.433,43.154-29.104,57.078-43.655,57.078c-12.294,0-17.438-6.272-17.438-17.813c0-13.548,7.276-22.455,16.057-22.455
		c3.513,0,5.897,1.505,6.9,3.764c-2.383,5.268-3.639,10.663-3.639,13.547c0,4.517,0.753,6.022,3.387,6.022
		c4.642,0,12.168-10.036,30.359-52.938c-1.757-5.52-2.509-9.284-2.509-14.176c0-10.286,7.778-19.695,19.193-19.695
		c6.775,0,9.66,3.514,9.66,6.524c0,3.386-2.133,7.903-8.154,17.813c3.763,7.903,13.297,22.079,16.433,29.48
		C477.52,258.749,481.031,249.842,493.325,249.842z M491.695,212.835c5.645,0.627,8.53,4.768,8.53,9.032
		c0,7.401-5.896,10.914-20.95,14.301c-9.91,2.133-13.298,3.136-15.806,6.021c-2.886,0-6.147-1.756-6.147-6.398
		c0-5.52,3.638-8.781,14.176-12.293C485.924,218.605,488.433,217.226,491.695,212.835z"/>
	<path fill="#E0E0E0" d="M575.245,346.688c-18.189,0-28.1-10.788-28.1-32.993c0-29.606,26.093-62.473,45.537-62.473
		c4.141,0,6.9,3.137,7.151,7.275c2.509-1.63,5.771-2.759,9.534-2.759c11.04,0,16.685,9.785,16.685,20.072
		s-4.015,29.229-12.921,43.906c1.254,1.004,3.638,1.631,5.646,1.631c3.889,0,8.782-3.638,13.171-10.788
		c2.258,0.125,4.893,1.756,4.893,4.516c0,5.646-9.66,18.692-21.076,18.692c-3.512,0-7.275-1.004-9.785-2.886
		C598.955,340.289,588.292,346.688,575.245,346.688z M582.02,328.246c4.893,0,9.784-2.133,12.795-6.523
		c-5.269-6.398-8.531-15.179-8.531-26.72c0-11.918,2.51-21.075,7.275-30.107c-12.042,7.903-23.96,24.462-23.96,44.408
		C569.6,320.594,573.865,328.246,582.02,328.246z M609.868,283.336c0-5.645-1.129-9.032-7.15-9.659
		c-1.004,5.395-2.008,11.918-2.008,18.441c0,5.896,0.753,11.667,2.761,16.559C607.735,300.146,609.868,287.225,609.868,283.336z"/>
	<path fill="#E0E0E0" d="M737.575,251.598c22.456,1.631,30.484,13.925,30.484,28.979c0,25.466-23.96,45.788-44.158,46.666
		c-6.147,17.438-16.434,27.223-30.233,27.223c-8.655,0-14.05-5.018-14.05-12.545c0-5.018,4.265-9.659,8.782-9.91
		c2.634,2.886,5.268,4.642,7.652,4.642c4.015,0,7.15-6.021,10.412-17.813c4.015-14.677,8.53-35.25,11.667-48.297
		c-7.15,1.255-14.301,4.516-17.814,7.778c-2.76,0-5.77-2.258-5.77-6.649c0-8.154,11.666-17.061,28.476-19.569
		c1.004-4.14,6.774-7.277,10.789-7.277C737.325,244.824,737.575,245.828,737.575,251.598z M734.063,270.667
		c-1.254,10.537-3.513,26.845-6.273,41.021c0.628,0.125,1.38,0.125,1.756,0.125c10.914,0,18.817-12.168,18.817-25.717
		C748.364,279.071,745.479,272.799,734.063,270.667z"/>
	<path fill="#E0E0E0" d="M826.144,333.139c4.767,0,13.046,1.38,20.572,4.015c20.699-21.577,33.62-43.279,33.62-57.079
		c0-3.387-1.506-5.645-7.275-9.408c-2.508-1.631-3.89-3.262-3.89-6.398c0-0.878,0.126-1.882,0.502-2.76
		c-16.559,11.542-22.329,27.473-22.329,37.383c0,8.781,1.882,13.548,8.53,19.194c-0.251,4.892-4.642,6.899-7.903,6.899
		c-14.802,0-22.329-11.918-22.329-23.458c0-14.176,8.906-35,25.089-45.412c5.521-3.513,10.914-5.018,15.932-5.018
		c3.513,0,5.771,1.63,6.021,4.265c2.51-3.889,7.401-4.642,10.037-4.642c12.92,0,20.446,10.789,20.446,22.706
		c0,23.083-16.433,45.789-42.777,69.498c17.438,6.648,37.51,16.935,57.204,16.935c3.638,0,6.774-0.25,10.287-1.003
		c2.634-7.903,4.139-9.785,6.146-9.785c4.894,0,7.652,5.52,7.652,8.656c0,5.269-3.011,8.781-12.294,12.67
		c-4.139,5.771-10.662,8.656-20.698,8.656c-20.573,0-50.43-15.556-63.853-25.215c-4.894,2.634-10.663,4.14-16.31,4.14
		c-7.275,0-14.551-8.782-14.551-17.312C813.975,335.899,816.358,333.139,826.144,333.139z"/>
	<path fill="#E0E0E0" d="M1037.146,337.279c0,6.899-8.781,14.301-19.067,14.301c-4.767,0-7.026-1.882-10.162-8.656
		c-7.902-17.186-11.164-23.208-16.935-25.089c-2.258,9.157-4.014,19.82-4.266,24.085c-1.004,1.38-3.136,2.258-6.272,2.258
		c-7.15,0-11.916-7.401-11.916-12.293c0-3.388,0.878-8.405,6.271-24.212c3.639-10.788,7.903-23.208,12.419-38.01
		c-10.412,1.254-19.82,10.412-24.085,18.818c-0.754,0.375-1.883,0.626-2.886,0.626c-3.388,0-5.394-2.886-5.394-7.401
		c0-12.796,21.45-31.738,48.171-31.738c21.576,0,32.365,10.537,32.365,25.34c0,12.419-7.401,23.458-21.577,36.63
		c2.635,2.509,7.651,9.033,12.043,17.814c1.506,3.011,2.76,3.763,4.642,3.763c1.13,0,3.639-0.376,5.143-0.752
		C1036.645,333.892,1037.146,335.773,1037.146,337.279z M1015.193,281.956c0-6.648-3.889-12.042-14.677-12.795
		c-0.252,7.903-2.51,20.699-6.398,36.756c1.255-0.251,2.635-0.377,4.141-0.377c2.384,0,4.767,0.377,6.522,0.878
		C1012.811,295.63,1015.193,289.483,1015.193,281.956z"/>
	<path fill="#E0E0E0" d="M1106.897,307.171c2.133,0,4.014,0.627,5.144,2.007v2.383c0,17.061,7.777,24.588,16.182,24.588
		c4.768,0,8.531-4.391,8.531-10.789c0-4.14-0.754-7.527-12.42-22.33c-6.648-8.53-8.781-15.555-8.781-23.333
		c0-13.925,10.788-28.853,26.594-28.853c13.55,0,18.943,7.777,18.943,15.305c0,4.892-2.634,8.906-5.394,10.286
		c-6.649-5.52-11.29-8.028-15.933-8.028c-2.76,0-5.018,2.383-5.018,6.021c0,4.014,2.133,8.906,9.408,19.068
		c10.538,14.928,12.294,20.197,12.294,27.598c0,14.176-13.046,31.111-34.122,31.111c-19.318,0-29.103-11.416-29.103-25.215
		C1093.224,317.834,1098.115,307.171,1106.897,307.171z"/>
	<path fill="#E0E0E0" d="M1249.404,353.21c-10.412,0-18.189-6.774-18.189-15.806c0-5.77,3.638-9.785,10.035-9.91
		c3.513,4.642,8.782,9.158,11.792,9.158c4.016,0,6.399-5.896,9.158-17.813c4.894-21.2,5.896-27.849,7.778-33.746
		c-10.036,4.768-24.463,8.782-35.627,8.782c-11.29,0-18.441-6.397-18.441-18.817c0-15.179,12.545-28.602,25.466-28.602
		c7.652,0,14.929,1.003,25.842,3.513c31.236,7.15,39.767,8.655,54.068,8.906c0.878,0.627,1.63,2.634,1.63,4.14
		c0,8.53-7.777,13.799-17.186,13.799c-5.395,0-6.9-0.251-13.548-2.259c-3.639,10.663-8.782,40.143-12.671,53.064
		C1274.368,344.931,1263.078,353.21,1249.404,353.21z M1267.094,276.437c2.132,0,4.389,0.628,5.268,1.882
		c0.753-2.258,2.885-5.896,4.517-7.527c-23.208-7.652-32.24-9.66-37.634-9.66c-4.768,0-7.904,3.137-7.904,8.154
		c0,6.523,4.643,9.534,12.17,9.534C1252.54,278.82,1264.082,276.437,1267.094,276.437z"/>
	<path fill="#E0E0E0" d="M1376.231,249.089c11.918,0,17.438,6.648,17.438,15.43c0,7.903-1.757,15.932-9.032,34.623
		c-4.767,12.169-6.147,18.315-6.147,22.079c0,6.146,2.635,9.032,7.904,9.032c8.655,0,18.565-15.179,25.089-43.405
		c-1.255-5.646-1.882-11.164-1.882-15.932c0-9.659,2.76-16.559,9.282-16.559c7.026,0,14.429,6.899,14.429,11.667
		c0,4.39-0.881,8.153-5.145,18.941c-9.534,44.158-27.473,62.097-47.043,62.097c-15.179,0-24.462-8.028-24.462-21.828
		c0-6.272,2.258-15.053,4.893-21.702c8.405-21.451,10.537-29.104,10.537-33.118c0-3.136-1.506-3.889-3.513-3.889
		c-2.509,0-7.15,2.885-11.667,7.15c-3.888-0.627-6.648-5.018-6.648-8.655C1350.265,255.989,1361.43,249.089,1376.231,249.089z"/>
	<path fill="#E0E0E0" d="M1578.579,271.419c0,33.871-29.983,73.262-54.694,73.262c-16.31,0-21.703-9.535-21.703-22.08
		c0-5.018,1.756-11.541,5.144-19.444c-11.416-0.376-20.825-7.15-20.825-17.939c0-17.813,26.847-36.38,41.648-36.38
		c9.157,0,14.929,3.889,14.929,14.678c0,9.785-5.771,20.95-14.804,42.15c-3.009,7.15-4.014,11.165-4.014,15.305
		c0,3.512,1.506,6.397,5.646,6.397c10.412,0,28.854-24.336,28.854-49.175c0-5.896-2.511-12.294-8.907-19.696
		c1.002-5.394,5.645-8.028,11.792-8.028C1572.558,250.469,1578.579,260.129,1578.579,271.419z M1512.092,292.369
		c5.394-11.667,10.411-20.323,10.411-24.839c0-3.136-0.752-3.637-2.382-3.637c-3.514,0-16.811,9.282-16.811,18.189
		C1503.311,286.221,1505.568,288.981,1512.092,292.369z"/>
	<path fill="#E0E0E0" d="M35.186,435.761c0-17.813,26.847-36.38,41.649-36.38c9.158,0,14.929,3.89,14.929,14.678
		c0,9.785-7.526,22.204-16.559,43.404c-3.011,7.151-4.015,11.542-4.015,15.682c0,3.512,2.007,6.397,6.146,6.397
		c4.392,0,8.405-4.266,13.298-11.04c0-23.208,10.789-48.171,22.33-48.171c5.394,0,9.032,3.136,9.032,8.655
		c0,13.925-8.906,29.606-17.562,42.401c1.128,4.767,3.01,7.903,6.146,7.903c10.412,0,25.591-25.717,25.591-50.555
		c0-7.025-2.509-11.417-9.284-18.942c1.003-5.394,5.269-8.029,11.416-8.029c10.914,0,16.559,10.036,16.559,21.326
		c0,33.871-22.58,71.881-47.293,71.881c-6.273,0-11.667-3.513-14.928-11.04c-8.155,9.158-16.434,13.046-25.09,13.046
		c-12.67,0-18.19-7.652-18.19-19.319c0-4.767,1.882-13.924,6.649-23.961C44.595,453.323,35.186,446.549,35.186,435.761z
		 M60.777,442.911c5.395-11.667,10.412-20.322,10.412-24.838c0-3.136-0.752-3.638-2.384-3.638c-3.512,0-16.809,9.283-16.809,18.19
		C51.997,436.765,54.254,439.524,60.777,442.911z"/>
	<path fill="#E0E0E0" d="M254.722,431.37l-1.38-6.9c-3.387-1.254-4.893-3.888-4.893-8.153c0-6.398,7.402-18.065,14.803-18.065
		c6.523,0,9.283,5.771,14.677,33.118c13.674-18.942,20.071-23.835,26.845-23.835c5.645,0,9.283,3.262,9.283,8.405
		c0,1.631-0.502,3.387-1.254,4.642c-11.667,4.015-17.187,7.275-32.365,26.218c5.018,29.229,6.397,31.989,10.662,31.989
		c4.516,0,11.291-6.773,18.943-17.562c3.011,0,4.641,2.133,4.641,4.516c0,7.777-18.691,30.233-34.246,30.233
		c-9.786,0-14.051-4.516-18.19-26.846c-13.924,22.078-23.208,29.479-34.372,29.479c-10.036,0-18.817-5.77-18.817-18.942
		C209.059,465.366,223.861,443.789,254.722,431.37z M230.385,474.524c0,3.262,1.63,4.892,4.265,4.892
		c5.519,0,13.046-9.282,24.838-25.214l-3.011-13.423C237.41,453.574,230.385,466.747,230.385,474.524z"/>
	<path fill="#E0E0E0" d="M456.191,461.101c2.258,0.125,4.391,1.38,4.391,4.14c0,9.409-17.938,26.093-31.236,34.624
		c-5.269,11.291-14.803,21.451-26.596,21.451c-5.771,0-13.924-4.39-13.924-11.039c0-5.143,7.903-10.789,26.72-20.322
		c1.756-4.265,3.137-11.165,4.768-18.441c-6.775,9.284-16.308,14.803-25.09,14.803c-9.659,0-15.179-6.398-15.179-15.681
		c0-4.516,1.129-9.534,3.889-16.936c-11.416-0.376-20.95-7.275-20.95-18.063c0-17.814,29.23-35,44.032-35
		c8.405,0,12.795,3.513,12.795,10.287c0,4.767-0.878,7.401-13.673,35.627c-4.391,9.785-5.018,12.419-5.018,15.305
		c0,2.76,1.63,4.265,4.014,4.265c5.395,0,12.168-3.136,17.187-8.656c4.516-39.013,8.907-54.192,17.061-54.192
		c6.397,0,13.046,6.899,13.046,11.666c0,4.391-2.132,9.032-7.151,18.189c-2.885,15.306-6.397,32.492-7.902,39.391
		c-0.878,3.763-2.008,8.154-3.011,11.416C442.392,478.162,449.167,471.639,456.191,461.101z M388.199,442.911
		c5.395-11.667,10.914-19.946,10.914-24.461c0-2.133-0.752-2.761-2.383-2.761c-3.514,0-16.936,7.904-16.936,16.81
		C379.794,436.639,381.676,439.524,388.199,442.911z"/>
	<path fill="#E0E0E0" d="M539.114,425.223c-2.258,0-5.771,1.004-10.036,3.513c-3.261-1.004-5.395-3.889-5.395-9.032
		c0-9.032,7.276-16.81,16.183-16.81c9.534,0,18.19,2.384,36.631,9.409c2.508-3.889,4.39-6.147,6.774-6.147
		c5.018,0,8.906,6.021,8.906,10.538c0,5.269-3.888,11.039-13.798,17.563c-11.542,16.433-20.448,25.089-35.627,38.135
		c19.946,29.355,23.458,32.115,29.731,32.115c4.893,0,10.287-1.756,16.309-5.018c1.755,0.878,3.512,3.764,3.512,7.025
		c0,9.66-14.426,20.323-28.728,20.323c-13.171,0-18.566-5.896-37.759-42.151c-3.638,3.262-9.409,6.272-12.921,6.272
		c-3.136,0-5.144-2.383-5.144-10.914c0-8.405,5.019-21.953,16.685-21.953c3.638,0,6.147,1.254,10.161,4.641
		c10.538-8.28,25.215-23.333,30.86-31.488C554.167,427.857,545.01,425.223,539.114,425.223z"/>
</g>
<g>
	<path fill="#E0E0E0" d="M49.504,801.423c-9.465,0-16.439-7.805-16.439-22.915c0-24.908,20.59-50.977,37.195-50.977
		c2.325,0,3.487,0.332,4.317,1.162l0.498-9.631c1.329-1.494,3.486-2.158,5.812-2.158c11.292,0,17.436,7.639,17.436,13.45
		c0,2.158-0.499,6.31-1.827,10.958c-5.812,20.922-7.971,31.384-7.971,35.701c0,3.322,0.664,3.819,1.993,3.819
		c3.321,0,11.956-6.31,22.583-21.254c3.486,0,6.144,2.159,6.144,5.147c0,10.793-27.564,37.527-39.52,37.527
		c-7.306,0-11.956-2.99-11.956-13.617c0-1.826,0.166-3.985,0.498-6.476C62.954,797.271,55.316,801.423,49.504,801.423z
		 M73.747,739.487c-8.302,5.313-16.273,19.095-16.273,31.881c0,6.144,1.993,6.807,4.318,6.807s4.649-1.66,6.641-4.151
		L73.747,739.487z"/>
	<path fill="#E0E0E0" d="M201.599,803.582c-13.449,0-20.59-9.134-20.59-30.222c0-41.18,21.254-93.485,42.508-93.485
		c6.642,0,10.793,3.322,10.793,11.292c0,6.642-5.978,19.096-26.235,47.49c-1.661,10.295-2.822,22.583-2.822,28.561
		c0,14.446,0.83,16.771,2.822,16.771c6.144,0,15.276-15.443,15.276-26.402c0-6.311-1.661-8.635-7.638-10.461
		c-0.332-1.494-0.498-2.656-0.498-3.985c0-8.634,7.638-16.771,16.438-16.771c8.966,0,13.45,5.48,13.45,18.1
		C245.104,770.04,223.352,803.582,201.599,803.582z"/>
	<path fill="#E0E0E0" d="M307.702,774.854c0-25.571,20.424-50.811,38.19-50.811c11.292,0,16.937,5.979,16.937,16.107
		c0,10.627-7.472,19.095-15.442,19.095c-3.653,0-5.812-1.163-7.14-3.156c1.162-4.483,1.66-8.302,1.66-10.46
		c0-2.325-1.163-3.487-2.158-3.487c-3.155,0-8.967,10.627-8.967,27.398c0,9.132,2.491,12.786,8.967,12.786
		c9.299,0,22.084-9.466,31.051-23.414c2.989,0,6.476,1.993,6.476,5.48c0,11.458-26.236,38.523-46.328,38.523
		C314.675,802.917,307.702,792.788,307.702,774.854z"/>
	<path fill="#E0E0E0" d="M471.088,727.697c5.147,0,7.639,2.823,7.639,7.14c0,0.664,0,1.328-0.166,1.992
		c-12.122,7.806-17.436,25.406-17.436,37.196c0,5.645,1.661,7.307,4.981,7.307c6.975,0,17.104-25.904,17.104-52.804
		c0-19.261-10.461-29.059-26.07-30.054c-1.495-1.329-2.159-3.487-2.159-5.479c0-7.805,6.642-15.775,21.42-15.775
		c18.764,0,31.217,15.609,31.217,40.682c0,51.641-26.899,85.017-47.988,85.017c-13.283,0-21.918-8.635-21.918-27.066
		C437.712,751.607,457.804,727.697,471.088,727.697z"/>
	<path fill="#E0E0E0" d="M567.725,774.854c0-25.072,20.424-50.645,36.531-50.645c11.457,0,17.767,5.48,17.767,17.103
		c0,13.949-8.137,24.742-30.885,29.89c0,7.472,1.494,11.623,7.97,11.623c11.292,0,25.904-9.631,35.368-24.077
		c3.985,0.167,6.31,2.823,6.31,5.481c0,12.288-27.73,38.689-49.316,38.689C575.197,802.917,567.725,792.788,567.725,774.854z
		 M600.104,741.645c-2.325,0-6.808,5.646-7.971,17.27c9.299-1.66,11.291-6.808,11.291-11.79
		C603.425,743.638,602.097,741.645,600.104,741.645z"/>
	<path fill="#E0E0E0" d="M721.978,708.104c2.325-23.081,4.981-26.069,13.449-26.069c8.801,0,19.096,10.295,19.096,20.756
		c0,5.313-3.654,13.284-12.454,28.56c5.147-0.166,20.258-0.83,22.417-1.328c1.992,1.494,3.154,4.483,3.154,6.974
		c0,6.31-4.151,11.125-9.631,11.125c-3.818,0-7.14-0.166-10.461-0.498c6.311,3.487,10.627,11.79,10.627,23.413
		c0,29.888-25.239,72.064-47.157,72.064c-11.292,0-16.605-5.312-16.605-14.445c0-6.311,0.831-10.627,10.129-38.358
		c3.985-11.789,10.461-33.707,12.454-44.002c-3.155-0.167-4.649-1.495-4.649-4.151c0-4.65,3.486-9.631,7.14-9.963
		C720.15,726.369,721.312,714.912,721.978,708.104z M719.652,818.193c-0.166,0.499-0.332,1.163-0.332,1.495
		c0,1.162,0.83,1.661,1.992,1.661c6.311,0,20.092-29.059,20.092-46.992c0-7.804-1.992-13.616-4.982-16.107
		C732.771,781.332,723.14,809.726,719.652,818.193z"/>
	<path fill="#E0E0E0" d="M844.848,801.423c6.808,10.46,14.279,18.93,19.592,18.93c2.492,0,3.986-1.66,4.65-6.476
		c0.498-3.819,1.826-14.945,2.989-27.398c-2.159,4.15-9.465,12.288-17.27,12.288c-9.464,0-16.604-6.643-16.604-21.753
		c0-22.416,20.59-44.833,35.867-44.833c2.323,0,3.486,0.332,4.316,1.163c0.664-5.978,0.997-12.786,0.997-16.771
		c1.328-1.494,4.482-2.324,6.309-2.324c10.462,0,18.599,7.638,18.599,13.45c0,6.476-2.989,12.454-5.48,24.575
		c-1.992,9.466-3.818,22.417-4.98,32.712c6.973-4.982,16.272-13.948,23.91-25.405c4.151,0,7.141,2.324,7.141,5.314
		c0,8.136-17.603,26.899-32.38,37.361c0,0-0.665,3.486-1.162,6.641c-2.989,22.417-17.436,30.056-30.553,30.056
		c-13.45,0-29.558-9.631-29.558-22.749C831.23,809.394,836.378,801.921,844.848,801.423z M862.614,772.365
		c0,6.143,1.661,6.973,3.985,6.973c2.655,0,4.483-0.997,6.808-3.321c1.328-10.128,2.823-23.911,4.151-31.714
		C868.094,749.45,862.614,762.899,862.614,772.365z"/>
	<path fill="#E0E0E0" d="M1024.507,679.875c7.14,0,10.793,3.322,10.793,11.79c0,7.307-3.653,16.938-16.604,38.358l-3.985,15.608
		c11.955-10.959,22.25-16.273,28.727-16.273c6.311,0,9.631,3.986,9.631,9.798c0,5.147-1.495,10.295-3.984,16.604
		c-2.824,7.306-8.304,20.757-8.304,24.908c0,1.826,0.83,2.49,2.325,2.49c2.988,0,13.283-8.136,24.076-23.578
		c3.156,0,6.477,2.159,6.477,5.479c0,10.461-28.229,39.52-43.505,39.52c-9.797,0-13.118-4.318-13.118-13.45
		c0-10.959,8.635-30.055,8.635-33.708c0-1.329-0.498-2.656-2.323-2.656c-2.824,0-6.81,1.827-11.292,5.646
		c-1.661,11.789-2.823,24.243-2.989,39.685c-1.494,1.661-4.317,2.325-7.638,2.325c-9.631,0-16.771-8.801-16.938-17.435
		c0-5.147,1.328-11.125,5.479-18.266C996.444,706.111,1003.252,679.875,1024.507,679.875z"/>
	<path fill="#E0E0E0" d="M1138.411,755.427c0-9.796,14.778-27.232,25.073-27.232c7.638,0,8.302,4.151,8.302,10.627
		c0,4.317-2.822,11.292-5.812,18.265c-4.648,11.458-6.808,16.771-6.808,20.59c0,1.827,0.83,2.491,2.324,2.491
		c2.325,0,9.797-5.314,20.923-21.087c3.154,0,6.476,2.657,6.476,5.977c0,10.461-26.401,38.524-41.677,38.524
		c-9.799,0-13.119-4.318-13.119-13.451c0-7.307,1.827-14.114,5.979-24.409C1138.743,762.567,1138.411,758.748,1138.411,755.427z
		 M1169.628,684.358c6.642,0,14.114,7.306,14.114,12.454c0,3.985-3.155,10.461-11.124,20.258c-6.478,0-11.127-4.815-11.127-14.446
		C1161.491,689.174,1164.314,684.358,1169.628,684.358z"/>
	<path fill="#E0E0E0" d="M1282.204,814.209c-2.989,22.416-16.771,32.711-29.889,32.711c-12.122,0-20.093-9.132-20.093-22.251
		c0-7.638,2.491-11.789,16.107-20.423l13.283-8.469c0.831-9.297,2.325-21.751,3.985-30.054c-1.328-3.155-1.66-6.975-1.66-10.295
		c0-9.796,16.77-28.394,27.064-28.394c6.312,0,8.138,2.491,8.138,7.804c0,4.815-2.658,12.786-8.801,23.246
		c-1.162,5.479-2.988,15.442-4.317,24.576c7.639-4.982,15.608-11.956,23.579-23.081c3.155,0,6.477,2.988,6.477,6.31
		c0,8.136-17.436,25.073-32.048,34.538C1283.366,805.739,1282.702,811.054,1282.204,814.209z M1255.138,814.706
		c-3.321,2.16-4.649,3.654-4.649,6.144c0,4.815,2.491,7.97,5.812,7.97c2.491,0,3.321-1.992,3.653-6.642
		c0.498-6.144,0.996-11.457,0.996-11.457L1255.138,814.706z M1294.159,681.038c6.642,0,13.948,7.307,13.948,12.454
		c0,3.985-1.329,10.295-9.299,20.091c-7.806,0-11.291-7.14-11.291-16.605C1287.518,684.026,1289.676,681.038,1294.159,681.038z"/>
	<path fill="#E0E0E0" d="M1416.531,679.875c7.14,0,11.623,3.322,11.623,11.79c0,7.307-3.653,16.605-15.774,40.184
		c-3.653,7.307-7.306,18.099-8.302,25.239l11.124-4.649c1.661-3.487,3.653-7.14,5.812-10.129
		c7.472-10.295,12.287-13.616,16.771-13.616c8.137,0,11.955,6.643,11.955,12.951c0,7.639-1.992,9.299-19.096,17.769
		c0,17.932,1.661,24.076,5.647,24.076c4.315,0,10.959-7.139,22.582-23.91c3.155,0,6.476,1.827,6.476,5.147
		c0,9.631-25.572,40.681-40.849,40.681c-10.627,0-14.778-7.14-14.778-25.737c0-4.15,0.332-8.468,0.832-12.121l-7.474,2.989
		c-0.664,7.472-0.996,14.612-1.162,28.726c-1.827,1.993-4.981,3.155-8.8,3.155c-9.631,0-16.771-8.801-16.938-17.435
		c0-5.147,1.328-11.125,5.479-18.266C1388.636,704.616,1395.775,679.875,1416.531,679.875z"/>
	<path fill="#E0E0E0" d="M1538.24,715.742c2.988-22.416,14.777-35.867,27.896-35.867c7.14,0,11.623,3.322,11.623,11.79
		c0,7.307-3.321,15.443-15.774,38.856c-4.483,16.106-12.287,44.999-12.287,49.149c0,1.827,0.831,2.491,2.324,2.491
		c5.147,0,14.945-9.465,23.58-22.915c3.153,0,6.309,2.324,6.309,5.646c0,12.62-26.898,38.689-43.67,38.689
		c-9.631,0-13.117-4.152-13.117-12.787c0-11.125,5.312-30.386,6.641-37.361C1533.757,742.641,1536.745,727.033,1538.24,715.742z"/>
	<path fill="#E0E0E0" d="M126.55,925.96c7.639,0,11.292,5.812,11.292,12.286c0,4.318-1.495,10.13-4.483,17.104
		c-2.989,7.307-9.631,21.753-9.631,25.904c0,1.825,0.83,2.489,2.324,2.489c2.989,0,13.616-8.633,25.074-24.907
		c3.155,0,6.476,2.16,6.476,5.479c0,10.463-29.058,40.518-44.334,40.518c-9.797,0-13.119-4.318-13.119-13.451
		c0-10.959,9.797-30.718,9.797-34.372c0-1.328-0.664-1.992-1.992-1.992c-1.494,0-7.306,3.486-13.782,12.454
		c-2.324,12.786-3.985,22.083-4.483,33.376c-1.66,1.66-3.154,2.489-6.642,2.489c-9.299,0-15.608-3.818-15.774-13.782
		c0-6.309,2.657-16.106,5.645-24.075c1.329-3.654,2.823-7.474,2.823-9.134c0-1.494-0.664-1.993-1.993-1.993
		c-1.494,0-5.48,2.492-11.955,11.459c-2.325,12.784-3.82,22.083-4.318,33.374c-1.66,1.662-2.822,2.159-6.642,2.159
		c-9.299,0-16.106-8.8-16.272-18.763c0-6.311,1.826-14.945,4.649-22.582c-1.329-3.155-1.661-6.976-1.661-10.296
		c0-9.798,13.284-22.085,23.579-22.085c4.815,0,7.14,1.992,7.14,6.975c0,4.151-1.162,9.963-5.147,18.763
		c12.122-20.922,20.424-25.737,27.731-25.737c6.31,0,9.796,4.318,9.796,9.798c0,4.317-0.167,8.137-4.151,16.106
		C110.111,933.099,119.245,925.96,126.55,925.96z"/>
	<path fill="#E0E0E0" d="M221.526,951.365c0-9.798,14.778-27.233,25.073-27.233c5.646,0,7.14,1.993,7.14,6.976
		c0,4.15-2.159,15.774-6.642,23.91c12.121-20.923,23.579-28.394,30.885-28.394c7.638,0,11.458,4.981,11.458,11.457
		c0,4.483-1.329,10.295-4.815,18.265c-2.989,7.306-8.303,19.097-8.303,23.248c0,1.825,0.831,2.489,2.325,2.489
		c3.321,0,13.782-8.468,24.077-23.247c3.154,0,6.476,2.16,6.476,5.479c0,10.463-28.062,38.524-43.339,38.524
		c-9.797,0-13.118-4.318-13.118-13.449c0-10.96,8.468-27.73,8.468-31.385c0-1.328-0.664-1.992-1.993-1.992
		c-1.494,0-6.974,2.49-13.45,11.458c-2.325,12.786-3.321,20.258-3.819,31.549c-1.66,1.66-2.823,2.159-6.642,2.159
		c-9.299,0-16.107-8.802-16.273-18.765c0-6.309,1.329-13.117,4.151-20.755C221.858,958.504,221.526,954.685,221.526,951.365z"/>
	<path fill="#E0E0E0" d="M374.783,951.365c0-9.798,14.778-27.233,25.073-27.233c5.646,0,7.14,1.993,7.14,6.976
		c0,4.15-2.159,15.774-6.642,23.91c12.122-20.923,23.579-28.394,30.885-28.394c7.638,0,11.458,4.981,11.458,11.457
		c0,4.483-1.329,10.295-4.815,18.265c-2.989,7.306-8.303,19.097-8.303,23.248c0,1.825,0.83,2.489,2.325,2.489
		c3.32,0,13.782-8.468,24.077-23.247c3.155,0,6.476,2.16,6.476,5.479c0,10.463-28.062,38.524-43.338,38.524
		c-9.797,0-13.117-4.318-13.117-13.449c0-10.96,8.468-27.73,8.468-31.385c0-1.328-0.664-1.992-1.992-1.992
		c-1.494,0-6.974,2.49-13.45,11.458c-2.324,12.786-3.321,20.258-3.819,31.549c-1.661,1.66-2.823,2.159-6.643,2.159
		c-9.298,0-16.106-8.802-16.272-18.765c0-6.309,1.329-13.117,4.151-20.755C375.115,958.504,374.783,954.685,374.783,951.365z
		 M440.538,877.308c7.473,0.829,11.291,6.309,11.291,11.955c0,9.796-7.804,14.446-27.73,18.93
		c-13.117,2.823-17.601,4.151-20.922,7.971c-3.819,0-8.136-2.326-8.136-8.47c0-7.306,4.815-11.623,18.763-16.271
		C432.9,884.945,436.221,883.119,440.538,877.308z"/>
	<path fill="#E0E0E0" d="M582.669,946.051c0,7.97-1.66,14.446-5.147,23.58c0.499,0.497,1.661,1.161,3.321,1.161
		c4.815,0,9.631-3.819,15.11-12.62c2.989,0,6.476,2.492,6.476,5.979c0,6.974-11.125,22.583-25.24,22.583
		c-2.988,0-4.814-0.499-6.641-1.66c-7.97,10.792-16.771,16.771-28.395,16.771c-11.79,0-21.088-7.806-21.088-24.077
		c0-27.565,18.265-53.136,35.866-53.136c4.317,0,9.63,1.827,9.796,7.307c1.661-1.662,3.155-2.326,5.812-2.326
		C579.349,929.611,582.669,938.578,582.669,946.051z M550.622,982.083c3.985,0,7.971-3.819,10.959-11.291
		c-1.328-5.147-1.827-9.963-1.827-14.446c0-5.645,1.162-14.446,3.653-19.261c-10.295,4.814-18.764,20.921-18.764,34.538
		C544.645,979.759,547.634,982.083,550.622,982.083z"/>
	<path fill="#E0E0E0" d="M657.385,1028.577c0-4.65,2.491-13.117,8.635-24.243l1.66-48.153c0.996-28.395,16.106-42.177,27.896-42.177
		c6.808,0,11.125,3.155,11.125,7.971c0,0.497,0,1.161-0.167,1.825c-6.144,5.479-11.623,13.617-15.11,27.565
		c10.627-15.774,21.254-23.746,28.229-23.746c8.136,0,13.117,6.144,13.117,14.945c0,10.295-7.306,23.579-18.265,36.363
		c1.826,1.163,3.487,1.827,6.144,1.827c3.82,0,14.28-6.145,25.405-21.919c3.155,0,6.476,2.16,6.476,5.479
		c0,10.463-27.398,36.532-42.674,36.532c-11.457,0-14.944-8.967-14.944-16.107c0-3.985,1.494-7.141,5.978-8.469
		c2.989-5.812,5.147-11.124,5.147-14.778c0-3.487-1.162-4.648-3.321-4.648s-5.313,2.323-11.624,9.132
		c-1.993,46.327-5.812,77.379-15.94,77.379C667.348,1043.355,657.385,1036.879,657.385,1028.577z"/>
	<path fill="#E0E0E0" d="M846.509,984.075c-3.32,9.798-10.792,16.605-17.767,16.605c-10.462,0-16.439-9.464-16.439-24.242
		c0-20.425,20.091-47.491,35.866-47.491c2.325,0,3.487,0.332,4.318,1.163c0.664-5.979,0.996-10.295,0.996-14.279
		c1.328-1.495,4.483-2.326,6.31-2.326c10.462,0,18.597,7.64,18.597,13.451c0,6.475-2.987,12.453-5.479,24.574
		c-1.992,9.466-3.818,23.58-4.98,33.875c6.145-4.815,16.107-15.11,23.744-26.569c4.483,0,7.307,2.657,7.307,5.479
		c0,8.137-18.266,28.395-32.878,39.021l-0.995,14.446c0.663,3.155,2.822,10.13,2.822,15.941c0,5.313-1.827,9.631-8.137,9.631
		c-10.96,0-21.919-9.798-21.919-17.104c0-5.977,2.658-11.955,5.979-18.432C844.35,1004.001,845.347,994.205,846.509,984.075z
		 M836.713,969.463c0,6.644,0.996,7.972,3.819,7.972c2.157,0,4.15-0.996,6.973-3.819c1.328-10.13,2.823-24.742,4.151-32.545
		C842.192,946.218,836.713,960,836.713,969.463z"/>
	<path fill="#E0E0E0" d="M1012.22,946.383c0,3.321-1.825,7.306-4.482,12.62c-3.818,7.638-7.141,15.775-7.141,19.925
		c0,2.326,0.664,3.986,2.824,3.986c4.649,0,16.272-10.295,25.073-24.078c4.15,0,6.974,2.657,6.974,5.147
		c0,10.462-28.396,40.018-43.671,40.018c-10.129,0-15.774-4.482-15.774-13.947c0-10.96,8.136-25.073,8.136-29.39
		c0-1.993-1.826-2.99-5.479-4.483c-5.147,9.796-8.967,15.607-14.446,21.751c-4.15,0-6.642-2.988-6.642-6.476
		c0-1.328,0.332-2.823,1.161-3.984c4.318-6.144,7.474-10.295,10.296-17.103c-1.329-1.496-2.49-3.654-2.49-6.809
		c0-11.623,17.436-28.062,26.734-28.062c5.646,0,9.464,2.657,9.464,7.141c0,1.161-0.166,2.324-0.498,3.321
		c-3.984,2.158-7.473,4.648-9.631,8.302c1.826,0.996,4.981,2.158,7.805,2.989C1010.228,940.074,1012.22,942.397,1012.22,946.383z"/>
	<path fill="#E0E0E0" d="M1113.34,964.647c0,3.488-1.496,5.979-4.317,9.133c1.328,7.307,6.973,12.289,10.793,12.289
		c1.659,0,3.487-0.996,3.487-3.819c0-8.47-9.631-28.562-9.631-38.856c0-13.947,11.291-23.578,26.401-23.578
		c9.631,0,15.276,4.151,15.276,12.122c0,3.486-1.494,6.973-3.486,8.966c-3.155-1.329-6.145-1.993-8.802-1.993
		c-3.486,0-5.312,0.996-5.312,3.986c0,7.473,9.465,21.254,9.465,33.375c0,20.093-17.104,27.896-32.048,27.896
		c-12.952,0-23.081-8.8-23.081-25.24c0-9.797,2.657-25.903,10.794-25.903C1108.69,953.024,1113.34,960.497,1113.34,964.647z"/>
	<path fill="#E0E0E0" d="M1227.576,945.554c-3.321-0.333-6.145-0.665-6.145-4.318c0-5.147,3.652-9.796,10.461-9.963
		c0.167-3.486,0.332-6.145,0.996-12.288c1.494-14.611,10.462-25.073,21.753-25.073c7.639,0,11.124,2.658,11.124,9.798
		c0,5.147-1.992,9.132-10.792,26.734c5.147-0.168,12.122-0.665,14.279-1.164c1.993,1.496,3.155,4.483,3.155,6.976
		c0,6.31-4.151,11.124-9.631,11.124c-3.819,0-7.307-0.165-12.121-0.996c-4.483,18.265-5.812,27.563-5.812,30.056
		c0,3.984,0.997,5.812,4.483,5.812c6.81,0,18.266-7.972,29.557-23.911c3.155,0,6.643,2.325,6.643,5.645
		c0,9.797-25.405,39.521-44.501,39.521c-12.785,0-21.421-6.643-21.421-21.918C1219.604,976.771,1221.265,966.641,1227.576,945.554z"
		/>
	<path fill="#E0E0E0" d="M1399.762,923.303c9.299,0,16.107,6.641,16.107,13.449c0,2.989-0.664,6.31-3.155,12.952
		c-3.487,9.464-10.46,24.906-10.46,28.062c0,2.159,0.995,2.656,2.323,2.656c3.819,0,11.791-6.643,22.418-21.587
		c3.486,0,6.808,2.16,6.808,5.147c0,5.979-8.303,16.771-17.934,25.239c-7.805,6.975-16.605,12.289-23.578,12.289
		c-6.809,0-10.959-2.158-10.959-10.794c0-2.324,0.332-5.147,0.995-8.635c-7.971,15.11-18.099,22.085-25.571,22.085
		c-9.797,0-12.121-5.646-12.121-15.609c0-4.98,2.324-14.612,6.641-25.239c-1.825-3.487-2.157-6.974-2.157-10.295
		c0-10.295,15.939-28.893,27.563-28.893c5.147,0,7.97,1.661,7.97,6.644c0,5.312-4.315,15.275-12.785,29.057
		c-1.661,5.979-2.657,10.96-2.657,13.616c0,2.658,0.996,4.318,3.321,4.318c2.822,0,8.138-3.986,11.457-7.472
		c5.646-17.934,7.972-29.557,8.801-43.837C1394.449,924.299,1397.271,923.303,1399.762,923.303z"/>
	<path fill="#E0E0E0" d="M1515.492,1002.176c-12.619,0-21.919-6.808-21.919-23.413c0-8.303,3.321-19.095,9.964-28.562
		c-4.152-1.992-4.816-5.645-4.816-8.634c0.166-8.302,10.627-17.269,23.746-17.269c6.476,0,12.121,2.657,12.121,9.299
		c0,0.664,0,1.328-0.166,1.993c-10.627,9.963-17.103,25.073-17.103,37.193c0,6.476,1.66,8.802,5.312,8.802
		c6.808,0,17.603-18.267,17.603-41.845c0-2.989-0.5-9.298-0.997-12.785c1.494-1.993,4.483-3.488,8.468-3.488
		c10.295,0,13.948,7.473,13.948,15.774C1561.653,974.943,1537.078,1002.176,1515.492,1002.176z"/>
	<path fill="#E0E0E0" d="M42.198,1136.178c0.167-10.295,12.454-20.259,25.571-20.259c8.801,0,12.122,4.484,12.122,10.13
		c0,0.829,0,1.661-0.166,2.49c-10.793,11.291-21.42,33.044-21.42,44.999c0,5.147,1.661,6.975,4.317,6.975
		c1.661,0,5.313-0.332,7.971-2.657c-0.166-1.161-0.166-3.653-0.166-6.145c0-19.592,11.624-40.847,21.254-40.847
		c8.468,0,11.624,5.479,11.624,12.62c0,7.472-3.82,21.254-13.118,33.21c0.332,4.482,2.325,6.641,4.649,6.641
		c9.133,0,14.612-27.563,14.612-41.014c0-3.984-0.664-9.464-0.83-12.951c1.494-2.492,4.649-4.151,8.468-4.151
		c10.627,0,13.782,9.796,13.782,16.604c0,29.556-19.095,61.105-42.508,61.105c-6.476,0-11.291-3.321-14.114-11.124
		c-6.145,5.812-14.114,9.963-21.919,9.963c-11.623,0-19.759-6.145-19.759-21.09c0-13.117,5.147-23.412,13.284-35.201
		C42.696,1142.82,42.198,1139.166,42.198,1136.178z"/>
	<path fill="#E0E0E0" d="M223.685,1167.561c-2.656-10.129-4.649-15.775-6.144-18.432c-8.303,0-11.291-2.656-11.291-8.303
		c0-9.796,10.959-21.918,19.926-21.918c3.154,0,6.974,1.163,9.63,6.975c2.159,4.648,4.483,11.623,6.643,19.427
		c11.125-19.096,14.778-22.25,20.258-22.25c6.31,0,8.966,6.311,8.966,11.458c0,1.493-0.665,4.648-1.495,5.812
		c-7.306,2.491-10.461,4.483-23.745,20.755c0.831,3.654,1.993,8.303,2.823,11.791c1.329,5.479,2.657,6.642,6.144,6.642
		c4.649,0,13.45-7.141,23.912-21.918c3.154,0,6.143,2.656,6.143,5.977c0,8.801-25.903,38.025-40.516,38.025
		c-8.966,0-13.616-3.32-16.107-13.283c-0.498-1.993-0.996-3.82-1.494-5.646c-7.805,12.453-17.269,19.761-23.746,19.761
		c-10.295,0-15.608-5.314-15.608-20.59c0-13.119,8.303-26.237,17.436-26.237c3.818,0,7.306,2.326,8.468,3.986
		c-0.996,2.657-3.652,11.955-3.652,16.936c0,1.993,0.498,3.322,1.494,3.322C213.888,1179.849,219.036,1174.866,223.685,1167.561z"/>
	<path fill="#E0E0E0" d="M352.7,1177.855c-3.32-12.121-4.815-18.265-4.815-27.231c0-16.438,14.28-28.562,25.904-28.562
		c7.307,0,10.129,3.156,10.129,8.469c-8.136,5.812-9.963,11.292-9.963,20.093c0,4.151,1.494,13.283,4.815,25.57
		c3.155-3.154,6.31-7.305,7.473-9.298c-0.167-1.661-0.333-3.653-0.333-5.812c0-7.969,1.329-18.099,3.819-25.073
		c2.325-6.808,4.649-9.465,8.967-9.465c7.306,0,14.114,10.13,14.114,17.104c0,5.979-2.491,13.118-8.634,22.582
		c0.996,2.658,3.321,4.815,5.313,4.815c5.313,0,10.793-6.641,15.11-13.615c2.989,0,6.31,2.491,6.31,5.979
		c0,9.963-14.446,22.914-26.402,22.914c-4.649,0-8.967-1.163-11.79-4.65c-2.159,3.155-6.808,7.473-9.963,10.296
		c0.831,5.479,1.329,12.122,1.329,15.442c0,17.27-10.129,33.044-25.738,33.044c-7.97,0-10.627-4.151-10.627-9.798
		c0-5.147,2.989-13.283,12.62-23.578C359.01,1200.771,357.681,1196.287,352.7,1177.855z"/>
	<path fill="#E0E0E0" d="M530.033,1183.17c2.325,3.319,3.82,3.984,6.31,3.984c2.491,0,5.978-1.661,12.952-5.312
		c2.324,1.161,3.985,4.315,3.985,7.638c0,11.124-15.276,21.419-26.236,21.419c-12.62,0-15.94-3.818-31.217-30.718
		c-3.653-1.328-6.975-5.147-6.975-9.299c0-7.971,5.646-14.114,16.273-16.106c0,0,6.144,4.98,9.464,8.303
		c6.643-2.99,13.783-10.959,13.783-10.959c-7.306-3.986-10.627-6.146-13.783-6.146c-2.324,0-5.645,0.997-8.136,2.491
		c-3.487-0.996-5.479-3.32-5.479-8.8c0-7.64,8.136-17.768,17.103-17.768c6.642,0,9.797,1.329,25.903,10.128
		c2.656-3.983,4.649-6.475,7.14-6.475c3.82,0,8.469,5.313,8.469,10.958c0,6.644-6.31,14.779-16.937,20.092
		c-6.643,7.639-12.952,12.786-19.926,16.274C525.716,1177.026,528.54,1181.01,530.033,1183.17z"/>
</g>
<g>
	<path fill="#E0E0E0" d="M48.944,1466.23c-2.928,3.294-9.699,6.405-12.26,6.405c-5.673,0-8.601-3.294-8.601-10.247
		c20.678-13.176,33.304-25.069,41.539-38.062c0.732-0.185,1.646-0.185,2.196-0.185c6.954,0,10.43,6.405,10.43,11.896
		c0,5.307-1.281,10.063-7.868,27.631c-8.601,23.24-11.346,40.441-11.895,52.152c-1.281,2.196-3.843,3.478-9.149,3.478
		c-10.796,0-18.848-7.137-18.848-14.458C34.488,1498.254,37.599,1489.836,48.944,1466.23z"/>
	<path fill="#E0E0E0" d="M186.724,1496.424c8.783,5.308,12.443,6.954,16.835,6.954c2.745,0,7.503-2.013,14.274-5.856
		c2.561,1.282,4.391,4.758,4.391,8.418c0,10.979-16.652,22.143-27.631,22.143c-9.333,0-18.116-3.844-37.696-18.849
		c0-8.782,2.379-13.541,14.457-20.86c22.324-13.359,29.095-21.228,29.095-29.828c0-5.124-2.745-8.418-6.587-8.418
		c-3.66,0-6.587,4.759-7.869,19.947c-0.732,0.549-2.562,1.098-4.758,1.098c-6.771,0-11.345-4.393-11.345-13.541
		c0-13.542,10.064-26.352,31.474-26.352c18.116,0,25.619,11.347,25.619,24.154C226.982,1468.792,219.663,1479.041,186.724,1496.424z
		"/>
	<path fill="#E0E0E0" d="M334.568,1531.375c4.94,0,8.235-2.562,8.235-6.953c0-6.953-6.405-14.822-26.717-24.155
		c0-9.881,7.32-17.384,17.019-17.384c1.463,0,2.928,0.184,4.391,0.549c10.065-8.234,12.992-17.75,12.992-23.239
		c0-5.123-2.562-8.602-6.404-8.602c-3.66,0-6.588,4.759-7.869,19.946c-0.732,0.55-2.562,1.099-4.758,1.099
		c-6.771,0-11.345-4.393-11.345-13.542c0-13.541,10.98-26.898,32.389-26.898c18.116,0,26.168,11.894,26.168,24.703
		c0,11.345-6.587,21.958-25.07,33.122c12.626,7.868,15.371,16.833,15.371,25.069c0,20.494-15.188,34.951-37.878,34.951
		c-18.3,0-29.462-10.065-29.462-21.228c0-9.882,6.222-15.005,12.443-15.005c1.647,0,3.111,0.366,4.574,1.281
		C320.112,1524.788,327.432,1531.375,334.568,1531.375z"/>
	<path fill="#E0E0E0" d="M534.015,1504.477c0,7.502-6.221,14.273-17.385,16.835c-1.281,11.711-2.195,21.41-2.195,26.168
		c-1.281,3.11-4.026,4.574-9.333,4.574c-10.431,0-20.313-6.587-20.313-14.456c0-3.66,0.916-7.503,4.026-18.116
		c-9.515-2.744-20.129-7.869-29.096-14.822c-0.366-2.013-0.548-4.208-0.548-6.039c0-6.222,2.378-11.346,10.064-17.018
		c25.436-18.665,44.467-40.99,52.519-52.153c0.731-0.183,1.281-0.183,1.83-0.183c6.587,0,11.345,4.758,11.345,11.894
		c0,5.308-0.915,10.798-5.123,22.509c-4.758,13.541-7.686,25.07-10.064,37.147c3.293-0.732,6.222-2.013,9.698-4.209
		C532.002,1497.889,534.015,1500.816,534.015,1504.477z M494.855,1496.241c2.013-8.418,4.758-17.567,8.417-27.631
		c-6.587,7.685-12.077,13.357-21.776,21.592C485.889,1492.766,489.915,1494.595,494.855,1496.241z"/>
	<path fill="#E0E0E0" d="M641.784,1550.041c-18.299,0-29.461-10.065-29.461-21.228c0-9.882,6.221-15.005,12.443-15.005
		c1.647,0,3.111,0.366,4.575,1.281c1.464,9.698,8.783,16.285,15.919,16.285c4.942,0,8.235-2.562,8.235-6.953
		c0-6.953-6.039-12.992-17.018-21.228c-8.235-0.73-10.979-2.562-10.979-5.123c0-0.55,0.183-1.099,0.366-1.83
		c6.038-17.385,10.979-39.343,12.809-51.603c1.281-8.784,2.562-10.249,6.222-10.249c3.477,0,13.358,5.675,21.043,5.675
		c5.856,0,14.639-0.917,20.495-2.197c2.745,1.465,4.574,5.124,4.574,8.418c0,10.247-10.247,19.945-21.958,19.945
		c-4.392,0-8.052-1.099-15.188-4.392c-1.282,5.673-4.026,13.542-6.222,18.482c24.155,9.881,32.206,21.593,32.206,34.585
		C679.846,1535.401,664.475,1550.041,641.784,1550.041z"/>
	<path fill="#E0E0E0" d="M851.845,1423.96c-23.789,0-33.67,11.712-42.637,27.449c2.195-2.562,5.673-4.026,10.613-4.026
		c8.053,0,19.032,6.588,19.032,26.352c0,25.069-19.397,45.197-38.612,45.197c-17.749,0-26.716-11.161-26.716-34.951
		c0-34.035,29.461-75.575,61.668-75.575c12.81,0,18.48,4.393,18.48,10.979C853.673,1421.397,852.76,1423.229,851.845,1423.96z
		 M806.463,1495.509c3.659,0,6.587-3.842,6.587-12.26c0-7.868-2.562-16.651-7.136-23.605c-3.111,7.868-5.307,16.286-5.307,25.436
		C800.607,1493.496,803.352,1495.509,806.463,1495.509z"/>
	<path fill="#E0E0E0" d="M991.454,1440.064c2.745,1.463,4.574,5.123,4.574,8.416c0,11.528-17.749,29.096-30.926,55.812
		c-9.515,19.397-12.077,33.122-12.077,45.2c-1.28,3.11-4.025,4.574-9.332,4.574c-9.882,0-18.848-10.247-18.848-19.946
		c0-9.698,7.868-22.508,46.846-72.647c-7.503-1.28-15.555-2.379-19.764-2.379c-4.392,0-6.953,3.844-9.698,13.359
		c-0.365,0.183-1.646,0.365-2.562,0.365c-4.574,0-9.515-4.392-9.515-12.442c0-13.542,10.431-26.352,24.704-26.352
		C965.651,1434.024,978.095,1440.064,991.454,1440.064z"/>
	<path fill="#E0E0E0" d="M1119.901,1408.955c12.808,0,23.605,9.149,23.605,24.337c0,13.908-11.529,25.253-21.044,25.253
		c-0.549,0-1.465,0-2.379-0.183c12.81,16.104,15.737,24.521,15.737,31.84c0,18.299-14.09,31.841-36.232,31.841
		c-18.665,0-29.645-10.979-29.645-23.972c0-10.979,6.771-20.495,22.142-33.488c-3.843-5.854-6.953-12.809-6.953-21.226
		C1085.133,1427.437,1097.575,1408.955,1119.901,1408.955z M1102.884,1501.548c2.743,0,5.122-1.83,5.122-6.039
		c0-4.757-1.281-8.6-9.515-19.946c-3.111,5.674-4.392,11.712-4.392,14.091C1094.1,1499.169,1099.223,1501.548,1102.884,1501.548z
		 M1119.717,1437.135c0-5.123-2.194-9.515-5.672-9.515c-2.928,0-4.94,3.294-5.124,9.332c0,3.843,1.647,9.149,6.405,15.92
		C1118.62,1447.2,1119.717,1442.626,1119.717,1437.135z"/>
	<path fill="#E0E0E0" d="M1214.312,1528.631c26.899-1.281,33.488-10.797,40.807-24.521c-18.116,0-28.547-10.614-28.547-25.437
		c0-25.068,19.397-45.198,38.612-45.198c15.92,0,25.618,11.712,25.618,34.951c0,47.761-36.415,81.979-60.57,81.979
		c-11.894,0-18.665-5.856-18.665-14.639C1211.567,1533.57,1212.299,1530.644,1214.312,1528.631z M1259.512,1453.971
		c-3.66,0-7.137,6.405-7.137,14.821c0,6.955,2.195,13.176,8.783,19.397c3.11-8.783,3.842-17.201,3.842-21.959
		C1265,1458.729,1262.622,1453.971,1259.512,1453.971z"/>
	<path fill="#E0E0E0" d="M1377.161,1489.653c0-25.07,19.763-53.799,35.866-53.799c2.195,0,4.026,0.548,5.674,2.196
		c2.194-2.745,5.488-4.575,10.43-4.575c9.149,0,18.117,9.699,18.117,29.462c0,35.5-20.861,55.994-41.174,55.994
		C1387.043,1518.932,1377.161,1508.501,1377.161,1489.653z M1409.002,1495.143c7.137,0,13.176-9.881,13.176-21.774
		c0-6.771-2.562-16.286-6.588-20.312c-5.489,4.39-13.907,16.834-13.907,31.291
		C1401.683,1492.766,1405.891,1495.143,1409.002,1495.143z"/>
</g>
</svg>
