<?xml version="1.0" encoding="utf-8"?>
<!-- Generator: Adobe Illustrator 16.0.0, SVG Export Plug-In . SVG Version: 6.00 Build 0)  -->
<!DOCTYPE svg PUBLIC "-//W3C//DTD SVG 1.1//EN" "http://www.w3.org/Graphics/SVG/1.1/DTD/svg11.dtd">
<svg version="1.1" id="Capa_1" xmlns="http://www.w3.org/2000/svg" xmlns:xlink="http://www.w3.org/1999/xlink" x="0px" y="0px"
	 width="1666px" height="1666px" viewBox="0 0 1666 1666" enable-background="new 0 0 1666 1666" xml:space="preserve">
<g>
	<path fill="#A7E369" d="M173.235,503.18h-62.976l-17.135,44.283c-0.445,1.04-1.262,1.558-2.448,1.558H68.869
		c-0.89,0-1.558-0.295-2.003-0.89c-0.594-0.89-0.667-1.631-0.222-2.225l62.085-158.44c0.445-1.036,1.259-1.558,2.448-1.558
		c1.036,0,1.854,0.522,2.448,1.558L196.6,549.021h-5.563L173.235,503.18z M111.817,484.933H96.018l-23.365,59.415h16.244
		L111.817,484.933z M143.416,480.037l-22.475-58.302l-23.143,58.302H143.416z M112.04,498.284h38.498l-5.118-13.352H117.38
		L112.04,498.284z M123.611,414.614l25.368,65.423h15.132l-32.935-84.783L123.611,414.614z M171.232,498.284l-5.118-13.352h-15.354
		l5.341,13.352H171.232z"/>
	<path fill="#A7E369" d="M403.549,466.574c2.521,2.08,4.819,4.753,6.898,8.021c4.597,6.982,6.898,15.229,6.898,24.735
		c0,10.25-2.59,19.089-7.768,26.516c-4.145,6.092-10.289,11.067-18.425,14.93c-7.253,3.418-14.798,5.647-22.639,6.687
		c-7.844,1.04-14.798,1.558-20.862,1.558c-4.294,0-7.81-0.111-10.546-0.334c-2.74-0.222-4.179-0.333-4.326-0.333
		c-1.186-0.146-1.853-0.817-1.999-2.006v-0.445V455.43v-66.181c0-1.335,0.664-2.152,1.999-2.452c0.292,0,2.883-0.257,7.764-0.779
		c4.882-0.518,10.949-0.629,18.202-0.333c8.582,0.445,16.203,1.634,22.861,3.564c4.291,1.189,8.213,2.677,11.766,4.458
		c3.55,1.784,6.731,3.863,9.544,6.241c9.618,8.021,14.426,19.088,14.426,33.202C417.346,447.113,412.746,458.257,403.549,466.574z
		 M347.695,390.581c-2.67,0.149-5.083,0.299-7.232,0.445c-2.152,0.15-3.821,0.299-5.007,0.445v61.417
		c1.335-0.295,3.039-0.518,5.118-0.667c2.076-0.146,4.451-0.223,7.121-0.223V390.581z M335.456,477.812
		c1.186,0.149,2.855,0.261,5.007,0.334c2.148,0.076,4.562,0.111,7.232,0.111v-21.585c-2.67,0.149-5.083,0.299-7.232,0.445
		c-2.152,0.15-3.821,0.299-5.007,0.445V477.812z M335.456,543.68c1.186,0.149,2.816,0.261,4.896,0.334
		c2.076,0.077,4.45,0.111,7.121,0.111l0.223-61.195c-2.67,0-5.045-0.035-7.121-0.111c-2.079-0.073-3.783-0.184-5.118-0.334V543.68z
		 M352.146,478.256c1.036,0,2.038-0.035,3.004-0.111c0.963-0.073,2.038-0.185,3.227-0.334c9.346-0.741,17.023-2.149,23.032-4.228
		c6.008-2.076,10.792-4.374,14.353-6.898c-0.744-0.445-1.446-0.852-2.114-1.224c-0.667-0.369-1.374-0.779-2.114-1.224
		c-3.414-1.631-8.31-3.3-14.687-5.007c-6.38-1.704-14.614-2.559-24.701-2.559V478.256z M405.973,522.839
		c4.465-6.207,6.7-14.041,6.7-23.501c0-8.574-2.01-15.97-6.029-22.193c-0.897-1.335-1.902-2.632-3.018-3.895
		c-1.116-1.258-2.344-2.482-3.682-3.671c-5.062,3.71-11.168,6.676-18.317,8.901c-3.425,1.04-7.034,1.93-10.831,2.67
		c-3.797,0.744-7.854,1.262-12.173,1.558c-1.193,0-2.309,0.039-3.352,0.111c-1.043,0.077-2.083,0.111-3.125,0.111v61.195
		c5.507-0.296,11.54-0.96,18.091-1.996c6.551-1.033,12.806-2.955,18.762-5.765C396.144,533.113,401.8,528.604,405.973,522.839z
		 M399.94,403.709c-3.126-2.67-7.966-5.375-14.517-8.122c-6.551-2.743-15.56-4.412-27.027-5.007h-6.029v61.195
		c10.424,0.149,18.985,1.112,25.685,2.893s11.985,3.561,15.858,5.341c1.043,0.595,2.048,1.189,3.015,1.78
		c0.966,0.595,1.898,1.189,2.792,1.78h0.223c8.487-7.267,12.732-17.357,12.732-30.264
		C412.673,420.698,408.428,410.831,399.94,403.709z"/>
	<path fill="#A7E369" d="M594.324,418.191c-13.543,9.663-21.207,26.161-22.99,49.495c1.784,23.483,9.447,39.982,22.99,49.495
		c5.208,3.866,10.563,6.356,16.071,7.469c5.504,1.116,10.414,1.672,14.732,1.672l0.223-0.445c4.61,0,8.407-0.333,11.383-1.001
		c2.977-0.667,4.538-1.001,4.687-1.001c0.595-0.146,1.266,0,2.01,0.445c0.595,0.595,0.894,1.189,0.894,1.784v19.777
		c0,1.349-0.667,2.173-2.002,2.472c-0.15,0-1.485,0.149-4.006,0.445c-2.524,0.296-5.862,0.445-10.014,0.445
		c-1.484,0-3.042-0.039-4.673-0.111c-1.634-0.077-3.265-0.185-4.896-0.334c-3.116-0.295-6.53-0.779-10.236-1.446
		c-3.71-0.667-7.493-1.631-11.349-2.893c-3.859-1.258-7.789-2.927-11.794-5.007c-4.005-2.076-7.789-4.597-11.349-7.566
		c-16.321-13.797-24.701-34.86-25.146-63.198v-1.113v-0.89c0.445-28.334,8.825-49.401,25.146-63.198
		c6.526-5.487,14.02-9.642,22.476-12.462c6.971-2.521,14.388-4.078,22.253-4.673c6.676-0.591,12.201-0.667,16.578-0.223
		c4.374,0.445,6.71,0.744,7.01,0.89c1.335,0.299,2.002,1.04,2.002,2.225v19.583c0,0.744-0.299,1.412-0.894,2.003
		c-0.598,0.445-1.266,0.521-2.01,0.223c-0.149,0-1.71-0.295-4.687-0.89c-2.976-0.591-6.773-0.89-11.383-0.89h-0.223
		c-4.318,0-9.228,0.56-14.732,1.672C604.887,412.062,599.532,414.478,594.324,418.191z M566.438,418.842
		c-8.605,12.76-12.907,29.005-12.907,48.733c0,10.09,1.092,19.176,3.283,27.26c2.19,8.087,5.396,15.243,9.624,21.474V418.842z
		 M571.111,443.542c4.019-12.757,10.789-22.548,20.316-29.374c9.228-6.526,20.462-9.791,33.709-9.791h0.226
		c3.123,0,5.876,0.149,8.258,0.445c2.382,0.299,4.392,0.595,6.029,0.89v-14.464c-1.787-0.295-4.506-0.518-8.15-0.667
		c-3.647-0.146-7.851-0.073-12.611,0.223c-5.956,0.594-12.768,2.002-20.431,4.228c-7.664,2.225-14.847,6.158-21.543,11.794
		c-2.083,1.78-4.016,3.71-5.803,5.786V443.542z M591.427,520.982c-9.527-6.822-16.297-16.689-20.316-29.596v31.154
		c1.787,2.08,3.72,4.006,5.803,5.786c3.275,2.82,6.773,5.157,10.493,7.01c3.721,1.857,7.441,3.415,11.161,4.673
		c3.721,1.262,7.295,2.19,10.716,2.781c3.421,0.595,6.624,1.04,9.604,1.335c4.76,0.445,8.964,0.594,12.611,0.445
		c3.644-0.146,6.363-0.369,8.15-0.667v-14.464c-1.638,0.299-3.647,0.595-6.029,0.89c-2.382,0.299-5.135,0.445-8.258,0.445h-0.226
		C611.89,530.773,600.655,527.512,591.427,520.982z"/>
	<path fill="#A7E369" d="M850.226,399.499c18.942,13.373,28.417,35.657,28.417,66.853c0,17.381-2.962,32.013-8.88,43.897
		c-4.886,10.25-12.065,18.644-21.536,25.18c-4.145,2.824-8.439,5.125-12.879,6.906c-4.44,1.784-8.808,3.195-13.098,4.235
		c-4.291,1.043-8.508,1.749-12.653,2.117c-4.145,0.369-7.92,0.557-11.325,0.557c-4.291,0-7.694-0.188-10.212-0.557
		c-2.517-0.368-3.922-0.556-4.217-0.556c-1.186-0.295-1.777-1.04-1.777-2.229V389.471c0-1.335,0.591-2.148,1.777-2.448
		c0.295,0,1.996-0.223,5.104-0.667s7.253-0.671,12.434-0.671c3.254,0,6.881,0.188,10.879,0.556c3.995,0.372,8.14,1.078,12.43,2.118
		c4.291,1.043,8.623,2.455,12.99,4.235C842.048,394.377,846.227,396.679,850.226,399.499z M799.646,390.581
		c-5.786,0.149-10.09,0.521-12.907,1.113v10.236h12.907V390.581z M799.646,544.348V406.825h-12.907V543.68
		c2.226,0.445,6.082,0.668,11.572,0.668H799.646z M862.398,513.861c7.712-12.162,11.572-27.962,11.572-47.398
		c0-29.52-8.828-50.514-26.481-62.975c-6.976-4.896-14.318-8.195-22.03-9.903c-7.715-1.704-14.764-2.705-21.14-3.004v11.571
		c2.51,0,5.32,0.149,8.425,0.445c3.102,0.299,6.353,0.89,9.753,1.78c9.458,2.225,17.365,6.53,23.72,12.906
		c11.084,11.126,16.477,27.743,16.182,49.847V513.861z M845.709,531.441c4.746-3.262,8.752-6.898,12.017-10.904V467.13v-0.223
		c0.296-20.917-4.673-36.345-14.909-46.286c-5.641-5.637-12.834-9.569-21.585-11.794c-3.116-0.74-6.085-1.258-8.901-1.558
		c-2.82-0.295-5.49-0.445-8.011-0.445v137.522c6.23-0.296,13.018-1.37,20.361-3.227
		C832.023,539.268,839.033,536.041,845.709,531.441z"/>
	<path fill="#A7E369" d="M1040.195,390.803v67.203h46.286c1.63,0,2.448,0.817,2.448,2.448v18.47c0,1.634-0.818,2.448-2.448,2.448
		h-46.286v62.753h69.651v4.896h-89.48c-1.616,0-2.424-0.813-2.424-2.448V388.355c0-1.631,0.808-2.448,2.424-2.448h89.48v4.896
		H1040.195z M1035.522,390.803h-12.907v67.203h12.907V390.803z M1022.615,476.477h12.907v-13.574h-12.907V476.477z
		 M1035.522,481.372h-12.907v62.753h12.907V481.372z M1040.195,462.902v13.574h44.061v-13.574H1040.195z"/>
	<path fill="#A7E369" d="M1347.729,386.356c0.591,0.602,0.886,1.2,0.886,1.798v18.647c0,1.648-0.816,2.472-2.447,2.472h-68.316
		v67.204h38.721v4.896h-38.721v65.201c0,1.485-0.81,2.225-2.423,2.225h-17.406c-1.616,0-2.423-0.74-2.423-2.229V388.136
		c0-1.485,0.812-2.229,2.44-2.229h21.755h66.381h1.554V386.356z M1260.272,390.803v67.203h12.906v-67.203H1260.272z
		 M1273.179,476.477v-13.574h-12.906v13.574H1273.179z M1273.179,481.372h-12.906v62.753h12.906V481.372z M1343.943,390.803h-64.305
		h-1.787v13.574h66.092V390.803z"/>
	<path fill="#A7E369" d="M1569.807,431.526v-40.055c-1.781-0.295-4.489-0.556-8.123-0.779c-3.637-0.223-7.826-0.185-12.572,0.111
		c-3.859,0.299-7.493,0.744-10.904,1.335c-3.414,0.595-6.752,1.412-10.014,2.448c-7.715,2.375-14.613,6.008-20.695,10.904
		l-0.668,0.668c-2.819,14.391-4.526,27.52-5.117,39.387c-0.595,11.871-0.076,22.476,1.558,31.822
		c2.671,15.577,8.38,27.371,17.134,35.382c4.896,4.451,10.459,7.643,16.69,9.569c4.896,1.634,10.382,2.597,16.467,2.893
		c3.706,0.149,6.972,0.003,9.792-0.438c2.816-0.441,4.969-0.81,6.453-1.106v-21.821h-38.053c-1.635,0-2.447-0.824-2.447-2.472
		v-17.976c0-1.648,0.812-2.472,2.447-2.472h40.277c1.631,0,2.448,0.82,2.448,2.455v63.852c0,1.193-0.668,1.937-2.003,2.232
		c-0.149,0.149-1.484,0.372-4.006,0.667c-2.523,0.299-5.861,0.445-10.014,0.445c-1.484,0-3.004-0.035-4.562-0.111
		c-1.558-0.073-3.227-0.185-5.007-0.334c-7.42-0.598-14.764-2.097-22.03-4.496c-8.605-2.994-16.022-7.187-22.253-12.583
		c-16.766-14.13-25.146-35.806-25.146-65.034c0-29.075,8.38-50.438,25.146-64.088c6.082-5.042,13.498-9.047,22.253-12.017
		c7.267-2.076,14.61-3.338,22.03-3.783c6.676-0.445,12.238-0.369,16.689,0.223c4.451,0.595,6.749,0.89,6.898,0.89
		c1.335,0.299,2.003,1.04,2.003,2.225v42.058H1569.807z M1517.289,516.309c-9.495-8.603-15.727-21.213-18.691-37.83
		c-3.115-17.653-2.303-39.833,2.447-66.536c-11.275,12.906-16.912,31.008-16.912,54.297c0,27.743,7.732,48.215,23.202,61.417
		c6.099,4.844,13.087,8.578,20.974,11.2c6.395,2.19,13.31,3.647,20.75,4.377c4.757,0.299,8.961,0.372,12.604,0.223
		c3.644-0.146,6.356-0.296,8.144-0.445v-14.242c-1.635,0.299-3.672,0.595-6.12,0.89c-2.448,0.299-5.229,0.445-8.345,0.445h-1.78
		c-3.265-0.146-6.38-0.445-9.347-0.89c-2.969-0.445-5.861-1.186-8.678-2.225C1528.416,524.765,1522.331,521.205,1517.289,516.309z
		 M1569.807,496.949V483.82h-35.828v13.129H1569.807z"/>
	<path fill="#A7E369" d="M155.567,652.941c1.614,0,2.424,0.817,2.424,2.448v158.44c0,1.634-0.81,2.448-2.424,2.448h-17.406
		c-1.617,0-2.423-0.814-2.423-2.448v-65.423H89.007v65.423c0,1.634-0.744,2.448-2.225,2.448H68.98c-1.485,0-2.226-0.814-2.226-2.448
		v-158.44c0-1.631,0.741-2.448,2.226-2.448h17.802c1.481,0,2.225,0.814,2.225,2.441v69.658h46.731v-69.658
		c0-1.627,0.807-2.441,2.423-2.441H155.567z M71.428,657.837v67.203h12.907v-67.203H71.428z M71.428,729.936v13.574h12.907v-13.574
		H71.428z M84.334,748.406H71.428v62.976h12.907V748.406z M135.738,743.51v-13.574H89.007v13.574H135.738z M140.411,657.837v85.673
		h12.907v-85.673H140.411z M153.318,811.381v-62.976h-12.907v62.976H153.318z"/>
	<path fill="#A7E369" d="M322.216,653.164c1.631,0,2.448,0.817,2.448,2.448v157.995c0,1.634-0.817,2.448-2.448,2.448h-17.58
		c-1.485,0-2.225-0.813-2.225-2.448V655.611c0-1.63,0.74-2.448,2.225-2.448H322.216z M307.084,657.837v13.574h12.907v-13.574
		H307.084z M319.991,811.159V676.084h-12.907v135.075H319.991z"/>
	<path fill="#A7E369" d="M550.529,740.395c-0.445,21.808-6.231,39.019-17.357,51.626h-0.222c-0.299,0.595-0.89,1.335-1.78,2.226
		c-8.011,8.31-18.324,14.242-30.932,17.802c-9.2,2.524-18.842,3.783-28.929,3.783h-0.222c-1.485,0-2.226-0.813-2.226-2.448v-20.25
		c0-1.631,0.741-2.448,2.226-2.448h21.14c10.382-2.966,18.616-8.602,24.701-16.912c7.712-11.126,11.571-26.554,11.571-46.286
		v-72.099c0-1.631,0.813-2.448,2.448-2.448h17.357c1.481,0,2.225,0.817,2.225,2.448v79.442c0.146,1.78,0.146,3.561,0,5.341V740.395z
		 M498.902,807.598c9.492-2.67,17.43-6.676,23.811-12.017h-49.179v15.8C482.435,811.235,490.891,809.973,498.902,807.598z
		 M528.053,790.686c0-0.295,0.146-0.445,0.445-0.445v-29.596c-1.04,2.97-2.19,5.751-3.449,8.345
		c-1.262,2.597-2.708,5.083-4.339,7.455c-2.079,2.969-4.489,5.64-7.232,8.011c-2.747,2.375-5.675,4.451-8.79,6.231H528.053z
		 M533.171,784.455c4.006-5.636,7.083-12.163,9.235-19.583c2.148-7.416,3.299-15.577,3.449-24.478v-5.563v-1.335v-75.882h-12.684
		V784.455z"/>
	<path fill="#A7E369" d="M787.073,812.716c0.445,0.595,0.369,1.335-0.223,2.225c-0.445,0.744-1.113,1.113-2.003,1.113h-17.134
		c-1.04,0-1.78-0.445-2.226-1.335l-33.824-73.879l-14.687,31.821v40.945c0,1.634-0.744,2.448-2.225,2.448h-17.58
		c-1.485,0-2.226-0.813-2.226-2.448V655.389c0-1.631,0.741-2.448,2.226-2.448h17.58c1.481,0,2.225,0.817,2.225,2.448v42.28
		l14.687,31.821l33.379-72.767c0.445-0.89,1.186-1.335,2.225-1.335h17.135c0.89,0,1.558,0.372,2.002,1.112
		c0.445,0.595,0.519,1.335,0.223,2.226l-34.269,76.327L787.073,812.716z M712.304,811.159v-38.942v-0.89V657.392H699.62v153.767
		H712.304z M728.993,735.276l-12.017-26.258v52.294L728.993,735.276z M734.334,735.276l6.453,14.02l6.454-14.242l-6.454-14.02
		L734.334,735.276z M743.458,715.249l6.231,14.242l31.154-69.429h-12.239L743.458,715.249z M781.288,811.159l-31.599-70.319
		l-6.231,14.196l25.813,56.123H781.288z"/>
	<path fill="#A7E369" d="M1007.145,792.466c1.487,0,2.231,0.751,2.231,2.246v18.87c0,1.648-0.744,2.472-2.226,2.472h-84.338
		c-1.635,0-2.447-0.813-2.447-2.448V655.611c0-1.63,0.807-2.448,2.423-2.448h17.628c1.613,0,2.424,0.817,2.424,2.444v136.858
		H1007.145z M938.167,657.837h-13.129v134.629h13.129V657.837z M938.167,797.362h-13.129v13.797h13.129V797.362z M1004.703,797.362
		H942.84v13.797h61.863V797.362z"/>
	<path fill="#A7E369" d="M1353.626,812.939c0.296,0.744,0.146,1.412-0.445,2.002c-0.444,0.744-1.04,1.113-1.78,1.113h-20.027
		c-1.189,0-1.93-0.518-2.225-1.558l-44.729-125.729l-26.259,72.767l9.124,25.591c0.146,0.595,0.146,1.189,0,1.78l-9.124,25.591
		c-0.595,1.04-1.335,1.558-2.226,1.558c-1.188,0-1.93-0.518-2.225-1.558l-45.174-125.283l-44.728,125.283
		c-0.595,1.04-1.411,1.558-2.448,1.558h-19.805c-0.891,0-1.558-0.369-2.003-1.113c-0.595-0.591-0.667-1.258-0.222-2.002
		l57.412-158.218c0.146-1.036,0.89-1.558,2.225-1.558c0.891,0,1.631,0.521,2.226,1.558l7.343,20.25l7.121-20.25
		c0.445-1.036,1.259-1.558,2.448-1.558c0.89,0,1.63,0.521,2.226,1.558l35.381,99.693l35.828-99.693
		c0.445-1.036,1.186-1.558,2.225-1.558c1.336,0,2.076,0.521,2.226,1.558L1353.626,812.939z M1205.867,682.092l-6.898-19.583
		l-54.074,148.872h14.91L1205.867,682.092z M1262.611,788.016l-44.505-125.506l-7.121,19.583l44.95,124.616L1262.611,788.016z
		 M1347.84,811.381l-54.074-148.872l-6.898,19.138l46.063,129.734H1347.84z"/>
	<path fill="#A7E369" d="M1582.629,652.941c1.613,0,2.423,0.817,2.423,2.448v157.995c0,1.634-0.817,2.448-2.448,2.448h-17.579
		c-1.188,0-1.93-0.518-2.226-1.558l-52.294-145.311v144.42c0,1.634-0.81,2.448-2.423,2.448h-17.406
		c-1.617,0-2.424-0.813-2.424-2.448V655.389c0-1.631,0.814-2.448,2.448-2.448h17.579c1.186,0,1.927,0.522,2.226,1.558v0.222
		l52.294,145.088v-144.42c0-1.631,0.807-2.448,2.424-2.448H1582.629z M1505.832,657.837h-12.906v153.099h12.906V657.837z
		 M1580.379,657.837h-12.906v153.099h12.906V657.837z"/>
	<path fill="#A7E369" d="M178.239,936.888c16.763,13.65,25.146,35.159,25.146,64.533c0,30.413-8.605,52.517-25.813,66.313
		c-6.825,5.49-14.763,9.423-23.81,11.794c-0.89,0.299-1.857,0.557-2.893,0.779c-1.04,0.223-2.079,0.483-3.115,0.778
		c-1.04,0.299-3.192,0.668-6.454,1.113h-0.222c-0.299,0.149-0.744,0.222-1.335,0.222h-0.223c-1.78,0.3-3.821,0.521-6.119,0.668
		c-2.302,0.146-4.785,0.223-7.455,0.223h-2.67c-1.335-0.149-2.67-0.223-4.006-0.223c-1.335,0-2.67-0.146-4.005-0.445
		c-1.189,0.149-2.375,0.223-3.561,0.223c-1.189,0-2.375,0-3.561,0h-2.67c-8.31-0.296-16.022-1.408-23.143-3.338
		c-8.755-2.371-16.543-6.304-23.366-11.794c-17.506-13.647-26.258-35.974-26.258-66.981c0-29.373,8.38-50.882,25.146-64.533
		c3.115-2.67,6.564-5.007,10.348-7.009c3.783-2.003,7.823-3.672,12.127-5.008c6.822-2.225,14.242-3.56,22.253-4.005
		c3.561-0.296,6.86-0.369,9.902-0.223c3.039,0.149,5.598,0.372,7.677,0.668l0.223-0.223c6.822-0.296,12.423-0.185,16.801,0.334
		c4.374,0.521,6.71,0.854,7.01,1.001v0.223c2.076,0.299,4.04,0.706,5.897,1.224c1.853,0.521,3.745,1.078,5.674,1.669
		C164.515,927.542,172.008,931.547,178.239,936.888z M61.857,1064.174c5.786,4.749,13.053,8.383,21.808,10.904
		c1.926,0.595,3.634,0.967,5.118,1.112c0,0.149,0.146,0.223,0.445,0.223c0.146,0,0.369,0.038,0.667,0.111
		c0.295,0.076,0.591,0.111,0.89,0.111c-4.896-2.076-9.569-4.896-14.02-8.456c-17.506-13.943-26.258-36.272-26.258-66.981
		c0-29.374,8.38-50.959,25.146-64.756c5.042-4.151,10.904-7.565,17.58-10.236c-0.149,0.149-0.299,0.223-0.445,0.223v-0.445
		c-4.006,0.744-7.716,1.635-11.126,2.671c-8.161,2.67-15.132,6.38-20.918,11.126c-15.577,13.057-23.365,33.38-23.365,60.973
		C37.379,1030.127,45.536,1051.268,61.857,1064.174z M129.061,1076.19c1.036-0.296,2.038-0.557,3.004-0.778
		c0.963-0.223,1.892-0.48,2.782-0.779c8.307-2.226,15.577-5.859,21.808-10.904c16.168-13.053,24.256-33.897,24.256-62.53
		c0-27.889-7.789-48.212-23.366-60.973c-6.231-5.042-13.206-8.752-20.917-11.126c-5.045-1.631-10.608-2.816-16.69-3.561
		c-2.969,0.299-5.194,0.521-6.676,0.667c-0.89,0.149-1.78,0.3-2.67,0.445v-0.223c-4.005,0.744-7.715,1.635-11.126,2.671
		c-7.716,2.374-14.687,6.084-20.918,11.126c-15.577,12.906-23.365,33.233-23.365,60.973c0,29.374,8.157,50.44,24.478,63.198
		c6.526,5.045,13.797,8.679,21.808,10.904c0.741,0.299,1.558,0.521,2.448,0.667c0.89,0.149,1.78,0.372,2.67,0.668v-0.223
		c0.741,0.149,1.558,0.299,2.448,0.445c0.741,0.149,1.704,0.333,2.893,0.556c1.186,0.223,2.521,0.41,4.005,0.557
		c0.591-0.146,1.335-0.223,2.226-0.223c2.076-0.295,3.856-0.518,5.34-0.667c1.481-0.146,2.67-0.296,3.561-0.445
		c0.295-0.146,0.591-0.223,0.89-0.223c0.295,0,0.591-0.073,0.89-0.223H129.061z M174.456,1063.951
		c16.168-12.607,24.256-33.452,24.256-62.53c0-27.739-7.789-48.066-23.366-60.973c-2.969-2.521-6.196-4.673-9.68-6.453
		c-3.488-1.78-7.232-3.338-11.238-4.674c-1.634-0.444-3.265-0.89-4.896-1.335c-1.634-0.444-3.338-0.813-5.118-1.112
		c6.23,2.819,11.571,6.008,16.022,9.568c16.763,13.797,25.146,35.382,25.146,64.756c0,30.413-8.605,52.443-25.813,66.091
		c-5.34,4.305-11.349,7.643-18.024,10.014c0.295,0,0.629-0.034,1.001-0.111c0.368-0.072,0.702-0.11,1.001-0.11
		c0.741-0.146,1.704-0.369,2.893-0.668h0.223c1.036-0.296,2.038-0.519,3.004-0.668c0.963-0.146,1.892-0.368,2.782-0.667
		C161.104,1072.706,168.372,1068.996,174.456,1063.951z"/>
	<path fill="#A7E369" d="M407.22,934.016c9.346,8.021,14.019,19.089,14.019,33.202c0,14.408-4.75,25.698-14.242,33.869
		c-2.67,2.528-5.786,4.719-9.346,6.575s-7.493,3.456-11.794,4.791c-3.415,1.189-7.01,2.118-10.792,2.785
		c-3.783,0.668-7.754,1.151-11.905,1.446c-1.189,0.149-2.264,0.223-3.227,0.223c-0.967,0-1.968,0-3.004,0v63.73
		c0,0.598-0.223,1.116-0.667,1.562c-0.595,0.594-1.189,0.89-1.78,0.89h-16.912c-1.485,0-2.225-0.817-2.225-2.451v-157.32
		c0-1.336,0.667-2.152,2.002-2.452c0.296,0,2.893-0.257,7.789-0.778c4.896-0.519,10.904-0.63,18.025-0.334
		c8.456,0.445,16.022,1.562,22.698,3.342C394.609,925.622,401.73,929.263,407.22,934.016z M362.937,924.648
		c-5.195-0.295-9.83-0.295-13.908,0c-4.082,0.299-7.086,0.595-9.013,0.891v10.459h62.085c-3.415-2.473-8.233-4.837-14.464-7.094
		C381.407,926.651,373.173,925.232,362.937,924.648z M352.033,995.412v-54.519h-12.017v54.519H352.033z M352.033,1000.086h-12.017
		v11.794c1.186,0.149,2.816,0.261,4.896,0.334c2.076,0.076,4.451,0.11,7.121,0.11V1000.086z M352.033,1078.193v-60.973
		c-2.67,0-5.045-0.035-7.121-0.111c-2.079-0.073-3.71-0.185-4.896-0.334v61.418H352.033z M403.882,997.638
		c8.456-7.267,12.684-17.357,12.684-30.264c0-10.977-3.192-19.878-9.569-26.703v0.223h-50.292l0.223,71.431
		c0.89,0,1.815-0.034,2.782-0.11c0.963-0.073,1.964-0.111,3.004-0.111c11.272-0.891,20.174-2.816,26.704-5.786
		C395.944,1003.351,400.767,1000.458,403.882,997.638z"/>
	<path fill="#A7E369" d="M679.148,936.442c16.763,13.797,25.146,35.382,25.146,64.756c0,21.217-4.228,38.352-12.684,51.404
		c-6.826,10.681-16.099,18.546-27.816,23.588l5.563,14.687c0.295,0.891,0.223,1.631-0.223,2.226
		c-0.445,0.74-1.113,1.112-2.003,1.112h-18.024c-1.04,0-1.78-0.521-2.226-1.558l-4.228-10.681c-1.93,0.299-4.228,0.556-6.898,0.778
		c-2.67,0.223-5.64,0.334-8.901,0.334c-3.859,0-7.865-0.223-12.017-0.668c-7.865-1.036-15.021-2.854-21.474-5.451
		c-6.453-2.594-12.277-6.043-17.468-10.349c-16.321-14.092-24.478-36.049-24.478-65.868c0-29.373,8.379-50.882,25.146-64.533
		c6.231-5.34,13.72-9.346,22.476-12.017c1.78-0.591,3.633-1.146,5.563-1.669c1.926-0.518,3.929-0.925,6.008-1.224
		c0.295-0.146,0.667-0.223,1.113-0.223c0.295,0,0.702,0,1.224,0c0.518,0,1.147-0.072,1.892-0.223
		c1.186-0.295,2.26-0.444,3.227-0.444c0.963,0,2.038-0.073,3.227-0.223c6.676-0.445,12.239-0.369,16.689,0.223
		c4.451,0.595,6.822,0.89,7.121,0.89v0.223c4.301,0.744,8.157,1.707,11.572,2.893C665.275,927.097,672.768,931.102,679.148,936.442z
		 M662.236,1071.74c9.346-4.302,16.912-10.237,22.698-17.803v-56.3c0-19.138-4.972-33.525-14.909-43.17
		c-5.195-5.341-12.093-9.197-20.695-11.572c-3.115-0.74-6.342-1.335-9.68-1.779c-3.338-0.445-6.787-0.592-10.348-0.445h-50.736
		c-14.986,12.761-22.476,32.788-22.476,60.082c0,28.484,7.639,49.179,22.92,62.086c9.346,8.16,21.509,13.056,36.495,14.687
		c5.191,0.744,9.976,1.002,14.353,0.779c4.375-0.223,8.046-0.557,11.015-1.002l-23.588-60.527c-0.299-0.741-0.222-1.481,0.223-2.226
		c0.445-0.74,1.113-1.112,2.003-1.112l19.137-0.223c0.89,0,1.631,0.521,2.225,1.558L662.236,1071.74z M689.607,1046.816
		c6.676-12.017,10.014-27.222,10.014-45.618c0-27.739-7.789-48.139-23.365-61.195c-5.786-4.746-12.761-8.456-20.918-11.126
		c-6.676-2.076-13.724-3.338-21.14-3.783c-4.45-0.296-8.421-0.368-11.905-0.223c-3.487,0.149-6.196,0.372-8.122,0.668
		c-4.6,0.595-9.2,1.634-13.797,3.115c-5.64,1.78-10.831,4.155-15.577,7.121h44.505c7.566,0,14.687,0.89,21.363,2.67
		c9.047,2.524,16.613,6.676,22.698,12.462c10.828,10.831,16.245,26.407,16.245,46.73V1046.816z M663.793,1089.319l-26.926-71.209
		h-14.019l27.816,71.209H663.793z"/>
	<path fill="#A7E369" d="M935.943,1079.751c0.295,0.89,0.223,1.634-0.223,2.226c-0.596,0.594-1.263,0.89-2.004,0.89h-17.802
		c-1.188,0-1.93-0.518-2.226-1.558l-26.48-67.871c-5.785,1.78-12.315,2.893-19.582,3.338c-5.195,0.445-9.791,0.633-13.797,0.557
		c-4.006-0.073-7.048-0.258-9.124-0.557v66.091h-4.673V923.759c0-1.335,0.668-2.149,2.003-2.448c0.296,0,2.854-0.257,7.677-0.778
		c4.819-0.519,10.793-0.63,17.914-0.334c8.602,0.445,16.095,1.634,22.475,3.561c8.603,2.524,15.65,6.085,21.141,10.681
		c9.346,8.012,14.02,19.064,14.02,33.157c0,14.096-4.75,25.368-14.242,33.824c-0.891,0.89-2.002,1.78-3.338,2.67L935.943,1079.751z
		 M844.706,1012.103c1.335,0.149,3.228,0.261,5.675,0.333c2.447,0.077,5.229,0.111,8.345,0.111l-1.558-76.994l-0.223-0.223h0.223
		l-0.223-10.459c-2.82,0.149-5.268,0.299-7.344,0.445c-2.079,0.149-3.709,0.299-4.896,0.445V1012.103z M908.078,938
		c-3.129-2.67-7.893-5.375-14.294-8.122c-6.405-2.743-15.265-4.339-26.581-4.784c-1.044-0.146-2.049-0.223-3.016-0.223
		c-0.97,0-1.901,0-2.791,0l0.222,9.791l28.369,72.989c4.318-1.48,7.928-3.077,10.831-4.784c2.902-1.704,5.323-3.373,7.26-5.007
		c8.338-7.416,12.51-17.503,12.51-30.264C920.588,954.989,916.416,945.121,908.078,938z M867.182,1012.103
		c3.411-0.296,6.638-0.703,9.68-1.225c3.039-0.518,5.897-1.147,8.567-1.892l-23.588-60.527l1.335,63.865
		c0.592,0,1.225-0.034,1.892-0.11C865.735,1012.141,866.438,1012.103,867.182,1012.103z M930.379,1078.193l-26.703-71.432
		c-3.414,1.93-7.343,3.71-11.793,5.341l25.59,66.091H930.379z"/>
	<path fill="#A7E369" d="M1136.218,1000.976c8.901,7.865,13.352,18.692,13.352,32.489c0,14.096-4.673,25.368-14.019,33.824
		c-2.82,2.375-5.975,4.527-9.458,6.454c-3.487,1.93-7.382,3.56-11.683,4.896c-6.676,1.93-14.169,3.265-22.476,4.005
		c-2.079,0.299-4.005,0.445-5.786,0.445c-1.779,0-3.486,0-5.117,0c-4.305,0-7.754-0.111-10.348-0.334
		c-2.598-0.223-4.044-0.334-4.34-0.334c-1.335-0.295-2.002-1.112-2.002-2.447v-16.69c0-1.48,0.812-2.225,2.447-2.225h68.316
		c6.525-7.281,9.791-16.491,9.791-27.639c0-6.092-1.039-11.662-3.115-16.714c-1.189,0.149-2.709,0.223-4.562,0.223
		c-1.856,0-3.895,0-6.119,0c-2.524,0-5.195-0.073-8.012-0.223c-2.819-0.146-5.785-0.369-8.9-0.668
		c-16.766-2.229-29.45-7.354-38.053-15.379c-9.051-8.171-13.574-19.241-13.574-33.209c0-14.263,4.674-25.409,14.02-33.435
		c5.637-4.753,12.684-8.317,21.141-10.695c3.41-0.89,6.971-1.634,10.682-2.229c3.706-0.595,7.639-0.967,11.793-1.116
		c7.121-0.296,13.092-0.181,17.914,0.341c4.818,0.521,7.378,0.782,7.678,0.782c1.334,0.299,2.002,1.05,2.002,2.246v18.641
		c0,1.647-0.816,2.469-2.447,2.469h-71.654c-4.305,6.38-6.453,14.096-6.453,23.143c0,7.271,1.335,13.65,4.006,19.138
		c3.115-0.296,7.154-0.557,12.127-0.779c4.969-0.223,10.348,0.038,16.133,0.779
		C1115.668,988.515,1127.908,993.264,1136.218,1000.976z M1091.712,1078.193c2.816-0.146,5.858-0.479,9.124-1.002
		c3.262-0.518,6.564-1.258,9.902-2.225c3.338-0.963,6.638-2.188,9.902-3.672c3.262-1.481,6.304-3.262,9.124-5.341h-60.751v12.017
		c1.927,0.299,4.896,0.521,8.902,0.668C1081.921,1078.788,1086.518,1078.639,1091.712,1078.193z M1114.855,1011.435
		c5.041,0.595,9.715,0.929,14.02,1.001c4.301,0.077,7.861-0.034,10.681-0.333c-1.78-2.966-3.933-5.487-6.453-7.566
		c-4.155-3.706-8.939-6.564-14.353-8.567c-5.418-2.003-10.904-3.372-16.468-4.116c-5.563-0.741-10.869-1.113-15.911-1.113
		c-5.045,0-9.199,0.149-12.461,0.445c1.48,2.226,3.262,4.228,5.34,6.008C1087.408,1004.759,1099.277,1009.509,1114.855,1011.435z
		 M1079.695,937.777c-0.89,0.891-1.558,1.485-2.002,1.78h65.423v-13.796c-1.93-0.296-4.935-0.592-9.013-0.891
		c-4.082-0.296-8.644-0.296-13.686,0c-3.115,0.149-6.453,0.445-10.014,0.891c-3.561,0.444-7.159,1.188-10.793,2.225
		c-3.637,1.04-7.158,2.337-10.569,3.895C1085.627,933.438,1082.512,935.406,1079.695,937.777z"/>
	<path fill="#A7E369" d="M1380.107,919.753c1.631,0,2.447,0.824,2.447,2.473v18.644c0,1.647-0.816,2.472-2.447,2.472h-38.275v137.3
		c0,1.635-0.816,2.448-2.447,2.448h-17.58c-1.484,0-2.225-0.813-2.225-2.448v-137.3h-38.498c-1.484,0-2.225-0.824-2.225-2.472
		v-18.644c0-1.648,0.74-2.473,2.225-2.473h40.723c1.631,0,2.448,0.827,2.448,2.476v16.217h12.907v-16.217
		c0-1.648,0.74-2.476,2.225-2.476H1380.107z M1319.58,924.648h-36.05v13.797h36.05V924.648z M1337.16,943.341h-12.907v135.075
		h12.907V943.341z M1377.883,924.648h-36.051v13.797h36.051V924.648z"/>
	<path fill="#A7E369" d="M1612.648,998.751c0.146,0.594,0.257,2.931,0.334,7.009c0.072,4.082-0.188,9.089-0.779,15.021
		c-1.484,16.766-5.341,30.413-11.572,40.944c-8.455,14.242-20.549,21.363-36.271,21.363c-15.577,0-27.816-7.044-36.717-21.141
		c-3.115-5.191-5.752-11.199-7.9-18.024c-2.152-6.822-3.748-14.465-4.784-22.921c-0.743-6.23-1.151-11.384-1.224-15.465
		c-0.076-4.079-0.111-6.343-0.111-6.787v-76.327c0-1.631,0.807-2.448,2.424-2.448h18.073c1.613,0,2.423,0.817,2.423,2.448v78.997
		v0.223c0.146,7.865,0.596,14.464,1.339,19.805c0.744,5.341,2.045,10.869,3.905,16.578c1.859,5.713,4.575,10.425,8.15,14.131
		c3.72,4.006,8.406,6.008,14.064,6.008h33.034c3.275-5.785,5.692-12.127,7.257-19.025c1.561-6.898,2.601-13.275,3.122-19.138
		c0.521-5.858,0.744-10.793,0.671-14.798c-0.076-4.006-0.111-6.082-0.111-6.231v-78.997h4.674V998.751z M1518.296,998.973
		c0,0.149,0.035,2.226,0.111,6.231c0.073,4.005,0.479,8.939,1.224,14.798c0.741,5.862,1.965,12.239,3.672,19.138
		c1.704,6.898,4.264,13.24,7.678,19.025h18.691c-0.594-0.295-1.111-0.702-1.557-1.224c-0.445-0.518-0.967-1.001-1.559-1.446
		c-6.529-6.972-10.903-18.098-13.129-33.379c-0.89-5.487-1.373-10.236-1.446-14.242c-0.076-4.006-0.111-6.154-0.111-6.453v-76.55
		h-13.574V998.973z M1583.924,1072.929c3.715-2.336,7.132-5.626,10.254-9.867h-59.971c7.58,10.09,17.611,15.132,30.097,15.132
		C1571.734,1078.193,1578.274,1076.44,1583.924,1072.929z"/>
	<path fill="#A7E369" d="M495.451,1187.009c0.89,0,1.558,0.372,2.002,1.113c0.445,0.744,0.518,1.484,0.223,2.225l-56.967,158.218
		c-0.299,1.039-1.04,1.558-2.225,1.558c-1.04,0-1.78-0.519-2.225-1.558l-57.635-161.556h4.896l45.618,127.286l44.283-125.729
		c0.445-1.036,1.186-1.558,2.225-1.558H495.451z M492.113,1191.904h-14.687l-45.841,129.512l6.898,19.138L492.113,1191.904z"/>
	<path fill="#A7E369" d="M834.361,1187.009c0.89,0,1.557,0.372,2.002,1.113c0.445,0.594,0.518,1.335,0.223,2.225l-56.967,158.218
		c-0.594,1.039-1.335,1.558-2.225,1.558c-1.189,0-1.93-0.519-2.225-1.558l-7.344-20.473l-7.121,20.473
		c-0.595,1.039-1.412,1.558-2.448,1.558c-1.04,0-1.78-0.519-2.226-1.558l-33.157-94.13l-33.602,94.13
		c-0.595,1.039-1.335,1.558-2.225,1.558c-1.189,0-1.93-0.519-2.226-1.558l-56.967-158.218c-0.299-0.74-0.222-1.48,0.223-2.225
		c0.445-0.741,1.113-1.113,2.003-1.113h19.805c0.89,0,1.63,0.521,2.225,1.558l44.283,125.729l45.841-127.286h4.673l-12.239,34.27
		l33.157,92.794l44.506-125.506c0.295-1.036,1.036-1.558,2.225-1.558H834.361z M693.946,1321.416l-45.841-129.512h-14.687
		l53.629,148.649L693.946,1321.416z M765.377,1320.971l-33.157-92.571l-6.676,18.915l32.934,93.239L765.377,1320.971z
		 M831.023,1191.904h-14.91l-45.841,129.066l7.121,19.583L831.023,1191.904z"/>
	<path fill="#A7E369" d="M1055.106,1187.231c0.89,0,1.558,0.372,2.003,1.112c0.445,0.744,0.445,1.485,0,2.226l-34.938,78.33v78.774
		c0,1.635-0.744,2.448-2.225,2.448h-17.58c-1.484,0-2.225-0.813-2.225-2.448v-77.439c-0.15,0-0.223-0.034-0.223-0.111
		c0-0.073-0.077-0.111-0.223-0.111c-0.15-0.295-0.223-0.591-0.223-0.89l-34.938-78.775c-0.445-0.74-0.445-1.48,0-2.225
		c0.445-0.741,1.113-1.113,2.003-1.113h17.357c1.036,0,1.704,0.521,2.003,1.558l24.923,54.297l24.7-54.297
		c0.445-0.89,1.186-1.335,2.226-1.335H1055.106z M1001.699,1262.669l6.453-14.02l-25.812-56.745h-12.017L1001.699,1262.669z
		 M1017.499,1345.449v-76.327l-6.676-14.688l-6.009,13.13v77.885H1017.499z M1051.323,1191.904h-12.017l-25.812,56.745l6.23,14.02
		L1051.323,1191.904z"/>
	<path fill="#A7E369" d="M1267.396,1188.344c0.445,0.445,0.519,1.113,0.223,2.003l-55.187,154.88h52.962v4.673h-73.657
		c-0.744,0-1.411-0.296-2.003-0.89c-0.445-0.592-0.521-1.336-0.223-2.226l6.453-18.47l42.059-117.718h-46.286
		c-1.634,0-2.448-0.813-2.448-2.447v-18.47c0-1.631,0.814-2.448,2.448-2.448h73.657
		C1266.284,1187.231,1266.951,1187.604,1267.396,1188.344z M1193.963,1205.701h45.84l4.896-13.574h-50.736V1205.701z
		 M1207.314,1345.227l4.896-13.797h-12.462l-4.673,13.797H1207.314z M1255.381,1210.597h-12.24l-41.612,115.938h12.462
		L1255.381,1210.597z M1262.057,1192.127h-12.24l-4.895,13.574h12.238L1262.057,1192.127z"/>
</g>
<g>
	<path fill="#325913" d="M894.502,33.896c2.414,0,3.626,1.223,3.626,3.663v237.096c0,2.445-1.212,3.663-3.626,3.663h-26.047
		c-2.42,0-3.627-1.218-3.627-3.663v-97.902h-69.93v97.902c0,2.445-1.114,3.663-3.33,3.663h-26.641c-2.222,0-3.33-1.218-3.33-3.663
		V37.56c0-2.44,1.108-3.663,3.33-3.663h26.641c2.216,0,3.33,1.217,3.33,3.652v104.24h69.93V37.549c0-2.435,1.207-3.652,3.627-3.652
		H894.502z M768.591,41.222v100.566h19.314V41.222H768.591z M768.591,149.114v20.313h19.314v-20.313H768.591z M787.905,176.753
		h-19.314v94.239h19.314V176.753z M864.828,169.427v-20.313h-69.93v20.313H864.828z M871.821,41.222v128.205h19.313V41.222H871.821z
		 M891.135,270.992v-94.239h-19.313v94.239H891.135z"/>
</g>
<g>
	<path fill="#5B8C44" d="M63.557,1480.879c1.274,0,1.914,0.643,1.914,1.925v124.605c0,1.285-0.629,1.925-1.887,1.925H50.032
		c-1.258,0-1.887-0.64-1.887-1.925v-108.68H36.973c-1.302,0-1.953-0.64-1.953-1.925v-14.001c0-1.282,0.637-1.925,1.914-1.925h12.877
		H63.557z M48.146,1494.879v-10.15h-9.1v10.15H48.146z M51.821,1484.729v10.15h9.975v-10.15H51.821z M61.796,1605.483v-106.754
		h-9.975v106.754H61.796z"/>
	<path fill="#5B8C44" d="M233.321,1592.708c1.269,0,1.906,0.648,1.906,1.944v12.737c0,1.296-0.637,1.944-1.906,1.944h-51.296h-10.5
		c-1.05-0.232-1.575-0.875-1.575-1.925c0-1.283,0.64-1.926,1.925-1.926h9.976c0.7,0,1.4-0.027,2.1-0.087
		c0.7-0.061,1.458-0.147,2.275-0.269c3.615-0.59,7.933-1.771,12.951-3.546c5.015-1.775,9.74-4.674,14.176-8.696
		c0.583-0.467,1.137-1.053,1.663-1.753c0.525-0.699,1.077-1.34,1.663-1.925c0.582-0.7,1.225-1.399,1.925-2.1v-45.152
		c0.23-15.283-3.385-26.716-10.851-34.301c-2.685-2.683-5.63-4.753-8.838-6.213c-3.21-1.458-6.388-2.538-9.538-3.238
		c-3.15-0.699-6.213-1.107-9.188-1.225c-2.975-0.115-5.513-0.175-7.613-0.175h-1.05c-0.468,0-0.875-0.175-1.225-0.525
		c-0.35-0.35-0.525-0.814-0.525-1.4l0.175-11.55c0-1.05,0.525-1.69,1.575-1.925c0.232,0,1.75-0.146,4.55-0.438
		c2.8-0.29,6.358-0.203,10.676,0.262c3.965,0.468,8.575,1.518,13.825,3.15c5.25,1.636,10.326,4.493,15.226,8.575
		c12.601,10.968,18.901,27.944,18.901,50.928c0,21.235-5.25,37.511-15.75,48.826H233.321z M210.376,1505.205
		c8.17,8.285,12.138,20.593,11.9,36.926v39.727c5.833-9.683,8.75-22.283,8.75-37.801c0-21.934-5.951-37.917-17.851-47.952
		c-3.618-3.15-7.468-5.513-11.55-7.088c-4.085-1.575-7.963-2.652-11.638-3.237c-3.675-0.583-6.973-0.846-9.888-0.788
		c-2.917,0.061-5.075,0.147-6.475,0.263l-0.175,8.051c2.1,0,4.608,0.087,7.525,0.262c2.915,0.176,5.95,0.556,9.101,1.138
		c4.2,0.936,7.962,2.275,11.288,4.025S207.69,1502.64,210.376,1505.205z M231.727,1596.559h-16.801
		c-1.75,1.518-3.91,3.062-6.475,4.638c-2.568,1.575-5.6,3.005-9.1,4.287h32.376V1596.559z"/>
	<path fill="#5B8C44" d="M403.933,1518.207c0,10.867-3.561,19.571-10.675,26.112c7.115,6.426,10.675,15.072,10.675,25.937
		c0,10.981-3.735,19.86-11.201,26.636c-2.217,1.871-4.698,3.563-7.438,5.084c-2.743,1.521-5.805,2.803-9.188,3.853
		c-5.485,1.639-11.436,2.691-17.851,3.156c-1.635,0.234-3.18,0.35-4.638,0.35c-1.46,0-2.83,0-4.113,0
		c-3.385,0-6.098-0.088-8.138-0.263c-2.043-0.175-3.18-0.263-3.413-0.263l0.525-3.85c0,0.117,1.895,0.322,5.688,0.612
		c3.79,0.293,8.371,0.205,13.738-0.263c6.65-0.582,12.22-1.603,16.713-3.062c4.49-1.457,8.138-3.062,10.938-4.812v-47.602
		c-1.4,0.817-2.887,1.547-4.462,2.188c-1.575,0.643-3.238,1.255-4.988,1.837c-5.485,1.636-11.436,2.686-17.851,3.15
		c-5.6,0.468-10.326,0.555-14.176,0.263c-3.85-0.29-5.893-0.438-6.125-0.438c-1.05-0.232-1.575-0.875-1.575-1.925v-19.076
		c0-1.05,0.525-1.689,1.575-1.925c0.232,0,2.245-0.203,6.038-0.613c3.79-0.407,8.488-0.494,14.088-0.262
		c6.533,0.35,12.541,1.225,18.026,2.625c5.6,1.635,10.326,3.793,14.176,6.475c6.65-5.715,9.975-13.65,9.975-23.801
		c0-7.582-2.042-14.058-6.125-19.426H338.13c-1.167,0-1.75-0.588-1.75-1.767v-13.432c0-1.061,0.525-1.709,1.575-1.944
		c0.232,0,2.245-0.205,6.038-0.615c3.79-0.41,8.488-0.5,14.088-0.268c6.533,0.35,12.541,1.228,18.026,2.628
		c6.883,1.988,12.425,4.851,16.625,8.589C400.198,1498.521,403.933,1507.226,403.933,1518.207z M390.632,1495.055
		c-0.117,0-0.175-0.006-0.175-0.02c0-0.011-0.06-0.02-0.175-0.02c-3.735-3.265-8.138-5.627-13.213-7.087
		c-5.075-1.458-10.062-2.42-14.963-2.888c-4.9-0.465-9.363-0.583-13.388-0.351c-4.025,0.235-6.913,0.468-8.663,0.7v9.664H390.632z
		 M357.906,1553.332c7.35-0.583,13.358-1.721,18.026-3.413c4.665-1.689,8.4-3.47,11.2-5.338c-3.968-2.564-8.343-4.402-13.125-5.513
		c-4.785-1.107-9.423-1.837-13.913-2.188c-4.493-0.35-8.548-0.407-12.163-0.175c-3.618,0.235-6.243,0.468-7.875,0.7v15.926
		c1.515,0.117,3.877,0.235,7.087,0.35C350.351,1553.8,353.938,1553.682,357.906,1553.332z M400.258,1570.308
		c0-10.033-3.325-17.791-9.975-23.276v-0.175c-0.235,0.117-0.41,0.235-0.525,0.35c-0.117,0.118-0.292,0.235-0.525,0.351v47.252
		c0.232-0.115,0.408-0.232,0.525-0.351c0.115-0.114,0.29-0.232,0.525-0.35C396.933,1588.394,400.258,1580.458,400.258,1570.308z"/>
	<path fill="#5B8C44" d="M573.34,1481.054h3.675v126.355c0,1.285-0.637,1.925-1.906,1.925h-13.861c-1.157,0-1.734-0.64-1.734-1.925
		v-51.277h-52.502c-1.168,0-1.75-0.64-1.75-1.925v-71.229c0-1.164,0.582-1.75,1.75-1.75h14c1.165,0,1.75,0.586,1.75,1.75v54.777
		h50.577V1481.054z M519.087,1484.904h-10.15v67.377h10.15V1484.904z M559.514,1552.281v-10.675h-36.751v10.675H559.514z
		 M573.34,1541.606h-10.15v10.675h10.15V1541.606z M573.34,1605.659v-49.527h-10.15v49.527H573.34z"/>
	<path fill="#5B8C44" d="M753.595,1481.579c0.465,0.35,0.7,0.817,0.7,1.399v14.526c0,1.285-0.643,1.925-1.925,1.925h-53.552v32.901
		c7.673-0.115,14.651,0.41,20.933,1.575c9.882,2.1,17.5,5.775,22.852,11.025c6.511,6.3,9.768,14.643,9.768,25.025
		c0,8.051-1.925,14.937-5.775,20.651c-3.385,4.9-8.11,8.925-14.176,12.075c-5.25,2.567-10.763,4.288-16.538,5.163
		c-5.775,0.875-10.938,1.372-15.488,1.487v0.175h-17.326v-3.85h15.4c2.215,0,4.665-0.088,7.35-0.263
		c2.683-0.175,5.425-0.495,8.226-0.963c2.8-0.465,5.627-1.138,8.488-2.013c2.857-0.875,5.57-1.952,8.138-3.237
		c5.601-2.565,9.916-6.125,12.951-10.676c3.382-5.132,5.075-11.315,5.075-18.551c0-6.064-1.225-11.375-3.675-15.925h-61.952
		c-1.286,0-1.925-0.583-1.925-1.751v-69.303c0-1.282,0.64-1.925,1.925-1.925h17.15h52.152h1.225V1481.579z M684.817,1484.904v47.252
		h10.325v-47.252H684.817z M684.817,1550.182h10.325v-14.176h-10.325V1550.182z M750.445,1484.904h-50.227h-1.4v10.675h51.627
		V1484.904z M719.047,1537.734c-5.928-1.384-12.671-1.961-20.229-1.729v14.176h43.601c-0.582-0.922-1.397-1.786-2.442-2.593
		C735.093,1542.749,728.115,1539.463,719.047,1537.734z"/>
	<path fill="#5B8C44" d="M927.201,1545.281c7,6.301,10.5,14.876,10.5,25.727c0,3.735-0.38,7.061-1.138,9.975
		c-0.76,2.918-1.75,5.573-2.975,7.963c-1.226,2.393-2.599,4.463-4.113,6.213c-1.518,1.75-3.035,3.211-4.55,4.375
		c-3.386,2.918-7.293,5.193-11.726,6.825c-4.436,1.636-8.868,2.45-13.301,2.45c-4.2,0-8.985-1.282-14.351-3.85
		c-2.686-1.282-5.28-2.915-7.788-4.9c-2.51-1.982-4.812-4.2-6.912-6.65c-1.868-2.1-3.793-4.638-5.775-7.612
		c-1.985-2.976-3.763-6.445-5.338-10.413c-1.575-3.965-2.86-8.428-3.85-13.389c-0.993-4.957-1.488-10.527-1.488-16.713
		c0-23.216,6.577-40.251,19.729-51.102c4.89-4.083,10.766-7.29,17.635-9.626c2.677-0.814,5.499-1.487,8.469-2.013
		c2.967-0.524,6.021-0.902,9.166-1.137c5.239-0.351,9.604-0.29,13.096,0.175c3.491,0.468,5.354,0.7,5.586,0.7
		c1.048,0.234,1.572,0.817,1.572,1.75v15.575c0,0.585-0.292,1.05-0.872,1.4c-0.465,0.468-0.989,0.585-1.569,0.35
		c-1.28-0.232-2.677-0.465-4.189-0.7c-1.279-0.232-2.85-0.438-4.709-0.612c-1.862-0.175-3.781-0.263-5.759-0.263
		c-3.839,0-8.2,0.498-13.084,1.488c-4.887,0.992-9.423,3.122-13.609,6.388c-7.329,5.718-11.808,14.585-13.435,26.601h1.925
		c2.332-0.232,5.601-0.465,9.801-0.7c4.2-0.232,8.808-0.058,13.825,0.525C910.457,1535.481,920.2,1539.217,927.201,1545.281z
		 M922.65,1596.397c0.232-0.232,0.525-0.495,0.875-0.785c0.351-0.29,0.7-0.612,1.05-0.963c-1.285,0.235-2.83,0.41-4.638,0.525
		c-1.81,0.117-3.705,0.175-5.688,0.175c-11.668-0.232-21.351-3.262-29.051-9.087c-11.086-8.504-16.743-22.715-16.976-42.633
		c0-17.938,5.133-30.925,15.4-38.964c3.615-2.795,7.875-4.949,12.775-6.464c4.9-1.516,10.325-2.272,16.275-2.272
		c2.915,0,5.54,0.175,7.876,0.524c2.332,0.351,4.14,0.643,5.425,0.875v-11.725c-0.936-0.115-2.362-0.263-4.288-0.438
		c-1.925-0.175-4.172-0.262-6.737-0.262c-0.817,0-1.692,0.029-2.625,0.087c-0.936,0.061-1.868,0.088-2.8,0.088
		c-3.036,0.235-5.894,0.585-8.576,1.05c-2.685,0.465-5.31,1.165-7.875,2.095c-6.3,1.865-11.843,4.78-16.626,8.739
		c-12.25,10.137-18.375,26.213-18.375,48.231c0,5.824,0.465,11.126,1.399,15.903c0.933,4.777,2.158,9.029,3.676,12.757
		c1.515,3.729,3.177,6.991,4.987,9.786c1.808,2.795,3.588,5.185,5.338,7.164c1.982,2.33,4.17,4.37,6.562,6.117
		c2.39,1.748,4.812,3.263,7.263,4.542c4.433,2.33,8.633,3.495,12.601,3.495c4.083,0,8.108-0.755,12.075-2.27
		C915.94,1601.174,919.5,1599.077,922.65,1596.397z M928.251,1590.434c1.632-2.333,3.002-5.103,4.112-8.313
		c1.107-3.207,1.663-6.912,1.663-11.112c0-9.684-3.093-17.326-9.275-22.927c-3.735-3.265-8.051-5.657-12.951-7.175
		c-4.9-1.515-9.772-2.538-14.613-3.062c-4.843-0.525-9.305-0.7-13.388-0.525c-4.085,0.175-7.118,0.38-9.101,0.612h-0.175
		l-2.45,0.176c0,0.935-0.03,1.867-0.087,2.8c-0.061,0.936-0.088,1.867-0.088,2.8c0.232,18.551,5.425,31.794,15.575,39.727
		c3.851,3.035,7.99,5.136,12.426,6.301c4.433,1.167,8.603,1.837,12.514,2.013c3.907,0.175,7.319,0.06,10.237-0.351
		C925.565,1590.988,927.434,1590.668,928.251,1590.434z"/>
	<path fill="#5B8C44" d="M1103.605,1481.054c0.583,0,1.051,0.293,1.4,0.875c0.465,0.471,0.582,0.995,0.35,1.578l-45.326,124.603
		c-0.235,0.817-0.817,1.225-1.75,1.225h-15.576c-0.585,0-1.11-0.232-1.575-0.7c-0.467-0.7-0.524-1.282-0.175-1.75l39.026-107.805
		h-37.276c-1.285,0-1.925-0.588-1.925-1.766v-14.315c0-1.296,0.64-1.944,1.925-1.944h45.152H1103.605z M1081.38,1495.229
		l3.675-10.325h-40.602v10.325H1081.38z M1095.73,1499.079h-11.726l-38.677,106.58l11.551-0.176L1095.73,1499.079z
		 M1100.806,1484.904h-11.726l-3.675,10.325h11.726L1100.806,1484.904z"/>
	<path fill="#5B8C44" d="M1281.762,1518.505c0,11.551-3.91,20.594-11.726,27.127c6.415,6.649,9.625,15.05,9.625,25.2
		c0,6.536-1.282,12.224-3.842,17.063c-2.56,4.843-5.762,8.838-9.604,11.988s-8.004,5.513-12.482,7.088
		c-4.482,1.575-8.644,2.362-12.483,2.362c-4.191,0-8.384-0.814-12.573-2.45c-4.188-1.633-7.974-3.907-11.348-6.825
		c-1.397-1.165-2.822-2.595-4.276-4.288c-1.455-1.689-2.795-3.702-4.018-6.037c-1.222-2.333-2.212-4.958-2.967-7.876
		c-0.758-2.914-1.135-6.183-1.135-9.8c0-12.251,4.433-21.876,13.301-28.876c-6.65-6.65-9.976-15.283-9.976-25.901
		c0-3.615,0.407-6.853,1.223-9.713c0.814-2.857,1.832-5.425,3.054-7.7c1.223-2.275,2.59-4.258,4.104-5.95
		c1.513-1.69,2.967-3.12,4.364-4.288c3.375-2.683,7.156-4.752,11.349-6.213c4.189-1.457,8.381-2.188,12.57-2.188
		s8.408,0.788,12.658,2.363c4.249,1.574,8.061,3.763,11.436,6.562c1.395,1.285,2.849,2.772,4.364,4.463
		c1.512,1.692,2.879,3.705,4.102,6.037c1.222,2.336,2.242,4.988,3.057,7.963C1281.354,1511.593,1281.762,1514.891,1281.762,1518.505
		z M1267.739,1593.233c2.455-2.8,4.446-6.038,5.967-9.713s2.28-7.902,2.28-12.688c0-5.015-0.878-9.564-2.631-13.65
		c-1.055,0.118-2.312,0.205-3.773,0.263c-1.463,0.061-3.131,0.088-5.001,0.088c-1.991,0-4.154-0.058-6.492-0.176
		c-2.34-0.114-4.796-0.35-7.369-0.699c-12.4-1.516-22.226-5.133-29.478-10.851l-2.105,1.575
		c-7.02,6.067-10.528,14.293-10.528,24.676c0,4.436,0.643,8.4,1.931,11.9c1.285,3.5,3.041,6.593,5.264,9.275H1267.739z
		 M1218.218,1498.38c-1.63,2.218-3.024,4.872-4.189,7.963c-1.165,3.092-1.744,6.737-1.744,10.938c0,5.95,1.104,11.143,3.316,15.575
		c2.56-0.232,5.847-0.438,9.86-0.612c4.015-0.175,8.406,0.03,13.178,0.612c11.985,1.168,21.528,4.61,28.628,10.326
		c0.229-0.232,0.462-0.408,0.697-0.525c6.748-5.833,10.123-13.883,10.123-24.151c0-4.433-0.641-8.312-1.92-11.638
		c-1.28-3.325-2.795-6.152-4.539-8.487H1218.218z M1217.827,1536.531c1.044,1.518,2.321,2.975,3.83,4.375
		c3.02-1.982,6.389-3.558,10.104-4.726c-2.789-0.232-5.373-0.289-7.752-0.175C1221.63,1536.124,1219.568,1536.299,1217.827,1536.531
		z M1219.568,1597.083c3.252,2.801,6.822,4.9,10.714,6.301c3.889,1.4,7.52,2.1,10.889,2.1c3.483,0,7.228-0.699,11.236-2.1
		c4.006-1.4,7.691-3.5,11.061-6.301H1219.568z M1245.002,1485.079c-3.719,0-7.465,0.673-11.238,2.013
		c-3.774,1.343-7.17,3.237-10.189,5.688c-0.35,0.235-0.699,0.498-1.047,0.787c-0.35,0.293-0.697,0.613-1.045,0.963h46.517
		l-1.395-1.4c-3.019-2.564-6.445-4.55-10.279-5.95C1252.492,1485.779,1248.718,1485.079,1245.002,1485.079z M1242.391,1537.231
		c-7.088,1.399-12.953,3.5-17.597,6.3c5.226,3.968,12.136,6.768,20.73,8.4c7.085-1.165,13.183-3.325,18.294-6.476
		c-3.02-2.332-6.388-4.14-10.104-5.425C1249.995,1538.749,1246.222,1537.816,1242.391,1537.231z M1271.136,1553.507
		c-0.583-1.05-1.223-2.013-1.917-2.888c-0.697-0.875-1.452-1.72-2.265-2.538c-3.368,2.101-7.088,3.851-11.15,5.251
		c3.133,0.235,6.037,0.35,8.709,0.35S1269.391,1553.624,1271.136,1553.507z"/>
	<path fill="#5B8C44" d="M1440.696,1490.154c1.395,1.285,2.85,2.772,4.364,4.463c1.513,1.692,2.88,3.705,4.103,6.037
		c1.222,2.336,2.242,4.988,3.057,7.963c0.814,2.976,1.223,6.273,1.223,9.888v88.904c0,1.285-0.638,1.925-1.906,1.925h-13.164
		c-1.271,0-1.905-0.64-1.905-1.925v-49.877h-0.176c-3.035,0-6.417-0.146-10.15-0.438c-3.735-0.29-7.643-0.902-11.726-1.838
		c-10.385-2.333-18.493-6.3-24.325-11.9c-6.769-6.766-10.15-15.458-10.15-26.076c0-3.615,0.407-6.853,1.222-9.713
		c0.815-2.857,1.832-5.425,3.055-7.7s2.59-4.258,4.104-5.95c1.512-1.69,2.967-3.12,4.364-4.288
		c3.374-2.683,7.184-4.752,11.433-6.213c4.25-1.457,8.469-2.188,12.661-2.188c4.074,0,8.233,0.788,12.482,2.363
		C1433.511,1485.166,1437.322,1487.354,1440.696,1490.154z M1383.614,1517.28c0,9.45,3.087,17.211,9.268,23.276l0.533,0.524v-46.901
		c-2.377,2.218-4.605,5.192-6.684,8.925C1384.653,1506.84,1383.614,1511.565,1383.614,1517.28z M1397.09,1544.231
		c3.043,1.985,6.262,3.588,9.658,4.812c3.394,1.226,6.847,2.188,10.358,2.888c9.483-1.515,16.976-4.607,22.478-9.275
		c6.787-5.833,10.183-13.883,10.183-24.151c0-3.265-0.353-6.212-1.056-8.837c-0.702-2.626-1.61-4.988-2.721-7.088
		c-1.112-2.101-2.343-3.938-3.688-5.513c-1.346-1.575-2.663-2.888-3.948-3.938c-3.044-2.564-6.468-4.55-10.271-5.95
		c-3.806-1.399-7.579-2.1-11.326-2.1c-3.396,0-6.789,0.525-10.186,1.575s-6.555,2.567-9.48,4.55V1544.231z M1427.602,1553.332
		c1.654,0.117,3.221,0.205,4.697,0.263c1.477,0.06,2.866,0.087,4.168,0.087l-0.135-4.2c-1.279,0.817-2.649,1.518-4.104,2.101
		C1430.773,1552.167,1429.23,1552.749,1427.602,1553.332z M1449.767,1535.831c-2.218,4.317-5.425,8.051-9.625,11.2v58.452h9.625
		V1535.831z"/>
	<path fill="#5B8C44" d="M1635.273,1498.38c5.015,8.168,8.34,18.9,9.975,32.201c0.583,4.9,0.875,8.985,0.875,12.25
		c0,3.268,0,5.018,0,5.25c0,1.636-0.06,3.501-0.175,5.601c-0.117,2.101-0.292,4.436-0.524,7c-1.4,13.419-4.551,24.151-9.451,32.202
		c-6.65,11.085-16.16,16.625-28.525,16.625h-0.176c-2.1,0-4.085-0.175-5.95-0.524c-0.699,0.117-1.43,0.175-2.188,0.175
		c-0.76,0-1.548,0-2.362,0h-0.175c-12.486,0-22.169-5.658-29.052-16.976c-5.018-8.165-8.343-18.901-9.975-32.201
		c-0.586-4.9-0.876-8.983-0.876-12.251c0-3.265,0-5.015,0-5.25v-0.175c0-1.633,0.058-3.5,0.176-5.601
		c0.114-2.1,0.29-4.375,0.524-6.825c1.4-13.415,4.551-24.151,9.451-32.201c6.649-11.083,16.215-16.626,28.7-16.626
		c1.983,0,3.966,0.175,5.951,0.525c0.699-0.115,1.427-0.175,2.188-0.175c0.757,0,1.545,0,2.362,0h0.175
		C1618.705,1481.404,1628.388,1487.064,1635.273,1498.38z M1570.695,1590.258c4.9,7.936,11.315,12.776,19.251,14.526
		c-4.318-2.683-8.226-6.766-11.726-12.251c-5.018-8.165-8.343-18.958-9.976-32.376c-0.585-4.9-0.875-8.983-0.875-12.251
		c0-3.265,0-5.015,0-5.25v-0.175c0-1.633,0.058-3.47,0.175-5.513c0.115-2.04,0.29-4.346,0.525-6.913
		c1.4-13.301,4.55-24.033,9.45-32.201c3.265-5.601,7.465-9.801,12.601-12.601c-3.735,0.7-7.061,1.925-9.976,3.675
		c-3.968,2.45-7.35,6.011-10.15,10.676c-2.218,3.735-3.968,7.73-5.25,11.988c-1.285,4.26-2.248,8.431-2.888,12.513
		c-0.643,4.085-1.022,7.875-1.138,11.376c-0.117,3.5-0.175,6.242-0.175,8.225v3.5v0.7c0,2.336,0.145,5.193,0.438,8.575
		c0.29,3.386,0.815,7.001,1.575,10.851c0.758,3.851,1.777,7.788,3.062,11.813
		C1566.902,1583.171,1568.596,1586.876,1570.695,1590.258z M1622.147,1590.608c2.8-4.551,4.84-9.565,6.125-15.051
		c1.282-5.482,2.188-10.615,2.713-15.4c0.525-4.783,0.758-8.778,0.7-11.988c-0.061-3.207-0.088-4.87-0.088-4.987
		c0-2.215-0.147-5.046-0.438-8.488c-0.292-3.439-0.787-7.146-1.487-11.113c-0.7-3.965-1.723-7.989-3.062-12.075
		c-1.343-4.082-3.062-7.875-5.163-11.375c-5.135-8.165-11.785-13.065-19.95-14.701c-4.086,0.586-7.644,1.868-10.676,3.851
		c-4.085,2.567-7.468,6.125-10.15,10.676c-2.218,3.617-3.968,7.555-5.25,11.812c-1.285,4.261-2.248,8.431-2.888,12.513
		c-0.643,4.086-1.022,7.849-1.138,11.288c-0.118,3.443-0.175,6.213-0.175,8.313v3.5v0.699c0,2.336,0.145,5.224,0.438,8.663
		c0.29,3.443,0.814,7.088,1.575,10.938c0.757,3.85,1.777,7.76,3.062,11.726c1.282,3.968,2.975,7.643,5.075,11.025
		c5.015,8.285,11.665,13.186,19.95,14.7c4.083-0.582,7.641-1.865,10.676-3.851
		C1616.08,1598.719,1619.462,1595.158,1622.147,1590.608z M1632.823,1590.958c2.8-4.55,4.84-9.595,6.125-15.138
		c1.282-5.54,2.188-10.676,2.713-15.4c0.524-4.726,0.727-10.354,0.612-16.889h0.175c0-2.215-0.147-5.045-0.438-8.487
		c-0.293-3.44-0.817-7.146-1.575-11.113c-0.76-3.965-1.811-8.021-3.15-12.163c-1.342-4.14-3.062-7.963-5.162-11.463
		c-3.15-4.9-6.593-8.516-10.325-10.851c-2.801-1.75-5.836-2.975-9.101-3.675c2.332,1.399,4.49,3.122,6.475,5.162
		c1.983,2.043,3.79,4.405,5.426,7.088c5.015,8.168,8.34,18.961,9.976,32.377c0.582,4.899,0.875,8.985,0.875,12.25
		c0,3.268,0,5.018,0,5.25c0,1.518-0.061,3.355-0.175,5.513c-0.118,2.16-0.293,4.523-0.525,7.088
		c-1.4,13.301-4.55,23.977-9.45,32.026c-3.5,5.718-7.7,9.976-12.601,12.775c3.615-0.7,6.939-1.925,9.976-3.675
		C1626.638,1599.184,1630.022,1595.626,1632.823,1590.958z"/>
</g>
</svg>
