<?xml version="1.0" encoding="utf-8"?>
<!-- Generator: Adobe Illustrator 16.0.0, SVG Export Plug-In . SVG Version: 6.00 Build 0)  -->
<!DOCTYPE svg PUBLIC "-//W3C//DTD SVG 1.1//EN" "http://www.w3.org/Graphics/SVG/1.1/DTD/svg11.dtd">
<svg version="1.1" id="Capa_1" xmlns="http://www.w3.org/2000/svg" xmlns:xlink="http://www.w3.org/1999/xlink" x="0px" y="0px"
	 width="1666px" height="1666px" viewBox="0 0 1666 1666" enable-background="new 0 0 1666 1666" xml:space="preserve">
<g>
	<path fill="#D8D8D8" d="M74.397,72.23h26.245l41.656,195.033h-25.763l-8.908-49.119H67.895l-9.391,49.119H32.982L74.397,72.23z
		 M104.014,198.642l-16.372-87.886l-16.134,87.886H104.014z"/>
	<path fill="#D8D8D8" d="M162.039,72.23h44.786c17.657,0,30.739,3.973,39.25,11.917c8.504,7.946,12.759,20.27,12.759,36.962
		c0,24.882-9.31,38.607-27.931,41.173c11.559,2.732,19.984,8.149,25.284,16.252c5.298,8.109,7.946,19.142,7.946,33.108
		c0,17.497-4.136,31.143-12.402,40.935c-8.269,9.792-20.828,14.686-37.683,14.686h-52.008V72.23z M205.38,153.614
		c11.233,0,19.023-2.447,23.357-7.344c4.333-4.895,6.501-13.279,6.501-25.161c0-8.667-1.325-15.05-3.973-19.142
		c-2.652-4.093-6.625-6.703-11.92-7.827c-5.299-1.119-13.164-1.683-23.598-1.683h-6.501v61.158H205.38z M207.548,247.761
		c8.025,0,14.242-1.244,18.66-3.731c4.412-2.488,7.501-6.298,9.269-11.438c1.767-5.135,2.651-12.12,2.651-20.95
		c0-12.521-2.569-21.868-7.705-28.05c-5.139-6.179-13.486-9.272-25.042-9.272h-16.134v73.441H207.548z"/>
	<path fill="#D8D8D8" d="M296.394,252.213c-7.869-11.475-11.801-27.327-11.801-47.553v-68.866c0-21.345,3.854-37.56,11.559-48.637
		c7.705-11.077,21.348-16.613,40.932-16.613c17.497,0,30.058,4.734,37.682,14.207c7.624,9.473,11.438,23.438,11.438,41.894v15.41
		H360.44v-13.725c0-8.986-0.401-15.889-1.203-20.706c-0.806-4.816-2.852-8.67-6.142-11.559c-3.29-2.89-8.545-4.334-15.77-4.334
		c-7.386,0-12.881,1.563-16.495,4.694c-3.609,3.13-5.981,7.467-7.1,13.004c-1.125,5.536-1.686,12.966-1.686,22.272v77.292
		c0,9.955,0.798,17.738,2.406,23.357c1.604,5.618,4.215,9.628,7.828,12.038c3.61,2.407,8.626,3.613,15.047,3.613
		c6.899,0,12.039-1.526,15.41-4.579c3.372-3.045,5.496-7.222,6.383-12.518c0.88-5.299,1.322-12.521,1.322-21.671v-14.448h25.763
		v14.448c0,19.425-3.651,34.312-10.955,44.664c-7.307,10.353-20.026,15.532-38.165,15.532
		C317.822,269.432,304.255,263.694,296.394,252.213z"/>
	<path fill="#D8D8D8" d="M412.21,72.23h42.379c21.025,0,35.912,4.816,44.664,14.445c8.749,9.632,13.123,24.644,13.123,45.027v71.752
		c0,21.514-4.296,37.526-12.882,48.039c-8.589,10.515-22.837,15.77-42.74,15.77H412.21V72.23z M454.828,247.761
		c9.472,0,16.334-1.845,20.59-5.54c4.249-3.691,6.899-8.705,7.943-15.047c1.043-6.342,1.567-15.93,1.567-28.774v-63.327
		c0-11.077-0.686-19.54-2.046-25.403c-1.366-5.859-4.215-10.193-8.548-13.003c-4.333-2.804-11.077-4.211-20.226-4.211h-14.69
		v155.305H454.828z"/>
	<path fill="#D8D8D8" d="M539.102,72.23h75.606v20.226h-48.399v64.53h39.249v19.261h-39.249v71.514h48.881v19.502h-76.089V72.23z"/>
	<path fill="#D8D8D8" d="M637.099,72.23h75.365v19.502h-48.158v65.012h37.322v19.262h-37.322v91.257h-27.207V72.23z"/>
	<path fill="#D8D8D8" d="M739.43,252.938c-7.868-11.155-11.8-27.728-11.8-49.721v-65.253c0-15.087,1.566-27.487,4.697-37.2
		c3.13-9.711,8.507-17.175,16.13-22.395c7.624-5.214,18.099-7.824,31.426-7.824c17.973,0,30.939,4.575,38.886,13.724
		c7.946,9.15,11.919,23.517,11.919,43.1v7.223h-25.524v-6.02c0-9.306-0.564-16.494-1.686-21.548
		c-1.125-5.057-3.491-8.868-7.104-11.437c-3.61-2.566-8.949-3.854-16.012-3.854c-7.545,0-13.163,1.727-16.854,5.177
		c-3.694,3.453-6.06,8.065-7.104,13.846c-1.043,5.778-1.563,13.483-1.563,23.115v72.235c0,14.927,1.804,25.644,5.417,32.143
		c3.609,6.502,10.553,9.754,20.828,9.754c10.111,0,17.052-3.532,20.827-10.598c3.77-7.06,5.659-18.377,5.659-33.951v-13.483h-24.801
		V170.71h49.361v96.553h-17.097l-2.651-22.391c-6.101,16.535-17.66,24.798-34.671,24.798
		C760.054,269.67,747.292,264.096,739.43,252.938z"/>
	<path fill="#D8D8D8" d="M860.058,72.23h27.208v84.273h50.084V72.23h27.207v195.033H937.35v-91.257h-50.084v91.257h-27.208V72.23z"
		/>
	<path fill="#D8D8D8" d="M996.58,72.23h26.728v195.033H996.58V72.23z"/>
	<path fill="#D8D8D8" d="M1041.362,252.335c8.188,0,14.245-0.761,18.181-2.287c3.93-1.526,6.621-4.337,8.065-8.429
		c1.444-4.092,2.166-10.391,2.166-18.901V72.23h26.969v150.971c0,11.719-1.204,21.066-3.612,28.051
		c-2.407,6.981-6.703,12.16-12.883,15.529c-6.182,3.371-14.809,5.057-25.885,5.057h-13.001V252.335z"/>
	<path fill="#D8D8D8" d="M1127.319,72.23h27.207v91.979l44.786-91.979h25.283l-38.525,85.959l44.786,109.074h-26.487l-37.321-91.499
		l-12.521,22.636v68.863h-27.207V72.23z"/>
	<path fill="#D8D8D8" d="M1246.508,72.23h27.207v175.531h49.844v19.502h-77.051V72.23z"/>
	<path fill="#D8D8D8" d="M1345.226,72.23h26.729l34.431,158.194l34.674-158.194h26.486l3.61,195.033h-21.909l-2.168-141.58
		l-32.989,141.58h-15.409l-32.745-141.58l-2.168,141.58h-22.153L1345.226,72.23z"/>
	<path fill="#D8D8D8" d="M1501.007,72.23h18.541l55.38,129.542V72.23h22.632v195.033h-17.334l-56.104-133.154v133.154h-23.115V72.23
		z"/>
	<path fill="#D8D8D8" d="M43.577,361.168h18.54l55.38,129.542V361.168h22.633v195.034h-17.334L66.692,423.047v133.155H43.577
		V361.168z M101.485,330.107c-2.647-1.122-5.659-2.729-9.03-4.816c-3.212-1.764-5.778-3.089-7.706-3.974
		c-1.924-0.88-3.936-1.325-6.019-1.325c-2.889,0-4.976,0.765-6.261,2.288c-1.284,1.529-1.924,4.058-1.924,7.586H55.856
		c0-17.338,6.42-26.004,19.264-26.004c2.726,0,5.333,0.523,7.824,1.563c2.488,1.047,5.336,2.529,8.548,4.456
		c3.209,1.927,5.815,3.334,7.824,4.214c2.005,0.884,4.133,1.322,6.383,1.322c2.889,0,4.936-0.758,6.138-2.287
		c1.207-1.523,1.808-4.13,1.808-7.824h14.445c0,8.188-1.323,14.648-3.973,19.383c-2.648,4.737-7.263,7.103-13.844,7.103
		C107.06,331.792,104.133,331.232,101.485,330.107z"/>
	<path fill="#D8D8D8" d="M179.498,542.117c-8.269-10.835-12.402-26.524-12.402-47.073v-73.92c0-20.227,4.173-35.555,12.521-45.989
		c8.344-10.435,21.99-15.651,40.935-15.651c18.938,0,32.544,5.258,40.813,15.77c8.266,10.516,12.398,25.807,12.398,45.87v74.162
		c0,20.223-4.176,35.796-12.521,46.71c-8.347,10.92-21.909,16.375-40.69,16.375C201.447,558.37,187.764,552.953,179.498,542.117z
		 M241.016,528.029c3.532-5.935,5.299-14.928,5.299-26.966v-85.48c0-11.875-1.767-20.665-5.299-26.365
		c-3.531-5.696-10.353-8.548-20.464-8.548c-10.274,0-17.18,2.852-20.708,8.548c-3.531,5.7-5.295,14.489-5.295,26.365v85.48
		c0,12.038,1.764,21.031,5.295,26.966c3.528,5.941,10.434,8.912,20.708,8.912C230.664,536.941,237.485,533.97,241.016,528.029z"/>
	<path fill="#D8D8D8" d="M300.488,361.168h48.399c16.855,0,29.094,4.575,36.718,13.725c7.624,9.149,11.437,22.554,11.437,40.211
		c0,15.89-4.093,28.254-12.28,37.081c-8.185,8.83-20.067,13.242-35.633,13.242h-21.433v90.775h-27.208V361.168z M340.217,445.925
		c8.025,0,14.244-0.881,18.663-2.651c4.412-1.765,7.583-4.816,9.51-9.15s2.889-10.594,2.889-18.782
		c0-9.949-0.72-17.253-2.165-21.909c-1.444-4.656-4.299-7.947-8.548-9.874c-4.256-1.927-10.958-2.889-20.107-2.889h-12.762v65.254
		H340.217z"/>
	<path fill="#D8D8D8" d="M470.483,558.129l-4.575,0.241c-19.104,0-32.788-5.417-41.054-16.253
		c-8.269-10.835-12.402-26.524-12.402-47.073v-73.92c0-20.227,4.174-35.555,12.521-45.989c8.345-10.435,21.99-15.651,40.935-15.651
		c18.938,0,32.584,5.258,40.932,15.77c8.345,10.516,12.521,25.807,12.521,45.87v74.162c0,30.98-9.55,50.486-28.651,58.51
		c8.024,10.432,14.445,17.253,19.261,20.465l-4.333,21.43C495.844,590.874,484.123,578.355,470.483,558.129z M486.613,528.029
		c3.532-5.935,5.299-14.928,5.299-26.966v-85.48c0-11.875-1.767-20.665-5.299-26.365c-3.531-5.696-10.434-8.548-20.706-8.548
		c-10.274,0-17.18,2.852-20.708,8.548c-3.531,5.7-5.295,14.489-5.295,26.365v85.48c0,12.038,1.764,21.031,5.295,26.966
		c3.528,5.941,10.435,8.912,20.708,8.912C476.18,536.941,483.082,533.97,486.613,528.029z"/>
	<path fill="#D8D8D8" d="M546.324,361.168h39.249c19.744,0,34.227,4.055,43.46,12.158c9.228,8.109,13.844,21.31,13.844,39.61
		c0,25.042-8.028,40.211-24.078,45.51l27.69,97.756h-26.246l-25.521-91.499h-21.191v91.499h-27.208V361.168z M583.887,445.2
		c11.716,0,20.104-2.324,25.162-6.98c5.057-4.657,7.583-13.083,7.583-25.284c0-8.025-0.884-14.327-2.648-18.901
		c-1.767-4.575-4.897-7.946-9.391-10.114c-4.496-2.165-10.835-3.25-19.02-3.25h-12.041V445.2H583.887z"/>
	<path fill="#D8D8D8" d="M679.836,543.198c-8.589-10.111-13.364-23.993-14.326-41.652l24.077-6.502
		c0.802,12.521,3.252,22.632,7.345,30.337c4.092,7.706,10.873,11.56,20.345,11.56c7.063,0,12.402-1.964,16.012-5.9
		c3.612-3.932,5.417-9.591,5.417-16.977c0-7.862-1.686-14.405-5.055-19.622c-3.372-5.217-8.751-11.199-16.134-17.939l-32.747-28.893
		c-6.583-5.938-11.355-12.239-14.325-18.904c-2.971-6.658-4.453-14.724-4.453-24.196c0-14.448,4.17-25.562,12.518-33.348
		c8.348-7.787,19.825-11.678,34.433-11.678c15.248,0,26.644,4.092,34.192,12.279c7.542,8.185,12.117,20.869,13.725,38.043
		l-23.116,6.261c-0.805-11.077-2.889-19.781-6.26-26.126c-3.372-6.339-9.313-9.51-17.816-9.51c-15.573,0-23.356,7.145-23.356,21.43
		c0,5.781,0.961,10.556,2.889,14.326c1.927,3.776,5.214,7.828,9.874,12.161l32.985,28.893c8.507,7.868,15.291,16.175,20.345,24.923
		c5.057,8.749,7.586,18.66,7.586,29.736c0,14.289-4.333,25.606-13.003,33.951c-8.667,8.347-19.903,12.521-33.709,12.521
		C700.905,558.37,688.421,553.313,679.836,543.198z"/>
	<path fill="#D8D8D8" d="M805.163,381.395h-35.396v-20.227h97.036v20.227h-34.433v174.807h-27.208V381.395z"/>
	<path fill="#D8D8D8" d="M899.911,550.183c-7.627-5.456-12.881-13.082-15.774-22.874c-2.889-9.789-4.333-22.069-4.333-36.839
		V361.168h26.005v130.504c0,14.771,1.723,26.003,5.176,33.708c3.453,7.706,10.394,11.56,20.828,11.56s17.375-3.854,20.828-11.56
		c3.449-7.705,5.18-18.938,5.18-33.708V361.168h25.763v129.301c0,14.771-1.444,27.051-4.334,36.839
		c-2.889,9.792-8.109,17.418-15.651,22.874c-7.548,5.458-18.143,8.188-31.785,8.188S907.531,555.641,899.911,550.183z"/>
	<path fill="#D8D8D8" d="M1002.603,361.168h25.524l30.821,143.746l29.375-143.746h24.801l-43.1,195.034h-23.839L1002.603,361.168z"
		/>
	<path fill="#D8D8D8" d="M1127.325,361.168h22.636l20.947,140.136l26.245-139.416h19.261l26.487,140.136l20.468-140.856h22.153
		l-31.303,195.034h-19.744l-27.211-144.47l-27.448,144.47h-20.706L1127.325,361.168z"/>
	<path fill="#D8D8D8" d="M1338.01,454.109l-39.973-92.94h25.283l29.617,68.863l26.967-68.863h25.283l-40.936,95.108l42.862,99.925
		h-25.283l-31.782-73.438l-27.449,73.438h-25.283L1338.01,454.109z"/>
	<path fill="#D8D8D8" d="M1455.269,487.339l-42.139-126.17h25.283l29.856,94.147l29.375-94.147h25.525l-41.896,126.17v68.863
		h-26.005V487.339z"/>
	<path fill="#D8D8D8" d="M1535.205,536.699l57.308-156.028h-53.694v-19.502h82.587v11.797l-60.437,163.733h60.437v19.503h-86.2
		V536.699z"/>
</g>
<g>
	<path fill="#D8D8D8" d="M52.125,903.015c-4.255-3.049-7.583-7.063-9.993-12.038c-2.406-4.976-3.613-10.193-3.613-15.651
		c0-10.914,2.325-19.781,6.984-26.609c4.653-6.818,10.554-12.195,17.698-16.131c7.141-3.932,17.215-8.548,30.219-13.847v-9.87
		c0-9.15-0.927-15.611-2.77-19.384c-1.846-3.77-5.581-5.659-11.196-5.659c-9.794,0-14.689,6.583-14.689,19.744v6.984l-25.521-0.965
		l0.241-5.054c0.802-13.966,4.694-24.118,11.678-30.46c6.981-6.339,16.974-9.509,29.978-9.509c13.32,0,22.993,3.653,29.012,10.954
		c6.02,7.308,9.031,18.34,9.031,33.108v63.568c0,10.434,0.802,21.589,2.406,33.467H97.995c-1.77-9.149-2.889-15.971-3.372-20.467
		c-1.927,6.26-5.261,11.559-9.992,15.893c-4.738,4.333-10.798,6.502-18.18,6.502C61.155,907.59,56.376,906.061,52.125,903.015z
		 M86.436,881.463c3.208-2.647,5.54-5.176,6.984-7.582v-39.49c-7.066,4.176-12.364,7.425-15.893,9.751
		c-3.532,2.33-6.621,5.461-9.269,9.391c-2.65,3.935-3.973,8.548-3.973,13.847c0,5.777,1.041,10.233,3.13,13.364
		c2.084,3.13,5.136,4.693,9.15,4.693C79.937,885.437,83.224,884.11,86.436,881.463z"/>
	<path fill="#D8D8D8" d="M170.229,895.551v10.111h-25.767V710.629h25.767v66.936c7.542-8.667,16.287-13,26.242-13
		c12.681,0,21.147,5.417,25.403,16.253c4.252,10.835,6.383,22.836,6.383,35.996v33.709c0,38.043-11.478,57.066-34.433,57.066
		C185.476,907.59,177.608,903.579,170.229,895.551z M199.965,878.333c1.686-6.02,2.529-15.288,2.529-27.81v-33.709
		c0-10.271-0.965-18.18-2.893-23.716c-1.924-5.54-5.938-8.307-12.038-8.307c-5.622,0-11.399,2.328-17.334,6.981v89.33
		c5.295,4.177,11.393,6.261,18.299,6.261C194.463,887.363,198.28,884.352,199.965,878.333z"/>
	<path fill="#D8D8D8" d="M264.37,900.969c-5.941-4.416-9.992-10.598-12.158-18.54c-2.168-7.946-3.252-18.018-3.252-30.22v-32.023
		c0-12.521,1.084-22.792,3.252-30.82c2.166-8.028,6.217-14.166,12.158-18.421c5.938-4.252,14.364-6.379,25.284-6.379
		c9.952,0,17.698,1.604,23.234,4.816c5.54,3.212,9.391,7.987,11.559,14.326c2.165,6.342,3.25,14.567,3.25,24.679v8.188H304.34
		v-8.429c0-9.149-1.003-15.529-3.009-19.142c-2.008-3.61-5.822-5.418-11.437-5.418c-4.333,0-7.548,0.965-9.632,2.889
		c-2.086,1.927-3.532,5.057-4.333,9.391c-0.806,4.336-1.204,10.678-1.204,19.023v43.82c0,8.031,0.479,14.169,1.444,18.422
		c0.962,4.255,2.526,7.222,4.694,8.908c2.169,1.686,5.255,2.528,9.272,2.528c5.935,0,9.789-1.965,11.556-5.9
		c1.764-3.929,2.648-9.992,2.648-18.177v-11.317h23.356v9.633c0,15.09-2.771,26.326-8.307,33.708
		c-5.537,7.386-15.451,11.077-29.736,11.077C278.733,907.59,270.307,905.384,264.37,900.969z"/>
	<path fill="#D8D8D8" d="M356.229,894.344c-5.536-8.823-8.307-23.271-8.307-43.338v-26.969c0-18.459,2.448-32.989,7.345-43.583
		c4.895-10.594,13.847-15.889,26.847-15.889c8.187,0,15.892,3.61,23.115,10.835v-64.771h25.763v195.033h-25.763v-8.908
		c-6.743,7.223-14.367,10.836-22.875,10.836C370.474,907.59,361.769,903.175,356.229,894.344z M405.229,882.064V790.81
		c-5.941-4.01-11.399-6.019-16.373-6.019c-10.114,0-15.168,9.714-15.168,29.134v39.247c0,11.239,1.04,19.743,3.13,25.524
		c2.083,5.778,6.257,8.667,12.518,8.667C394.472,887.363,399.771,885.6,405.229,882.064z"/>
	<path fill="#D8D8D8" d="M470.479,901.447c-5.941-4.092-10.114-10.148-12.521-18.176c-2.409-8.028-3.612-18.46-3.612-31.304v-31.782
		c0-19.264,3.011-33.349,9.03-42.26c6.02-8.909,16.735-13.361,32.146-13.361c11.233,0,19.699,2.328,25.403,6.981
		c5.693,4.66,9.469,11.196,11.314,19.625c1.845,8.426,2.77,19.784,2.77,34.07v11.317h-54.897v18.541
		c0,8.348,0.198,14.607,0.602,18.782c0.398,4.174,1.686,7.667,3.852,10.471c2.168,2.811,5.737,4.215,10.716,4.215
		c5.615,0,9.429-1.883,11.438-5.659c2.005-3.77,3.007-9.509,3.007-17.214v-8.43h25.043v5.299c0,14.607-3.13,25.763-9.391,33.468
		s-16.215,11.56-29.855,11.56C484.765,907.59,476.414,905.544,470.479,901.447z M509.725,822.593v-12.521
		c0-9.469-0.924-16.252-2.766-20.346c-1.849-4.095-5.744-6.141-11.679-6.141c-4.177,0-7.344,0.965-9.513,2.889
		c-2.165,1.927-3.65,5.098-4.453,9.513c-0.805,4.415-1.204,10.798-1.204,19.143v7.464H509.725z"/>
	<path fill="#D8D8D8" d="M566.547,785.512h-16.613v-19.023h16.613v-7.223c0-9.632,0.724-17.375,2.168-23.235
		c1.445-5.859,4.371-10.393,8.79-13.604c4.412-3.209,10.791-4.816,19.142-4.816c3.691,0,9.306,0.404,16.855,1.204v19.264
		c-1.288-0.16-2.933-0.398-4.938-0.724c-2.009-0.32-3.572-0.479-4.694-0.479c-4.656,0-7.746,1.485-9.269,4.453
		c-1.529,2.974-2.288,7.508-2.288,13.605v11.556h21.188v19.023h-21.188v120.15h-25.766V785.512z"/>
	<path fill="#D8D8D8" d="M632.641,944.67c-8.912-2.732-13.365-8.588-13.365-17.578c0-7.223,1.884-13.483,5.659-18.782
		c3.77-5.295,8.548-9.469,14.326-12.521c-4.333-1.282-7.668-3.286-9.993-6.02c-2.328-2.726-3.491-5.696-3.491-8.908
		c0-4.815,1.204-8.986,3.61-12.521c2.41-3.529,6.339-7.784,11.801-12.76c-5.462-4.173-9.514-9.428-12.161-15.773
		c-2.648-6.338-3.973-14.887-3.973-25.644c0-16.209,3.331-28.533,9.992-36.959c6.659-8.429,16.41-12.64,29.257-12.64
		c7.379,0,13.398,1.285,18.058,3.851c4.653,2.57,8.188,6.423,10.594,11.56c1.122-1.765,3.49-4.133,7.104-7.104
		c3.612-2.97,7.501-5.417,11.678-7.345l3.851-1.686l6.501,16.613c-3.211,0.646-7.667,2.009-13.364,4.096
		c-5.699,2.087-9.112,3.694-10.234,4.816c1.122,2.889,2.128,6.903,3.012,12.039c0.88,5.139,1.325,9.629,1.325,13.483
		c0,15.253-2.974,27.088-8.912,35.515c-5.938,8.429-15.811,12.643-29.614,12.643c-4.336,0-8.751-0.561-13.245-1.687
		c-0.323,0.48-1.166,1.846-2.529,4.093c-1.363,2.25-2.046,4.418-2.046,6.502c0,1.767,0.921,3.171,2.77,4.215
		c1.843,1.043,4.775,1.727,8.79,2.046c2.406,0.322,6.057,0.684,10.954,1.085c4.894,0.4,8.466,0.682,10.716,0.843
		c21.508,1.923,32.265,13.241,32.265,33.95c0,12.357-3.334,21.226-9.992,26.604c-6.665,5.378-17.059,8.066-31.184,8.066
		C654.267,948.763,641.548,947.396,632.641,944.67z M686.937,925.287c3.527-2.169,5.295-5.659,5.295-10.476
		c0-4.496-1.363-7.823-4.092-9.992c-2.732-2.169-7.705-3.568-14.928-4.215l-21.912-1.923c-2.406,1.923-4.738,4.493-6.98,7.705
		c-2.25,3.209-3.372,6.658-3.372,10.353c0,2.889,0.72,5.176,2.166,6.861c1.444,1.687,4.292,2.928,8.548,3.732
		c4.252,0.803,10.475,1.204,18.662,1.204C677.864,928.537,683.402,927.452,686.937,925.287z M677.787,837.761
		c2.083-4.816,3.13-12.677,3.13-23.597c0-11.074-1.046-19.142-3.13-24.196c-2.09-5.058-6.502-7.586-13.245-7.586
		c-6.74,0-11.277,2.528-13.602,7.586c-2.328,5.054-3.491,13.123-3.491,24.196c0,9.955,1.163,17.579,3.491,22.877
		c2.325,5.295,6.777,7.943,13.364,7.943C671.203,844.984,675.697,842.577,677.787,837.761z"/>
	<path fill="#D8D8D8" d="M732.925,710.629h25.763v70.307c11.56-10.914,23.197-16.372,34.916-16.372
		c7.542,0,12.881,2.729,16.012,8.184c3.13,5.461,4.694,12.202,4.694,20.227v112.687h-25.763V800.439
		c0-5.296-0.805-9.228-2.406-11.797c-1.607-2.566-4.497-3.851-8.67-3.851c-5.621,0-11.882,3.049-18.782,9.149v111.722h-25.763
		V710.629z"/>
	<path fill="#D8D8D8" d="M841.034,718.814H866.8v26.969h-25.766V718.814z M841.034,766.489H866.8v139.173h-25.766V766.489z"/>
	<path fill="#D8D8D8" d="M876.909,939.131v-18.54c3.371,0.481,5.617,0.723,6.743,0.723c5.295,0,9.026-1.484,11.195-4.456
		c2.164-2.969,3.249-7.104,3.249-12.398v-137.97h25.763v140.618c0,10.914-2.97,19.265-8.907,25.042
		c-5.942,5.779-14.207,8.668-24.802,8.668C883.89,940.816,879.478,940.252,876.909,939.131z M898.097,718.814h26.005v26.969h-26.005
		V718.814z"/>
	<path fill="#D8D8D8" d="M950.347,710.388h25.766v116.297l37.561-60.196h26.97l-32.747,54.418l31.781,84.755h-25.763l-26.004-71.271
		l-11.798,17.818v53.212h-25.766V710.388z"/>
	<path fill="#D8D8D8" d="M1055.563,710.629h25.763v195.033h-25.763V710.629z"/>
	<path fill="#D8D8D8" d="M1108.296,766.489h23.836v13.245c4.653-5.135,9.751-9.031,15.291-11.678
		c5.537-2.647,11.353-3.973,17.456-3.973c11.875,0,19.422,5.863,22.632,17.579c9.633-11.716,21.189-17.579,34.676-17.579
		c7.222,0,13.122,2.647,17.697,7.946c4.575,5.295,6.862,13.405,6.862,24.318v109.315h-23.598V798.033
		c0-6.098-0.962-10.475-2.889-13.123c-1.928-2.647-4.738-3.973-8.43-3.973c-3.694,0-7.505,1.006-11.437,3.012
		c-3.937,2.009-7.583,4.775-10.955,8.306v4.092v109.315h-23.598V798.033c0-6.098-0.962-10.475-2.889-13.123
		c-1.928-2.647-4.738-3.973-8.426-3.973c-3.697,0-7.468,1.006-11.317,3.012c-3.854,2.009-7.549,4.775-11.077,8.306v113.408h-23.836
		V766.489z"/>
	<path fill="#D8D8D8" d="M1272.026,766.489h25.763v13.725c11.076-10.432,22.392-15.648,33.951-15.648
		c7.541,0,12.919,2.729,16.131,8.184c3.209,5.461,4.816,12.202,4.816,20.227v112.687h-25.764V800.439
		c0-5.296-0.806-9.228-2.409-11.797c-1.605-2.566-4.494-3.851-8.668-3.851c-5.139,0-11.157,2.889-18.058,8.667v112.204h-25.763
		V766.489z"/>
	<path fill="#D8D8D8" d="M41.412,1055.427h25.763v13.725c11.077-10.431,22.391-15.648,33.951-15.648
		c7.542,0,12.919,2.729,16.131,8.185c3.208,5.462,4.816,12.202,4.816,20.227v112.688H96.309v-105.224
		c0-5.296-0.805-9.228-2.41-11.798c-1.604-2.565-4.494-3.852-8.667-3.852c-5.139,0-11.158,2.891-18.058,8.668v112.205H41.412
		V1055.427z M90.891,1024.369c-2.648-1.122-5.659-2.73-9.03-4.816c-3.212-1.764-5.778-3.09-7.705-3.973
		c-1.924-0.882-3.936-1.326-6.019-1.326c-2.89,0-4.976,0.765-6.261,2.287c-1.285,1.529-1.924,4.055-1.924,7.587H45.262
		c0-17.338,6.417-26.004,19.264-26.004c2.726,0,5.333,0.522,7.824,1.562c2.488,1.047,5.337,2.529,8.548,4.456
		c3.208,1.924,5.815,3.334,7.824,4.211c2.006,0.887,4.133,1.326,6.383,1.326c2.889,0,4.935-0.759,6.138-2.288
		c1.204-1.522,1.809-4.13,1.809-7.823h14.445c0,8.184-1.325,14.648-3.973,19.383s-7.263,7.101-13.843,7.101
		C96.465,1026.052,93.539,1025.493,90.891,1024.369z"/>
	<path fill="#D8D8D8" d="M153.735,1183.405c-6.182-8.748-9.272-21.467-9.272-38.165v-40.452c0-16.691,3.09-29.413,9.272-38.163
		c6.176-8.748,16.651-13.122,31.422-13.122c14.605,0,24.999,4.374,31.181,13.122c6.179,8.75,9.272,21.472,9.272,38.163v40.452
		c0,16.698-3.093,29.417-9.272,38.165c-6.182,8.752-16.576,13.123-31.181,13.123
		C170.386,1196.528,159.911,1192.157,153.735,1183.405z M195.269,1173.412c2.083-2.729,3.372-6.1,3.854-10.113
		c0.479-4.012,0.721-9.47,0.721-16.373v-43.582c0-6.9-0.242-12.399-0.721-16.494c-0.482-4.093-1.771-7.502-3.854-10.23
		c-2.087-2.729-5.458-4.096-10.112-4.096c-4.659,0-8.065,1.366-10.233,4.096c-2.168,2.729-3.491,6.138-3.973,10.23
		c-0.482,4.095-0.721,9.594-0.721,16.494v43.582c0,6.903,0.238,12.361,0.721,16.373c0.482,4.014,1.805,7.385,3.973,10.113
		c2.168,2.73,5.574,4.094,10.233,4.094C189.81,1177.506,193.182,1176.143,195.269,1173.412z"/>
	<path fill="#D8D8D8" d="M249.204,1055.427h25.763v11.077c7.542-8.668,16.372-13.001,26.487-13.001
		c12.678,0,21.148,5.418,25.403,16.253c4.249,10.836,6.379,22.837,6.379,35.997v33.71c0,17.014-2.61,30.782-7.824,41.292
		c-5.22,10.516-14.169,15.773-26.85,15.773c-8.185,0-16.053-4.096-23.595-12.28v56.102h-25.763V1055.427z M304.944,1167.271
		c1.686-6.02,2.529-15.288,2.529-27.809v-33.71c0-10.271-0.965-18.181-2.889-23.717c-1.927-5.54-5.941-8.308-12.042-8.308
		c-5.938,0-11.797,2.407-17.575,7.224v89.089c5.615,4.178,11.797,6.261,18.541,6.261
		C299.442,1176.302,303.258,1173.291,304.944,1167.271z"/>
	<path fill="#D8D8D8" d="M411.493,1185.692c-6.744,7.223-14.37,10.836-22.874,10.836c-11.882,0-20.587-4.415-26.126-13.245
		c-5.537-8.823-8.307-23.271-8.307-43.338v-26.97c0-18.459,2.447-32.988,7.345-43.583c4.895-10.594,13.844-15.89,26.847-15.89
		c8.188,0,15.893,3.61,23.115,10.835v-8.911h25.763v184.923h-25.763V1185.692z M411.493,1171.004v-91.255
		c-5.941-4.011-11.399-6.021-16.373-6.021c-10.114,0-15.171,9.715-15.171,29.136v39.246c0,11.239,1.043,19.743,3.13,25.524
		c2.087,5.777,6.261,8.667,12.521,8.667C401.056,1176.302,406.354,1174.538,411.493,1171.004z"/>
	<path fill="#D8D8D8" d="M463.981,1055.427h25.763v19.748c4.816-7.865,9.754-13.402,14.809-16.617
		c5.057-3.209,10.394-4.816,16.012-4.816c1.445,0,2.808,0.085,4.095,0.241v28.414c-5.139-1.927-9.874-2.889-14.207-2.889
		c-4.177,0-7.909,1.003-11.195,3.009c-3.293,2.007-6.465,5.502-9.514,10.474v101.611h-25.763V1055.427z"/>
	<path fill="#D8D8D8" d="M545.484,1185.934c-6.984-7.062-10.958-16.531-11.919-28.414l21.43-6.502
		c1.122,8.994,3.167,15.651,6.141,19.986c2.967,4.336,7.182,6.502,12.641,6.502c4.493,0,8.188-1.404,11.077-4.215
		c2.889-2.805,4.333-6.381,4.333-10.714c0-7.225-3.773-14.044-11.318-20.467l-23.836-20.468c-5.458-4.653-9.672-9.51-12.64-14.567
		c-2.974-5.054-4.456-11.273-4.456-18.659c0-11.077,3.208-19.662,9.632-25.764c6.417-6.1,15.169-9.149,26.246-9.149
		c10.594,0,18.901,3.413,24.92,10.233c6.019,6.825,9.51,15.611,10.475,26.365l-17.337,6.502c-1.125-7.865-2.973-13.847-5.54-17.938
		c-2.569-4.095-6.42-6.142-11.556-6.142c-4.177,0-7.548,1.366-10.112,4.096c-2.572,2.729-3.775,6.101-3.613,10.11
		c0,5.3,2.325,9.955,6.981,13.967l24.56,22.632c6.101,5.458,10.917,11.077,14.448,16.854c3.529,5.782,5.299,12.685,5.299,20.709
		c0,11.557-3.457,20.386-10.356,26.486c-6.903,6.102-16.294,9.15-28.169,9.15C561.574,1196.528,552.466,1193,545.484,1185.934z"/>
	<path fill="#D8D8D8" d="M644.804,1188.221c-4.656-5.539-7.065-13.846-7.223-24.922v-90.775h-14.686v-17.097h14.686v-40.69h25.764
		v40.69h22.395v17.097h-22.395v89.09c0,5.62,0.88,9.553,2.65,11.799c1.764,2.251,5.133,3.372,10.112,3.372
		c3.209,0,6.339-0.241,9.391-0.724v19.022c-6.424,0.963-12.365,1.445-17.82,1.445
		C657.084,1196.528,649.46,1193.758,644.804,1188.221z"/>
	<path fill="#D8D8D8" d="M708.613,1188.341c-3.212-5.456-4.816-12.198-4.816-20.228v-112.687h25.763v104.982
		c0,5.299,0.802,9.271,2.409,11.919c1.601,2.648,4.49,3.974,8.667,3.974c5.135,0,11.155-2.89,18.061-8.667v-112.208h25.763v139.175
		h-25.763v-13.726c-11.077,10.438-22.395,15.652-33.951,15.652C717.198,1196.528,711.821,1193.799,708.613,1188.341z"/>
	<path fill="#D8D8D8" d="M801.312,1055.427h26.005l17.096,111.967l17.334-111.967h25.042l-26.486,139.175h-31.541L801.312,1055.427z
		"/>
	<path fill="#D8D8D8" d="M897.145,1055.427h21.188l14.445,102.576l18.541-102.576h19.746l18.541,102.093l14.445-102.093h21.188
		l-23.115,139.175h-21.668l-19.022-98.239l-18.782,98.239h-23.115L897.145,1055.427z"/>
	<path fill="#D8D8D8" d="M1065.447,1121.404l-30.58-65.978h24.56l20.468,44.065l18.059-44.065h25.283l-31.785,69.107l32.264,70.067
		h-24.56l-21.908-47.192l-18.782,47.192h-24.318L1065.447,1121.404z"/>
	<path fill="#D8D8D8" d="M1136.478,1209.77c9.632,0,16.253-0.72,19.866-2.164c3.609-1.447,5.417-4.178,5.417-8.188
		c0-0.965-0.325-3.052-0.965-6.26l-3.13-14.448l-1.203-4.816c-8.027-33.384-17.337-72.874-27.932-118.466h26.005l18.781,104.021
		l18.059-104.021h26.003l-33.227,146.88c-2.25,9.788-6.98,16.772-14.207,20.947c-7.222,4.173-17.337,6.26-30.338,6.26h-3.13V1209.77
		z"/>
	<path fill="#D8D8D8" d="M1227.736,1177.264l42.616-102.572h-38.283v-19.265h65.974v13.966l-42.859,105.706h41.896v19.503h-69.344
		V1177.264z"/>
</g>
<g>
	<path fill="#D8D8D8" d="M51.404,1523.287c-8.109-10.434-12.161-24.4-12.161-41.897v-84.031c0-17.82,3.973-31.823,11.919-42.02
		c7.946-10.19,20.104-15.288,36.479-15.288c16.209,0,28.292,5.098,36.235,15.288c7.946,10.196,11.919,24.199,11.919,42.02v84.031
		c0,17.66-4.014,31.664-12.039,42.017c-8.028,10.354-20.067,15.532-36.116,15.532C71.586,1538.938,59.507,1533.721,51.404,1523.287z
		 M109.792,1481.631v-84.514c0-11.077-1.563-19.866-4.694-26.368c-3.13-6.499-8.952-9.751-17.456-9.751
		c-8.51,0-14.37,3.252-17.579,9.751c-3.212,6.502-4.816,15.291-4.816,26.368v84.514c0,24.078,7.464,36.116,22.395,36.116
		C102.407,1517.747,109.792,1505.709,109.792,1481.631z"/>
	<path fill="#D8D8D8" d="M255.22,1375.446c-0.323,0.479-5.176,1.604-14.567,3.371c-9.391,1.769-15.852,2.972-19.383,3.61v-19.502
		c19.584-4.653,32.989-11.717,40.211-21.189h19.505v195.033H255.22V1375.446z"/>
	<path fill="#D8D8D8" d="M379.222,1518.471l49.599-77.292c2.41-3.851,4.011-6.26,4.816-7.222c5.618-8.99,9.71-16.454,12.28-22.395
		c2.566-5.935,3.854-13.08,3.854-21.431c0-9.305-1.529-16.449-4.575-21.429c-3.052-4.973-8.031-7.464-14.93-7.464
		c-15.411,0-23.116,11.96-23.116,35.878v6.499h-25.763v-6.74c0-18.299,3.769-32.343,11.318-42.139
		c7.542-9.789,19.662-14.687,36.357-14.687c15.411,0,27.047,4.375,34.916,13.123c7.861,8.752,11.797,21.151,11.797,37.2
		c0,7.867-0.925,14.89-2.771,21.068c-1.846,6.184-4.055,11.519-6.621,16.013c-2.569,4.496-6.583,10.917-12.039,19.261L409.56,1515.1
		h61.641v21.67h-91.979V1518.471z"/>
	<path fill="#D8D8D8" d="M561.368,1525.816c-8.106-8.75-12.158-21.069-12.158-36.962v-6.502h25.522v4.336
		c0.319,9.955,2.046,17.575,5.176,22.875c3.13,5.295,8.79,7.945,16.977,7.945c8.667,0,14.567-3.011,17.697-9.03
		s4.694-14.965,4.694-26.848c0-10.913-2.008-19.461-6.019-25.644c-4.014-6.179-10.516-9.591-19.502-10.233
		c-0.646-0.157-1.849-0.241-3.613-0.241v-25.763h3.372c9.149-0.32,15.73-2.726,19.744-7.223c4.011-4.494,6.019-11.957,6.019-22.396
		c0-9.629-1.604-16.892-4.815-21.789c-3.212-4.895-8.991-7.345-17.334-7.345c-8.351,0-14.088,2.647-17.219,7.946
		c-3.13,5.298-4.857,13.086-5.176,23.356v4.093h-25.522v-6.502c0-15.89,4.052-28.17,12.158-36.84
		c8.106-8.667,20.022-13.001,35.759-13.001c15.729,0,27.646,4.375,35.755,13.123c8.103,8.752,12.158,21.068,12.158,36.958
		c0,11.399-2.488,20.709-7.464,27.933c-4.976,7.222-11.797,12.122-20.464,14.689c8.824,2.729,15.686,8.269,20.586,16.613
		c4.895,8.347,7.342,19.104,7.342,32.264c0,18.144-3.892,32.229-11.675,42.258c-7.79,10.033-19.947,15.05-36.479,15.05
		C581.312,1538.938,569.474,1534.564,561.368,1525.816z"/>
	<path fill="#D8D8D8" d="M772.892,1485.482h-56.101v-28.652l50.081-115.094h32.023v119.428h21.671v24.318h-21.671v51.287h-26.004
		V1485.482z M772.892,1461.164v-86.684l-30.097,86.684H772.892z"/>
	<path fill="#D8D8D8" d="M902.794,1524.371c-7.307-9.551-10.954-23.636-10.954-42.257h25.763c0,10.916,1.482,19.662,4.456,26.242
		c2.967,6.586,8.786,9.873,17.455,9.873c6.581,0,11.476-1.927,14.688-5.777c3.208-3.854,5.254-8.946,6.141-15.291
		c0.881-6.339,1.322-14.809,1.322-25.403c0-9.788-0.522-17.613-1.562-23.476c-1.048-5.855-3.131-10.353-6.261-13.482
		s-7.828-4.697-14.085-4.697c-4.979,0-9.353,1.528-13.123,4.574c-3.775,3.052-6.625,6.907-8.548,11.56h-21.912v-104.5h84.032v25.764
		h-60.676l-1.686,53.936c6.9-7.223,16.291-10.835,28.169-10.835c14.932,0,25.562,5.098,31.904,15.29
		c6.339,10.193,9.514,24.359,9.514,42.496c0,22.153-3.613,39.412-10.835,51.771c-7.227,12.36-19.747,18.54-37.564,18.54
		C922.177,1538.697,910.099,1533.922,902.794,1524.371z"/>
	<path fill="#D8D8D8" d="M1075.188,1521.241c-7.946-11.801-11.915-27.248-11.915-46.354v-65.732
		c0-21.027,3.688-37.805,11.072-50.322c7.383-12.521,19.663-18.782,36.84-18.782c15.087,0,26.729,4.092,34.916,12.28
		c8.185,8.185,12.437,19.907,12.76,35.153l0.241,2.89h-26.005c0-9.951-1.604-17.293-4.816-22.031
		c-3.212-4.734-8.907-7.104-17.096-7.104c-14.767,0-22.15,13.888-22.15,41.655v29.618c2.567-4.175,6.299-7.465,11.195-9.874
		c4.895-2.407,10.633-3.613,17.216-3.613c15.25,0,26.085,4.861,32.507,14.57c6.419,9.714,9.632,23.636,9.632,41.775
		c0,19.104-3.936,34.474-11.798,46.108c-7.868,11.64-20.069,17.459-36.602,17.459
		C1095.132,1538.938,1083.134,1533.038,1075.188,1521.241z M1128.403,1507.636c3.449-6.58,5.176-15.248,5.176-26.005
		c0-9.788-0.404-17.578-1.202-23.355c-0.807-5.778-2.812-10.513-6.021-14.207c-3.215-3.691-8.272-5.537-15.172-5.537
		c-4.976,0-9.35,1.285-13.122,3.851c-3.773,2.569-6.781,5.699-9.028,9.392v29.135c0,11.076,1.725,19.947,5.177,26.607
		c3.45,6.662,9.109,9.993,16.974,9.993C1119.21,1517.509,1124.95,1514.219,1128.403,1507.636z"/>
	<path fill="#D8D8D8" d="M1281.9,1361.963h-52.25v-20.227h78.012v12.521l-36.115,182.512h-24.801L1281.9,1361.963z"/>
	<path fill="#D8D8D8" d="M1391.933,1524.249c-7.545-9.788-11.314-23.917-11.314-42.376c0-12.361,2.046-22.232,6.138-29.617
		c4.096-7.382,10.07-13.482,17.939-18.299c-14.448-9.633-21.671-24.159-21.671-43.583c0-15.894,3.77-28.251,11.317-37.081
		c7.542-8.826,19.021-13.242,34.43-13.242c15.252,0,26.609,4.416,34.073,13.242c7.465,8.83,11.196,21.188,11.196,37.081
		c0,10.438-1.846,19.143-5.537,26.126c-3.694,6.981-9.071,12.804-16.133,17.457c7.863,4.975,13.883,11.157,18.057,18.54
		c4.174,7.385,6.261,17.177,6.261,29.376c0,18.298-3.772,32.384-11.315,42.257c-7.548,9.871-19.742,14.809-36.602,14.809
		C1411.758,1538.938,1399.479,1534.044,1391.933,1524.249z M1446.833,1508.961c3.372-6.342,5.055-15.209,5.055-26.608
		c0-10.433-1.806-18.938-5.417-25.522c-3.61-6.58-9.511-9.952-17.699-10.114c-8.346,0.162-14.366,3.534-18.057,10.114
		c-3.695,6.584-5.537,15.09-5.537,25.522c0,11.399,1.724,20.267,5.176,26.608c3.45,6.343,9.589,9.51,18.418,9.51
		C1437.442,1518.471,1443.462,1515.304,1446.833,1508.961z M1448.758,1388.93c0-8.667-1.564-15.652-4.694-20.947
		c-3.131-5.299-8.229-7.947-15.292-7.947c-7.062,0-12.242,2.648-15.528,7.947c-3.293,5.295-4.936,12.28-4.936,20.947
		c0,9.632,1.522,17.541,4.574,23.717c3.046,6.182,8.345,9.353,15.89,9.51C1442.096,1421.999,1448.758,1410.923,1448.758,1388.93z"/>
	<path fill="#D8D8D8" d="M1565.055,1526.418c-8.188-8.346-12.443-20.305-12.763-35.878v-2.169h25.762
		c0,9.955,1.646,17.301,4.937,22.034c3.29,4.735,9.107,7.104,17.459,7.104c14.445,0,21.668-13.884,21.668-41.655v-29.617
		c-2.57,4.177-6.221,7.464-10.955,9.87c-4.737,2.41-10.557,3.612-17.457,3.612c-15.253,0-26.044-4.853-32.387-14.566
		c-6.341-9.711-9.51-23.636-9.51-41.774c0-19.102,3.934-34.434,11.798-45.989c7.865-11.56,20.066-17.338,36.601-17.338
		c16.05,0,28.051,5.897,35.997,17.697c7.946,11.798,11.92,27.171,11.92,46.109v65.494c0,21.031-3.698,37.886-11.077,50.564
		c-7.385,12.681-19.665,19.022-36.84,19.022C1584.954,1538.938,1573.238,1534.766,1565.055,1526.418z M1622.117,1426.73v-28.893
		c0-24.397-7.305-36.599-21.91-36.599c-8.03,0-13.768,3.334-17.217,9.993c-3.453,6.661-5.177,15.291-5.177,25.885
		c0,9.792,0.397,17.575,1.203,23.356c0.802,5.778,2.808,10.512,6.022,14.203c3.209,3.695,8.263,5.541,15.168,5.541
		C1609.677,1440.218,1616.979,1435.724,1622.117,1426.73z"/>
</g>
</svg>
