<?xml version="1.0" encoding="utf-8"?>
<!-- Generator: Adobe Illustrator 16.0.0, SVG Export Plug-In . SVG Version: 6.00 Build 0)  -->
<!DOCTYPE svg PUBLIC "-//W3C//DTD SVG 1.1//EN" "http://www.w3.org/Graphics/SVG/1.1/DTD/svg11.dtd">
<svg version="1.1" id="Capa_1" xmlns="http://www.w3.org/2000/svg" xmlns:xlink="http://www.w3.org/1999/xlink" x="0px" y="0px"
	 width="2109.822px" height="212.119px" viewBox="0 0 2109.822 212.119" enable-background="new 0 0 2109.822 212.119"
	 xml:space="preserve">
<g>
	<path fill="#738B8E" d="M124.888,87.361c0,8.333-1.449,15.429-4.348,21.285c-2.898,5.858-6.855,10.597-11.865,14.22
		c-5.013,3.623-10.869,6.281-17.571,7.971c-6.703,1.692-13.92,2.536-21.647,2.536v28.803H30.872V41.35h38.584
		c7.727,0,14.945,0.847,21.647,2.536c6.703,1.692,12.559,4.348,17.571,7.971c5.01,3.623,8.967,8.363,11.865,14.22
		C123.438,71.936,124.888,79.028,124.888,87.361z M69.456,100.767h1.63c5.072,0,8.724-1.178,10.959-3.532
		c2.233-2.355,3.352-5.645,3.352-9.873c0-4.226-1.118-7.518-3.352-9.873c-2.236-2.354-5.887-3.532-10.959-3.532h-1.63V100.767z"/>
	<path fill="#738B8E" d="M133.942,41.35h38.584v41.121h21.557V41.35h38.766v120.826h-38.766v-44.744h-21.557v44.744h-38.584V41.35z"
		/>
	<path fill="#738B8E" d="M242.812,101.854c0-8.695,1.659-16.906,4.981-24.637c3.32-7.727,7.849-14.461,13.586-20.198
		c5.734-5.734,12.468-10.263,20.198-13.586c7.727-3.32,15.941-4.981,24.636-4.981c8.695,0,16.906,1.661,24.636,4.981
		c7.727,3.323,14.461,7.852,20.198,13.586c5.734,5.737,10.263,12.472,13.586,20.198c3.32,7.73,4.982,15.941,4.982,24.637
		s-1.662,16.909-4.982,24.636c-3.323,7.73-7.852,14.464-13.586,20.198c-5.737,5.737-12.471,10.266-20.198,13.586
		c-7.73,3.32-15.941,4.981-24.636,4.981c-8.695,0-16.909-1.661-24.636-4.981c-7.73-3.32-14.463-7.849-20.198-13.586
		c-5.737-5.734-10.266-12.468-13.586-20.198C244.471,118.763,242.812,110.549,242.812,101.854z M280.854,101.854
		c0,3.504,0.663,6.793,1.993,9.872c1.328,3.08,3.139,5.769,5.435,8.062c2.292,2.295,4.981,4.106,8.061,5.435
		c3.08,1.33,6.369,1.992,9.873,1.992c3.501,0,6.793-0.662,9.873-1.992c3.08-1.328,5.766-3.14,8.062-5.435
		c2.292-2.293,4.104-4.981,5.434-8.062c1.328-3.079,1.993-6.368,1.993-9.872c0-3.502-0.665-6.793-1.993-9.873
		c-1.33-3.079-3.142-5.766-5.434-8.061c-2.296-2.293-4.982-4.104-8.062-5.435c-3.08-1.328-6.371-1.993-9.873-1.993
		c-3.504,0-6.793,0.665-9.873,1.993c-3.08,1.33-5.769,3.142-8.061,5.435c-2.295,2.295-4.107,4.981-5.435,8.061
		C281.516,95.061,280.854,98.352,280.854,101.854z"/>
	<path fill="#738B8E" d="M376.317,124.678c2.655,0.847,5.435,1.512,8.333,1.993c2.414,0.605,5.163,1.087,8.242,1.449
		s6.187,0.543,9.329,0.543c5.553,0,8.333-2.052,8.333-6.159c0-1.567-0.846-3.17-2.536-4.8c-1.693-1.631-3.835-3.442-6.431-5.435
		c-2.598-1.993-5.375-4.195-8.333-6.612c-2.961-2.414-5.737-5.19-8.333-8.333c-2.598-3.139-4.741-6.671-6.431-10.597
		c-1.693-3.923-2.536-8.424-2.536-13.496c0-5.675,1.024-10.688,3.08-15.035c2.052-4.348,4.891-7.971,8.514-10.869
		c3.623-2.898,7.88-5.101,12.771-6.611c4.891-1.509,10.113-2.265,15.669-2.265c2.898,0,5.797,0.153,8.695,0.453
		c2.898,0.303,5.494,0.574,7.79,0.814c2.655,0.362,5.253,0.725,7.789,1.087v33.875c-0.968-0.118-2.055-0.24-3.261-0.362
		c-0.968-0.118-2.055-0.24-3.26-0.362c-1.209-0.118-2.477-0.181-3.804-0.181c-0.725,0-1.63,0.031-2.717,0.091
		c-1.087,0.062-2.114,0.212-3.08,0.452c-0.968,0.244-1.812,0.665-2.536,1.269c-0.725,0.605-1.087,1.449-1.087,2.536
		c0,0.968,0.815,2.174,2.445,3.623c1.63,1.449,3.623,3.142,5.978,5.072c2.355,1.933,4.951,4.166,7.79,6.702
		c2.836,2.536,5.435,5.435,7.79,8.695c2.354,3.261,4.347,6.945,5.978,11.05c1.63,4.107,2.446,8.695,2.446,13.768
		c0,5.315-0.846,10.297-2.536,14.944c-1.693,4.65-4.319,8.695-7.88,12.137c-3.563,3.442-8.124,6.159-13.677,8.152
		c-5.556,1.992-12.137,2.988-19.745,2.988c-4.591,0-8.848-0.212-12.771-0.634c-3.926-0.425-7.399-0.937-10.417-1.54
		c-3.504-0.605-6.702-1.327-9.601-2.173V124.678z"/>
	<path fill="#738B8E" d="M555.11,87.361c0,8.333-1.449,15.429-4.348,21.285c-2.898,5.858-6.855,10.597-11.865,14.22
		c-5.013,3.623-10.869,6.281-17.571,7.971c-6.703,1.692-13.92,2.536-21.647,2.536v28.803h-38.584V41.35h38.584
		c7.727,0,14.945,0.847,21.647,2.536c6.703,1.692,12.559,4.348,17.571,7.971c5.01,3.623,8.967,8.363,11.865,14.22
		C553.661,71.936,555.11,79.028,555.11,87.361z M499.679,100.767h1.63c5.072,0,8.724-1.178,10.959-3.532
		c2.233-2.355,3.352-5.645,3.352-9.873c0-4.226-1.118-7.518-3.352-9.873c-2.236-2.354-5.887-3.532-10.959-3.532h-1.63V100.767z"/>
	<path fill="#738B8E" d="M564.165,41.35h38.584v41.121h21.557V41.35h38.766v120.826h-38.766v-44.744H602.75v44.744h-38.584V41.35z"
		/>
	<path fill="#738B8E" d="M711.62,41.35h28.984l45.831,120.826h-38.041l-3.985-10.869h-36.592l-3.985,10.869h-38.042L711.62,41.35z
		 M734.263,124.678l-8.151-21.194l-8.152,21.194H734.263z"/>
	<path fill="#738B8E" d="M805.091,73.051H782.81V41.35h84.415v31.701h-22.281v89.125h-39.853V73.051z"/>
	<path fill="#738B8E" d="M873.562,41.35h71.191v31.701h-32.606v13.405h32.063v30.07h-32.063v13.948h33.875v31.701h-72.46V41.35z"/>
	<path fill="#738B8E" d="M1009.061,73.051h-22.281V41.35h84.415v31.701h-22.281v89.125h-39.853V73.051z"/>
	<path fill="#738B8E" d="M1105.067,110.187l-37.498-68.837h42.933l13.948,25.542l13.768-25.542h42.932l-37.497,68.837v51.989
		h-38.585V110.187z"/>
	<path fill="#738B8E" d="M1277.881,87.361c0,8.333-1.449,15.429-4.348,21.285c-2.898,5.858-6.855,10.597-11.865,14.22
		c-5.013,3.623-10.869,6.281-17.571,7.971c-6.702,1.692-13.92,2.536-21.647,2.536v28.803h-38.585V41.35h38.585
		c7.728,0,14.945,0.847,21.647,2.536c6.702,1.692,12.559,4.348,17.571,7.971c5.01,3.623,8.967,8.363,11.865,14.22
		C1276.432,71.936,1277.881,79.028,1277.881,87.361z M1222.449,100.767h1.631c5.071,0,8.723-1.178,10.959-3.532
		c2.233-2.355,3.352-5.645,3.352-9.873c0-4.226-1.118-7.518-3.352-9.873c-2.236-2.354-5.888-3.532-10.959-3.532h-1.631V100.767z"/>
	<path fill="#738B8E" d="M1284.219,101.854c0-8.695,1.658-16.906,4.981-24.637c3.32-7.727,7.849-14.461,13.586-20.198
		c5.734-5.734,12.469-10.263,20.198-13.586c7.728-3.32,15.941-4.981,24.637-4.981c8.694,0,16.906,1.661,24.636,4.981
		c7.728,3.323,14.461,7.852,20.198,13.586c5.734,5.737,10.263,12.472,13.586,20.198c3.32,7.73,4.981,15.941,4.981,24.637
		s-1.661,16.909-4.981,24.636c-3.323,7.73-7.852,14.464-13.586,20.198c-5.737,5.737-12.471,10.266-20.198,13.586
		c-7.729,3.32-15.941,4.981-24.636,4.981c-8.695,0-16.909-1.661-24.637-4.981c-7.729-3.32-14.464-7.849-20.198-13.586
		c-5.737-5.734-10.266-12.468-13.586-20.198C1285.877,118.763,1284.219,110.549,1284.219,101.854z M1322.26,101.854
		c0,3.504,0.662,6.793,1.993,9.872c1.327,3.08,3.139,5.769,5.435,8.062c2.292,2.295,4.981,4.106,8.061,5.435
		c3.08,1.33,6.368,1.992,9.873,1.992c3.501,0,6.793-0.662,9.872-1.992c3.08-1.328,5.766-3.14,8.062-5.435
		c2.292-2.293,4.104-4.981,5.435-8.062c1.327-3.079,1.992-6.368,1.992-9.872c0-3.502-0.665-6.793-1.992-9.873
		c-1.331-3.079-3.143-5.766-5.435-8.061c-2.296-2.293-4.981-4.104-8.062-5.435c-3.079-1.328-6.371-1.993-9.872-1.993
		c-3.505,0-6.793,0.665-9.873,1.993c-3.079,1.33-5.769,3.142-8.061,5.435c-2.296,2.295-4.107,4.981-5.435,8.061
		C1322.922,95.061,1322.26,98.352,1322.26,101.854z"/>
	<path fill="#738B8E" d="M1497.972,82.471c-2.174-1.931-4.891-3.411-8.151-4.438c-3.261-1.024-6.462-1.54-9.601-1.54
		c-3.505,0-6.703,0.634-9.602,1.902c-2.898,1.268-5.406,3.021-7.518,5.253c-2.114,2.236-3.775,4.923-4.981,8.062
		c-1.208,3.142-1.812,6.521-1.812,10.145s0.662,7.005,1.993,10.145c1.327,3.142,3.139,5.827,5.435,8.061
		c2.292,2.236,4.981,3.985,8.061,5.254c3.08,1.268,6.368,1.901,9.873,1.901c4.104,0,7.849-0.874,11.23-2.626
		c3.38-1.75,6.278-4.136,8.695-7.156h-10.869v-25.36h46.556v40.215c-2.779,4.953-6.1,9.451-9.963,13.496
		c-3.866,4.047-8.184,7.518-12.952,10.416c-4.772,2.898-9.936,5.134-15.488,6.702c-5.557,1.568-11.294,2.354-17.209,2.354
		c-8.695,0-16.909-1.63-24.637-4.891c-7.729-3.261-14.464-7.728-20.198-13.405c-5.737-5.675-10.266-12.377-13.586-20.107
		c-3.323-7.727-4.981-16.06-4.981-24.998c0-8.695,1.568-16.906,4.71-24.637c3.139-7.727,7.455-14.461,12.952-20.198
		c5.494-5.734,12.015-10.263,19.563-13.586c7.546-3.32,15.67-4.981,24.365-4.981c6.762,0,12.618,0.665,17.571,1.992
		c4.95,1.331,9.116,2.84,12.499,4.529c3.985,1.933,7.306,4.048,9.963,6.34L1497.972,82.471z"/>
	<path fill="#738B8E" d="M1547.242,41.35h41.665c7.727,0,14.882,1.027,21.466,3.079c6.581,2.056,12.287,5.072,17.118,9.058
		c4.829,3.985,8.604,8.907,11.322,14.764c2.717,5.859,4.075,12.59,4.075,20.198c0,6.04-0.846,11.172-2.536,15.397
		c-1.692,4.229-3.563,7.73-5.615,10.507c-2.417,3.142-5.135,5.797-8.151,7.971l22.644,39.853h-45.287l-18.115-30.614v30.614h-38.585
		V41.35z M1585.827,100.767h1.993c4.588,0,8.482-1.024,11.684-3.08c3.198-2.052,4.801-5.493,4.801-10.325
		c0-4.829-1.603-8.271-4.801-10.325c-3.201-2.053-7.096-3.08-11.684-3.08h-1.993V100.767z"/>
	<path fill="#738B8E" d="M1688.72,41.35h28.983l45.831,120.826h-38.042l-3.985-10.869h-36.592l-3.985,10.869h-38.041L1688.72,41.35z
		 M1711.363,124.678l-8.152-21.194l-8.151,21.194H1711.363z"/>
	<path fill="#738B8E" d="M1860.266,87.361c0,8.333-1.449,15.429-4.348,21.285c-2.898,5.858-6.855,10.597-11.865,14.22
		c-5.013,3.623-10.869,6.281-17.571,7.971c-6.702,1.692-13.92,2.536-21.647,2.536v28.803h-38.585V41.35h38.585
		c7.728,0,14.945,0.847,21.647,2.536c6.702,1.692,12.559,4.348,17.571,7.971c5.01,3.623,8.967,8.363,11.865,14.22
		C1858.816,71.936,1860.266,79.028,1860.266,87.361z M1804.834,100.767h1.631c5.071,0,8.723-1.178,10.959-3.532
		c2.233-2.355,3.352-5.645,3.352-9.873c0-4.226-1.118-7.518-3.352-9.873c-2.236-2.354-5.888-3.532-10.959-3.532h-1.631V100.767z"/>
	<path fill="#738B8E" d="M1869.319,41.35h38.585v41.121h21.557V41.35h38.766v120.826h-38.766v-44.744h-21.557v44.744h-38.585V41.35z
		"/>
	<path fill="#738B8E" d="M2008.441,110.187l-37.498-68.837h42.933l13.948,25.542l13.768-25.542h42.932l-37.497,68.837v51.989
		h-38.585V110.187z"/>
</g>
</svg>
