<?xml version="1.0" encoding="utf-8"?>
<!-- Generator: Adobe Illustrator 16.0.0, SVG Export Plug-In . SVG Version: 6.00 Build 0)  -->
<!DOCTYPE svg PUBLIC "-//W3C//DTD SVG 1.1//EN" "http://www.w3.org/Graphics/SVG/1.1/DTD/svg11.dtd">
<svg version="1.1" id="Capa_1" xmlns="http://www.w3.org/2000/svg" xmlns:xlink="http://www.w3.org/1999/xlink" x="0px" y="0px"
	 width="1666px" height="1666px" viewBox="0 0 1666 1666" enable-background="new 0 0 1666 1666" xml:space="preserve">
<rect x="61.5" y="53.5" fill="none" width="1544" height="1308"/>
<g enable-background="new    ">
	<path fill="#9FA4A5" d="M127.672,53.498h45.44l71.852,189.428h-59.64l-6.248-17.04h-57.368l-6.248,17.04H55.82L127.672,53.498z
		 M163.172,184.138l-12.78-33.228l-12.78,33.228H163.172z"/>
</g>
<g enable-background="new    ">
	<path fill="#9FA4A5" d="M315.283,53.498h74.124c9.465,0,18.127,1.092,25.986,3.266c7.854,2.179,14.577,5.396,20.164,9.656
		c5.583,4.26,9.94,9.562,13.064,15.904c3.124,6.345,4.686,13.773,4.686,22.294c0,6.062-0.759,11.218-2.272,15.478
		c-1.518,4.26-3.124,7.811-4.828,10.65c-2.085,3.407-4.451,6.248-7.1,8.52c4.162,2.653,7.952,6.062,11.36,10.225
		c2.84,3.599,5.44,8.143,7.81,13.632c2.365,5.493,3.55,12.212,3.55,20.164c0,9.088-1.611,17.323-4.828,24.708
		c-3.222,7.384-7.81,13.681-13.774,18.886c-5.964,5.21-13.255,9.186-21.868,11.928c-8.618,2.747-18.225,4.118-28.826,4.118h-77.248
		V53.498z M394.803,111.149c0-8.706-4.735-13.063-14.2-13.063h-6.816v26.128h6.816C390.068,124.214,394.803,119.86,394.803,111.149z
		 M380.603,198.338c14.387,0,21.584-5.489,21.584-16.472c0-10.979-7.198-16.473-21.584-16.473h-6.816v32.944H380.603z"/>
</g>
<g enable-background="new    ">
	<path fill="#9FA4A5" d="M536.405,148.354c0-15.145,2.649-28.826,7.952-41.038c5.298-12.212,12.496-22.671,21.584-31.382
		c9.088-8.706,19.689-15.38,31.808-20.021c12.114-4.638,24.992-6.958,38.624-6.958c10.792,0,20.399,1.042,28.826,3.124
		c8.422,2.085,15.664,4.45,21.726,7.1c7.002,3.031,13.064,6.346,18.176,9.94l-29.82,52.54c-3.031-2.272-6.346-4.447-9.94-6.532
		c-3.222-1.514-7.056-2.982-11.502-4.402c-4.451-1.42-9.514-2.13-15.194-2.13c-5.871,0-11.267,1.043-16.188,3.124
		c-4.926,2.086-9.23,4.926-12.922,8.52c-3.692,3.6-6.581,7.811-8.662,12.639c-2.085,4.828-3.124,9.988-3.124,15.478
		c0,5.494,1.087,10.65,3.266,15.479c2.174,4.828,5.156,9.043,8.946,12.638c3.785,3.599,8.236,6.438,13.348,8.521
		c5.112,2.085,10.694,3.124,16.756,3.124c6.057,0,11.453-0.755,16.188-2.272c4.73-1.514,8.707-3.217,11.928-5.112
		c3.785-2.081,7.1-4.544,9.94-7.384l29.82,52.54c-5.112,4.167-11.173,7.858-18.176,11.076c-6.062,2.653-13.348,5.112-21.868,7.384
		c-8.52,2.272-18.273,3.408-29.252,3.408c-14.768,0-28.4-2.414-40.896-7.242s-23.288-11.595-32.376-20.306
		c-9.088-8.707-16.188-19.17-21.3-31.382C538.961,176.611,536.405,163.122,536.405,148.354z"/>
</g>
<g enable-background="new    ">
	<path fill="#9FA4A5" d="M781.102,242.926V53.498h52.541c17.794,0,33.653,1.987,47.569,5.964
		c13.916,3.976,25.653,9.939,35.216,17.892c9.559,7.952,16.85,17.848,21.868,29.679c5.015,11.834,7.526,25.516,7.526,41.037
		c0,15.527-2.512,29.208-7.526,41.038c-5.019,11.835-12.31,21.727-21.868,29.679c-9.562,7.951-21.3,13.965-35.216,18.033
		c-13.916,4.074-29.775,6.106-47.569,6.106H781.102z M841.594,188.966c14.2,0,25.179-3.359,32.944-10.082
		c7.761-6.719,11.644-16.991,11.644-30.814c0-13.818-3.883-24.042-11.644-30.672c-7.766-6.625-18.744-9.939-32.944-9.939V188.966z"
		/>
</g>
<g enable-background="new    ">
	<path fill="#9FA4A5" d="M1027.502,53.498h111.611v49.7h-51.119v21.016h50.268v47.144h-50.268v21.868h53.107v49.7h-113.6V53.498z"/>
</g>
<g enable-background="new    ">
	<path fill="#9FA4A5" d="M1224.201,53.498h111.611v49.7h-51.119v21.016h50.268v47.144h-50.268v71.568h-60.492V53.498z"/>
</g>
<g enable-background="new    ">
	<path fill="#9FA4A5" d="M1538.193,117.966c-3.408-3.026-7.668-5.348-12.779-6.958c-5.112-1.606-10.131-2.414-15.053-2.414
		c-5.493,0-10.508,0.994-15.052,2.982c-4.544,1.987-8.476,4.734-11.786,8.235c-3.314,3.506-5.92,7.717-7.81,12.639
		c-1.896,4.925-2.841,10.224-2.841,15.903c0,5.681,1.039,10.983,3.125,15.904c2.081,4.926,4.921,9.137,8.52,12.638
		c3.595,3.506,7.811,6.248,12.639,8.236s9.984,2.982,15.478,2.982c6.435,0,12.306-1.372,17.608-4.118
		c5.298-2.743,9.842-6.483,13.631-11.219h-17.039v-39.76h72.988v63.048c-4.358,7.766-9.563,14.817-15.621,21.158
		c-6.061,6.346-12.828,11.786-20.306,16.33c-7.481,4.544-15.575,8.05-24.282,10.508c-8.711,2.459-17.705,3.692-26.979,3.692
		c-13.632,0-26.51-2.556-38.624-7.668c-12.119-5.112-22.676-12.114-31.666-21.017c-8.994-8.896-16.095-19.404-21.3-31.523
		c-5.21-12.114-7.81-25.179-7.81-39.192c0-13.632,2.457-26.505,7.383-38.624c4.922-12.114,11.689-22.671,20.307-31.666
		c8.613-8.99,18.837-16.09,30.672-21.3c11.83-5.205,24.566-7.81,38.198-7.81c10.601,0,19.782,1.042,27.548,3.124
		c7.762,2.085,14.293,4.45,19.596,7.1c6.248,3.031,11.453,6.346,15.62,9.94L1538.193,117.966z"/>
</g>
<g enable-background="new    ">
	<path fill="#9FA4A5" d="M71.44,394.298h60.492v64.468h33.796v-64.468h60.776v189.428h-60.776v-70.148h-33.796v70.148H71.44V394.298
		z"/>
</g>
<g enable-background="new    ">
	<path fill="#9FA4A5" d="M325.083,394.298h64.184v189.428h-64.184V394.298z"/>
</g>
<g enable-background="new    ">
	<path fill="#9FA4A5" d="M477.902,538.285h20.732c6.057,0,10.126-1.136,12.212-3.407c2.082-2.272,3.124-5.489,3.124-9.656V394.298
		h62.48v141.432c0,17.608-4.024,30.011-12.07,37.204c-8.05,7.197-20.874,10.792-38.482,10.792h-47.996V538.285z"/>
</g>
<g enable-background="new    ">
	<path fill="#9FA4A5" d="M674.177,394.298h61.344v43.735l35.784-43.735h74.125l-66.74,86.62l70.148,102.808h-72.989l-40.328-58.504
		v58.504h-61.344V394.298z"/>
</g>
<g enable-background="new    ">
	<path fill="#9FA4A5" d="M933.215,394.298h63.048v139.728h52.257v49.7H933.215V394.298z"/>
</g>
<g enable-background="new    ">
	<path fill="#9FA4A5" d="M1137.156,394.298h49.984l49.416,72.704l49.133-72.704h49.983v189.428h-60.492v-68.16l-38.624,56.8
		l-38.908-56.8v68.16h-60.492V394.298z"/>
</g>
<g enable-background="new    ">
	<path fill="#9FA4A5" d="M1434.251,394.298h49.7l52.256,72.987v-72.987h59.355v189.428h-49.983l-51.972-72.704v72.704h-59.356
		V394.298z"/>
</g>
<g enable-background="new    ">
	<path fill="#9FA4A5" d="M71.44,735.098h49.7l52.256,72.987v-72.987h59.356v189.428h-49.984l-51.972-72.704v72.704H71.44V735.098z
		 M106.656,724.021c0-13.632,2.743-23.381,8.236-29.252c5.489-5.866,12.589-8.804,21.3-8.804c3.408,0,6.674,0.475,9.798,1.42
		c3.124,0.949,5.964,1.987,8.52,3.124c2.556,1.136,4.828,2.179,6.816,3.124c1.988,0.949,3.736,1.42,5.254,1.42
		c4.353,0,6.532-3.026,6.532-9.088h24.14c0,13.632-2.747,23.385-8.236,29.252c-5.494,5.87-12.594,8.804-21.3,8.804
		c-3.408,0-6.674-0.471-9.798-1.42c-3.124-0.945-5.964-1.939-8.52-2.982c-2.556-1.038-4.877-2.032-6.958-2.981
		c-2.085-0.945-3.79-1.42-5.112-1.42c-4.358,0-6.532,2.938-6.532,8.804H106.656z"/>
</g>
<g enable-background="new    ">
	<path fill="#9FA4A5" d="M307.567,829.953c0-13.632,2.6-26.505,7.81-38.624c5.205-12.114,12.305-22.671,21.3-31.666
		c8.99-8.99,19.547-16.09,31.666-21.3c12.114-5.205,24.992-7.81,38.624-7.81s26.505,2.604,38.624,7.81
		c12.114,5.21,22.671,12.31,31.666,21.3c8.99,8.995,16.09,19.552,21.3,31.666c5.205,12.119,7.81,24.992,7.81,38.624
		s-2.605,26.51-7.81,38.624c-5.209,12.119-12.31,22.676-21.3,31.666c-8.995,8.995-19.552,16.095-31.666,21.3
		c-12.119,5.206-24.992,7.811-38.624,7.811s-26.51-2.604-38.624-7.811c-12.119-5.205-22.676-12.305-31.666-21.3
		c-8.995-8.99-16.095-19.547-21.3-31.666C310.167,856.463,307.567,843.585,307.567,829.953z M367.207,829.953
		c0,5.494,1.039,10.65,3.124,15.479c2.082,4.828,4.921,9.043,8.52,12.638c3.595,3.599,7.81,6.438,12.638,8.521
		c4.828,2.085,9.984,3.124,15.478,3.124c5.489,0,10.65-1.039,15.478-3.124c4.828-2.082,9.039-4.922,12.638-8.521
		c3.595-3.595,6.435-7.81,8.52-12.638c2.082-4.828,3.124-9.984,3.124-15.479c0-5.489-1.042-10.649-3.124-15.478
		c-2.085-4.828-4.925-9.039-8.52-12.639c-3.599-3.594-7.81-6.434-12.638-8.52c-4.828-2.081-9.989-3.124-15.478-3.124
		c-5.494,0-10.65,1.043-15.478,3.124c-4.828,2.086-9.043,4.926-12.638,8.52c-3.599,3.6-6.438,7.811-8.52,12.639
		C368.245,819.304,367.207,824.464,367.207,829.953z"/>
</g>
<g enable-background="new    ">
	<path fill="#9FA4A5" d="M728.579,807.233c0,13.064-2.272,24.188-6.816,33.37c-4.544,9.186-10.748,16.614-18.602,22.294
		c-7.859,5.68-17.04,9.847-27.548,12.496c-10.508,2.653-21.824,3.976-33.938,3.976v45.156h-60.492V735.098h60.492
		c12.114,0,23.43,1.326,33.938,3.976c10.508,2.653,19.689,6.816,27.548,12.496c7.854,5.68,14.058,13.113,18.602,22.294
		C726.307,783.049,728.579,794.169,728.579,807.233z M641.675,828.249h2.556c7.952,0,13.677-1.846,17.182-5.538
		c3.501-3.691,5.254-8.848,5.254-15.478c0-6.625-1.752-11.786-5.254-15.478c-3.505-3.692-9.23-5.538-17.182-5.538h-2.556V828.249z"
		/>
</g>
<g enable-background="new    ">
	<path fill="#9FA4A5" d="M797.714,829.953c0-13.632,2.6-26.505,7.81-38.624c5.205-12.114,12.305-22.671,21.3-31.666
		c8.99-8.99,19.547-16.09,31.666-21.3c12.114-5.205,24.992-7.81,38.624-7.81s26.505,2.604,38.624,7.81
		c12.114,5.21,22.671,12.31,31.666,21.3c8.99,8.995,16.09,19.552,21.3,31.666c5.205,12.119,7.81,24.992,7.81,38.624
		c0,8.144-0.949,16.002-2.84,23.572c-1.895,7.575-4.543,14.675-7.951,21.3h17.607l-25.561,49.7h-50.268
		c-10.037,3.217-20.164,4.828-30.388,4.828c-13.632,0-26.51-2.604-38.624-7.811c-12.119-5.205-22.676-12.305-31.666-21.3
		c-8.995-8.99-16.095-19.547-21.3-31.666C800.314,856.463,797.714,843.585,797.714,829.953z M857.354,829.953
		c0,5.494,1.039,10.65,3.125,15.479c2.081,4.828,4.921,9.043,8.52,12.638c3.595,3.599,7.811,6.438,12.639,8.521
		c4.828,2.085,9.984,3.124,15.478,3.124c5.489,0,10.649-1.039,15.478-3.124c4.828-2.082,9.039-4.922,12.639-8.521
		c3.594-3.595,6.434-7.81,8.52-12.638c2.082-4.828,3.124-9.984,3.124-15.479c0-5.489-1.042-10.649-3.124-15.478
		c-2.086-4.828-4.926-9.039-8.52-12.639c-3.6-3.594-7.811-6.434-12.639-8.52c-4.828-2.081-9.988-3.124-15.478-3.124
		c-5.493,0-10.649,1.043-15.478,3.124c-4.828,2.086-9.044,4.926-12.639,8.52c-3.599,3.6-6.438,7.811-8.52,12.639
		C858.393,819.304,857.354,824.464,857.354,829.953z"/>
</g>
<g enable-background="new    ">
	<path fill="#9FA4A5" d="M1071.331,735.098h65.319c12.115,0,23.333,1.61,33.654,4.828c10.317,3.222,19.264,7.951,26.838,14.199
		c7.57,6.248,13.49,13.965,17.75,23.146c4.261,9.186,6.391,19.738,6.391,31.666c0,9.47-1.326,17.515-3.977,24.14
		c-2.653,6.63-5.586,12.119-8.804,16.473c-3.79,4.925-8.05,9.088-12.78,12.495l35.5,62.48h-71l-28.399-47.996v47.996h-60.492
		V735.098z M1131.823,828.249h3.124c7.193,0,13.299-1.606,18.318-4.827c5.014-3.218,7.525-8.613,7.525-16.188
		c0-7.57-2.512-12.967-7.525-16.188c-5.02-3.217-11.125-4.827-18.318-4.827h-3.124V828.249z"/>
</g>
<g enable-background="new    ">
	<path fill="#9FA4A5" d="M1290.988,865.737c4.162,1.327,8.52,2.37,13.064,3.124c3.785,0.949,8.094,1.704,12.922,2.272
		c4.828,0.567,9.699,0.852,14.625,0.852c8.707,0,13.064-3.217,13.064-9.656c0-2.458-1.326-4.97-3.977-7.525
		c-2.652-2.557-6.012-5.396-10.082-8.521c-4.072-3.124-8.426-6.576-13.063-10.366c-4.642-3.785-8.995-8.138-13.063-13.063
		c-4.074-4.921-7.434-10.459-10.082-16.614c-2.654-6.15-3.977-13.206-3.977-21.158c0-8.896,1.606-16.756,4.828-23.571
		c3.217-6.816,7.668-12.496,13.348-17.04c5.681-4.544,12.354-7.997,20.022-10.366c7.668-2.365,15.854-3.55,24.565-3.55
		c4.545,0,9.088,0.239,13.633,0.71c4.544,0.475,8.613,0.9,12.212,1.277c4.162,0.568,8.235,1.137,12.212,1.704v53.108
		c-1.518-0.187-3.222-0.377-5.112-0.568c-1.518-0.187-3.222-0.377-5.112-0.567c-1.895-0.187-3.883-0.284-5.963-0.284
		c-1.137,0-2.557,0.049-4.261,0.142c-1.704,0.098-3.314,0.333-4.827,0.71c-1.519,0.382-2.841,1.043-3.977,1.988
		c-1.137,0.949-1.704,2.271-1.704,3.976c0,1.518,1.278,3.408,3.834,5.681c2.556,2.271,5.681,4.926,9.372,7.952
		c3.691,3.03,7.762,6.531,12.212,10.508c4.446,3.976,8.521,8.52,12.212,13.632s6.816,10.89,9.372,17.324
		c2.556,6.438,3.834,13.632,3.834,21.584c0,8.333-1.327,16.144-3.976,23.43c-2.654,7.291-6.771,13.632-12.354,19.028
		c-5.587,5.396-12.735,9.655-21.442,12.779c-8.711,3.124-19.027,4.687-30.955,4.687c-7.198,0-13.872-0.333-20.022-0.994
		c-6.155-0.666-11.6-1.469-16.33-2.414c-5.493-0.949-10.508-2.081-15.052-3.408V865.737z"/>
</g>
<g enable-background="new    ">
	<path fill="#9FA4A5" d="M1508.09,784.798h-34.933v-49.7h132.345v49.7h-34.933v139.728h-62.479V784.798z"/>
</g>
<g enable-background="new    ">
	<path fill="#9FA4A5" d="M148.972,1270.154c-11.928,0-22.72-1.518-32.376-4.544c-9.656-3.026-17.892-7.57-24.708-13.632
		c-6.816-6.058-12.07-13.726-15.762-23.004c-3.692-9.274-5.538-20.164-5.538-32.66v-120.416h60.492v117.859
		c0,6.63,1.371,11.693,4.118,15.194c2.742,3.506,7.335,5.254,13.774,5.254c6.434,0,11.027-1.748,13.774-5.254
		c2.742-3.501,4.118-8.564,4.118-15.194v-117.859h60.776v120.416c0,12.496-1.846,23.386-5.538,32.66
		c-3.692,9.278-8.995,16.946-15.904,23.004c-6.914,6.062-15.194,10.605-24.85,13.632
		C171.692,1268.637,160.9,1270.154,148.972,1270.154z"/>
</g>
<g enable-background="new    ">
	<path fill="#9FA4A5" d="M389.383,1075.898l32.092,82.359l32.376-82.359h66.172l-73.84,189.428h-49.132l-73.84-189.428H389.383z"/>
</g>
<g enable-background="new    ">
	<path fill="#9FA4A5" d="M600.83,1075.898h64.184l21.868,66.172l21.868-66.172h41.464l21.868,66.172l21.868-66.172h64.184
		l-62.48,189.428H748.51l-19.028-57.368l-19.028,57.368H663.31L600.83,1075.898z"/>
</g>
<g enable-background="new    ">
	<path fill="#9FA4A5" d="M992.898,1167.346l-50.268-91.447h66.172l17.041,30.956l17.039-30.956h66.457l-50.269,91.447l53.96,97.98
		h-66.172l-21.016-37.772l-20.732,37.772h-66.172L992.898,1167.346z"/>
</g>
<g enable-background="new    ">
	<path fill="#9FA4A5" d="M1252.626,1183.818l-58.788-107.92h67.309l21.867,40.044l21.584-40.044h67.309l-58.788,107.92v81.508
		h-60.492V1183.818z"/>
</g>
<g enable-background="new    ">
	<path fill="#9FA4A5" d="M1518.598,1125.599h-52.256l19.312-49.7h121.269l-65.889,139.728h62.195l-19.027,49.7h-131.492
		L1518.598,1125.599z"/>
</g>
<g enable-background="new    ">
	<path fill="#9FA4A5" d="M110.945,1474.055l-21.145-24.67l34.302-36.416h37.591v156.708h-50.748V1474.055z"/>
	<path fill="#9FA4A5" d="M250.5,1494.494c3.289-6.263,5.404-10.961,6.343-14.097c0.94-3.131,1.41-6.108,1.41-8.928
		c0-5.011-1.645-8.888-4.934-11.63c-3.289-2.738-8.069-4.111-14.332-4.111c-1.256,0-2.43,0.04-3.524,0.117
		c-1.098,0.081-2.114,0.198-3.054,0.353c-1.098,0.158-2.114,0.235-3.054,0.235v-43.465c2.191-0.47,4.148-0.859,5.874-1.175
		c1.722-0.312,3.407-0.547,5.051-0.705c1.645-0.154,3.366-0.271,5.169-0.353c1.799-0.077,3.876-0.117,6.226-0.117
		c7.518,0,14.919,0.822,22.202,2.467s13.821,4.347,19.618,8.105c5.793,3.76,10.492,8.774,14.097,15.037
		c3.602,6.266,5.404,13.942,5.404,23.024c0,4.229-0.47,8.421-1.41,12.569c-0.939,4.152-2.39,8.656-4.346,13.51
		c-1.96,4.856-4.464,10.301-7.519,16.328c-3.054,6.031-6.619,13.039-10.69,21.027l-3.054,5.874h29.603l-13.392,41.115H211.03
		L250.5,1494.494z"/>
	<path fill="#9FA4A5" d="M369.615,1527.622c1.722,0.315,3.326,0.47,4.816,0.47c1.487,0,2.937,0,4.347,0
		c5.011,0,9.2-0.507,12.569-1.527c3.367-1.017,6.028-2.386,7.988-4.111c1.957-1.722,3.366-3.642,4.229-5.757
		c0.859-2.114,1.292-4.346,1.292-6.695c0-3.289-1.098-6.421-3.289-9.398c-2.195-2.973-4.934-5.675-8.223-8.105
		c-3.289-2.426-6.813-4.658-10.572-6.695c-3.759-2.034-7.129-3.76-10.103-5.169c2.661-1.722,5.323-3.524,7.988-5.404
		c2.662-1.879,5.051-3.795,7.166-5.756c2.114-1.956,3.796-3.876,5.051-5.756c1.252-1.88,1.879-3.679,1.879-5.404
		c0-2.819-1.057-4.735-3.172-5.756c-2.114-1.017-4.427-1.527-6.931-1.527c-2.038,0-3.958,0.118-5.756,0.353
		c-1.802,0.235-3.406,0.511-4.816,0.822c-1.726,0.47-3.212,0.863-4.464,1.175v-39.471c2.192-0.47,4.776-0.939,7.753-1.409
		c2.662-0.312,5.991-0.624,9.985-0.94c3.994-0.312,8.73-0.47,14.214-0.47c15.349,0,26.666,3.487,33.95,10.455
		c7.283,6.972,10.925,16.094,10.925,27.371c0,3.917-0.628,7.481-1.879,10.69c-1.256,3.212-2.666,5.991-4.229,8.34
		c-1.726,2.819-3.682,5.404-5.874,7.754c3.914,3.135,7.438,6.736,10.573,10.807c2.662,3.605,5.088,7.911,7.283,12.923
		c2.191,5.014,3.289,10.652,3.289,16.916c0,9.713-1.997,18.054-5.991,25.021c-3.994,6.971-9.361,12.687-16.094,17.15
		c-6.736,4.464-14.53,7.754-23.377,9.868c-8.851,2.114-18.054,3.172-27.606,3.172c-1.568,0-3.407,0-5.521,0
		c-2.114,0-4.582-0.081-7.401-0.235V1527.622z"/>
	<path fill="#9FA4A5" d="M568.844,1412.969h39.706v103.376h9.397v31.482h-9.397v21.85h-46.284v-21.85h-57.327v-26.549
		L568.844,1412.969z M541.59,1516.345h20.675v-34.772L541.59,1516.345z"/>
	<path fill="#9FA4A5" d="M667.989,1528.092c11.748,0,20.675-2.115,26.784-6.344c6.109-4.229,9.163-9.868,9.163-16.916
		c0-4.854-1.215-8.771-3.642-11.747c-2.43-2.974-5.562-5.286-9.398-6.931c-3.84-1.646-8.069-2.739-12.687-3.29
		c-4.622-0.547-9.045-0.822-13.274-0.822l28.193-69.073h63.67v43.935H727.43c5.011,3.447,9.552,7.599,13.627,12.452
		c3.443,4.229,6.579,9.438,9.398,15.624c2.819,6.189,4.229,13.509,4.229,21.967c0,11.436-2.35,21.344-7.048,29.721
		c-4.699,8.381-10.848,15.271-18.443,20.675c-7.599,5.404-16.251,9.398-25.961,11.982c-9.713,2.585-19.5,3.877-29.368,3.877
		c-2.195,0-3.605-0.081-4.229-0.235c-0.627,0-1.174-0.081-1.645-0.234V1528.092z"/>
	<path fill="#9FA4A5" d="M810.833,1511.88c0-6.578,0.705-13.039,2.114-19.383c1.41-6.343,3.289-12.452,5.639-18.325
		c2.35-5.874,5.011-11.432,7.988-16.682c2.973-5.245,6.028-10.139,9.162-14.684c7.361-10.649,15.742-20.595,25.14-29.838h56.856
		c-3.604,3.759-7.363,7.911-11.277,12.452c-3.289,3.917-6.854,8.498-10.689,13.744c-3.84,5.249-7.559,11.083-11.16,17.503
		c7.049,1.41,13.469,3.877,19.266,7.401c5.793,3.523,10.768,7.793,14.919,12.805c4.147,5.014,7.319,10.729,9.515,17.15
		c2.192,6.425,3.29,13.238,3.29,20.44c0,8.304-1.491,16.017-4.464,23.142c-2.978,7.13-7.09,13.393-12.335,18.796
		c-5.249,5.403-11.476,9.633-18.679,12.688c-7.205,3.054-15.036,4.581-23.494,4.581c-8.773,0-16.956-1.527-24.552-4.581
		c-7.599-3.055-14.137-7.36-19.618-12.923c-5.484-5.558-9.791-12.1-12.922-19.617
		C812.396,1529.031,810.833,1520.809,810.833,1511.88z M857.117,1513.055c0,4.075,1.369,7.481,4.111,10.221
		c2.738,2.742,6.068,4.111,9.984,4.111c3.914,0,7.244-1.369,9.986-4.111c2.738-2.739,4.111-6.068,4.111-9.985
		c0-3.913-1.373-7.243-4.111-9.985c-2.742-2.738-6.072-4.111-9.986-4.111c-3.758,0-7.048,1.373-9.867,4.111
		C858.526,1506.047,857.117,1509.296,857.117,1513.055z"/>
	<path fill="#9FA4A5" d="M1023.22,1456.668h-42.995l17.387-43.699h95.622l-61.79,156.708H978.58L1023.22,1456.668z"/>
	<path fill="#9FA4A5" d="M1195.901,1573.671c-7.988,0-15.507-1.333-22.555-3.994c-7.049-2.661-13.197-6.421-18.443-11.277
		c-5.249-4.854-9.397-10.609-12.452-17.269c-3.054-6.655-4.581-13.979-4.581-21.967c0-6.421,0.899-12.06,2.702-16.916
		c1.799-4.854,3.795-8.929,5.99-12.218c2.662-3.913,5.639-7.202,8.929-9.867c-1.726-1.88-3.213-4.071-4.464-6.579
		c-1.098-2.191-2.078-4.853-2.938-7.987c-0.862-3.132-1.292-6.733-1.292-10.808c0-6.421,1.292-12.412,3.877-17.974
		c2.584-5.558,6.108-10.374,10.572-14.449c4.464-4.071,9.669-7.283,15.624-9.633c5.95-2.35,12.294-3.523,19.03-3.523
		c6.732,0,13.076,1.174,19.03,3.523c5.951,2.35,11.16,5.562,15.624,9.633c4.464,4.075,7.988,8.892,10.572,14.449
		c2.585,5.562,3.877,11.553,3.877,17.974c0,4.074-0.47,7.676-1.41,10.808c-0.939,3.135-1.96,5.796-3.054,7.987
		c-1.256,2.508-2.665,4.699-4.229,6.579c3.132,2.665,6.028,5.954,8.693,9.867c2.191,3.289,4.229,7.364,6.108,12.218
		c1.88,4.856,2.819,10.495,2.819,16.916c0,7.987-1.527,15.312-4.581,21.967c-3.055,6.659-7.206,12.415-12.452,17.269
		c-5.25,4.856-11.396,8.616-18.443,11.277C1211.407,1572.338,1203.89,1573.671,1195.901,1573.671z M1183.214,1515.404
		c0,3.605,1.212,6.619,3.642,9.046c2.427,2.43,5.44,3.642,9.046,3.642c3.602,0,6.615-1.212,9.045-3.642
		c2.427-2.427,3.642-5.44,3.642-9.046c0-3.601-1.215-6.615-3.642-9.045c-2.43-2.427-5.443-3.642-9.045-3.642
		c-3.605,0-6.619,1.215-9.046,3.642C1184.426,1508.789,1183.214,1511.804,1183.214,1515.404z M1187.913,1458.078
		c0,2.195,0.782,4.074,2.35,5.639c1.563,1.567,3.443,2.35,5.639,2.35c2.191,0,4.071-0.782,5.639-2.35
		c1.563-1.564,2.35-3.443,2.35-5.639c0-2.191-0.786-4.071-2.35-5.639c-1.567-1.564-3.447-2.35-5.639-2.35
		c-2.195,0-4.075,0.785-5.639,2.35C1188.695,1454.007,1187.913,1455.887,1187.913,1458.078z"/>
	<path fill="#9FA4A5" d="M1427.555,1470.765c0,6.579-0.745,13.04-2.232,19.383c-1.49,6.344-3.406,12.452-5.756,18.326
		s-5.015,11.476-7.988,16.799c-2.978,5.326-6.031,10.26-9.163,14.801c-7.364,10.653-15.664,20.521-24.904,29.604h-56.856
		c3.602-3.602,7.36-7.673,11.277-12.217c3.289-3.914,6.851-8.535,10.69-13.862c3.836-5.322,7.555-11.196,11.159-17.621
		c-7.048-1.409-13.473-3.876-19.265-7.4c-5.797-3.524-10.771-7.79-14.919-12.805c-4.152-5.011-7.324-10.727-9.516-17.15
		c-2.195-6.421-3.289-13.234-3.289-20.44c0-8.143,1.486-15.818,4.464-23.024c2.974-7.203,7.085-13.51,12.334-18.913
		c5.246-5.404,11.473-9.633,18.679-12.688c7.202-3.054,15.036-4.581,23.494-4.581c8.771,0,16.916,1.527,24.435,4.581
		c7.519,3.055,14.057,7.364,19.618,12.922c5.558,5.562,9.904,12.1,13.039,19.618
		C1425.987,1453.614,1427.555,1461.837,1427.555,1470.765z M1381.271,1469.59c0-4.07-1.373-7.478-4.111-10.22
		c-2.743-2.738-6.072-4.111-9.985-4.111c-3.917,0-7.247,1.373-9.985,4.111c-2.742,2.742-4.111,6.072-4.111,9.985
		c0,3.917,1.369,7.246,4.111,9.985c2.738,2.742,6.068,4.111,9.985,4.111c3.759,0,7.048-1.369,9.867-4.111
		C1379.86,1476.602,1381.271,1473.35,1381.271,1469.59z"/>
	<path fill="#9FA4A5" d="M1609.164,1491.44c0,26.629-5.562,46.988-16.682,61.085c-11.123,14.097-26.629,21.146-46.519,21.146
		c-19.894,0-35.4-7.049-46.52-21.146c-11.123-14.097-16.681-34.456-16.681-61.085c0-26.626,5.558-46.989,16.681-61.086
		c11.119-14.097,26.626-21.145,46.52-21.145c19.89,0,35.396,7.048,46.519,21.145
		C1603.603,1444.451,1609.164,1464.814,1609.164,1491.44z M1561,1491.44c0-24.589-5.015-36.887-15.036-36.887
		c-10.026,0-15.037,12.298-15.037,36.887c0,24.592,5.011,36.886,15.037,36.886C1555.985,1528.326,1561,1516.032,1561,1491.44z"/>
</g>
</svg>
