<?xml version="1.0" encoding="iso-8859-1"?>
<!-- Generator: Adobe Illustrator 19.0.0, SVG Export Plug-In . SVG Version: 6.00 Build 0)  -->
<svg version="1.1" id="Capa_1" xmlns="http://www.w3.org/2000/svg" xmlns:xlink="http://www.w3.org/1999/xlink" x="0px" y="0px"
	 viewBox="0 0 60 60" style="enable-background:new 0 0 60 60;" xml:space="preserve">
<g>
	<g>
		<path d="M58,58H18V40h-2v18H2V40H0v19c0,0.6,0.4,1,1,1h58c0.6,0,1-0.4,1-1V40h-2V58z"/>
		<path d="M59,0H1C0.4,0,0,0.4,0,1v25h2v-3h14v3h2v-3h40v3h2V1C60,0.4,59.6,0,59,0z M58,2v6H2V2H58z M2,21V10h56v11H2z"/>
		<rect x="4" y="4" width="4" height="2"/>
		<rect x="10" y="4" width="4" height="2"/>
		<rect x="21" y="43" width="2" height="2"/>
		<rect x="25" y="43" width="2" height="2"/>
		<rect x="53" y="43" width="2" height="2"/>
		<rect x="29" y="43" width="8" height="2"/>
		<rect x="21" y="48" width="34" height="2"/>
		<rect x="21" y="53" width="34" height="2"/>
		<path d="M14,43c0-0.6-0.4-1-1-1H5c-0.6,0-1,0.4-1,1v6c0,0.6,0.4,1,1,1h8c0.6,0,1-0.4,1-1V43z M12,48H6v-4h6V48z"/>
		<rect x="4" y="53" width="10" height="2"/>
		<rect x="5" y="12" width="12" height="2"/>
		<rect x="5" y="16" width="8" height="2"/>
		<rect x="53" y="14" width="2" height="2"/>
		<rect x="49" y="14" width="2" height="2"/>
		<path d="M1,37h50c0.1,0,0.1,0,0.2,0c0.2,0,0.4-0.1,0.5-0.2l7.6-2.9c0.3-0.1,0.6-0.5,0.6-0.9s-0.2-0.8-0.6-0.9l-7.6-2.9
			C51.5,29.1,51.3,29,51,29H1c-0.6,0-1,0.4-1,1v6C0,36.6,0.4,37,1,37z M8,34h42v1H8V34z M52,34.5v-3.1l4.2,1.5L52,34.5z M50,32H8v-1
			h42V32z M2,31h4v4H2V31z"/>
	</g>
</g>
<g>
</g>
<g>
</g>
<g>
</g>
<g>
</g>
<g>
</g>
<g>
</g>
<g>
</g>
<g>
</g>
<g>
</g>
<g>
</g>
<g>
</g>
<g>
</g>
<g>
</g>
<g>
</g>
<g>
</g>
</svg>
