<?xml version="1.0" encoding="utf-8"?>
<!-- Generator: Adobe Illustrator 16.0.0, SVG Export Plug-In . SVG Version: 6.00 Build 0)  -->
<!DOCTYPE svg PUBLIC "-//W3C//DTD SVG 1.1//EN" "http://www.w3.org/Graphics/SVG/1.1/DTD/svg11.dtd">
<svg version="1.1" id="Capa_1" xmlns="http://www.w3.org/2000/svg" xmlns:xlink="http://www.w3.org/1999/xlink" x="0px" y="0px"
	 width="1816.667px" height="443.333px" viewBox="0 0 1816.667 443.333" enable-background="new 0 0 1816.667 443.333"
	 xml:space="preserve">
<g>
	<path fill-rule="evenodd" clip-rule="evenodd" fill="#9E9E9E" d="M234.224,28.313c-108.905,0-197.216,88.292-197.216,197.213
		c0,87.137,56.507,161.058,134.867,187.139c9.854,1.824,13.475-4.28,13.475-9.491c0-4.701-0.183-20.239-0.268-36.715
		c-54.865,11.928-66.442-23.269-66.442-23.269c-8.972-22.796-21.897-28.856-21.897-28.856c-17.895-12.24,1.349-11.992,1.349-11.992
		c19.803,1.391,30.231,20.329,30.231,20.329c17.589,30.145,46.136,21.432,57.391,16.393c1.771-12.744,6.879-21.451,12.521-26.375
		c-43.805-4.982-89.854-21.898-89.854-97.462c0-21.531,7.705-39.124,20.321-52.936c-2.048-4.969-8.799-25.026,1.911-52.192
		c0,0,16.561-5.298,54.245,20.218c15.732-4.371,32.604-6.562,49.365-6.638c16.756,0.077,33.641,2.268,49.401,6.638
		c37.646-25.516,54.18-20.218,54.18-20.218c10.735,27.166,3.986,47.223,1.938,52.192c12.642,13.812,20.296,31.405,20.296,52.936
		c0,75.75-46.135,92.423-90.051,97.309c7.073,6.117,13.375,18.121,13.375,36.517c0,26.387-0.229,47.628-0.229,54.122
		c0,5.25,3.554,11.398,13.548,9.466c78.315-26.107,134.753-100.009,134.753-187.114C431.435,116.604,343.137,28.313,234.224,28.313z
		"/>
	<path fill="#9E9E9E" d="M111.703,311.47c-0.434,0.982-1.977,1.275-3.381,0.6c-1.432-0.645-2.232-1.978-1.77-2.959
		c0.424-1.008,1.967-1.289,3.396-0.619C111.381,309.135,112.197,310.487,111.703,311.47L111.703,311.47z M109.276,309.671"/>
	<path fill="#9E9E9E" d="M119.693,320.381c-0.941,0.868-2.782,0.465-4.029-0.912c-1.292-1.378-1.53-3.215-0.578-4.102
		c0.971-0.868,2.754-0.459,4.045,0.912C120.422,317.67,120.675,319.494,119.693,320.381L119.693,320.381z M117.811,318.358"/>
	<path fill="#9E9E9E" d="M127.468,331.734c-1.209,0.843-3.186,0.058-4.407-1.696c-1.209-1.754-1.209-3.859,0.028-4.701
		c1.222-0.842,3.17-0.083,4.408,1.652C128.702,328.774,128.702,330.879,127.468,331.734L127.468,331.734z M127.468,331.734"/>
	<path fill="#9E9E9E" d="M138.12,342.712c-1.081,1.192-3.384,0.867-5.067-0.759c-1.726-1.588-2.204-3.846-1.123-5.039
		c1.097-1.193,3.412-0.854,5.109,0.759C138.752,339.261,139.271,341.532,138.12,342.712L138.12,342.712z M138.12,342.712"/>
	<path fill="#9E9E9E" d="M152.816,349.084c-0.479,1.543-2.695,2.246-4.928,1.588c-2.232-0.676-3.69-2.488-3.24-4.044
		c0.463-1.556,2.691-2.289,4.94-1.588C151.817,345.716,153.278,347.508,152.816,349.084L152.816,349.084z M152.816,349.084"/>
	<path fill="#9E9E9E" d="M168.957,350.264c0.054,1.627-1.84,2.973-4.185,3.005c-2.356,0.051-4.268-1.263-4.293-2.864
		c0-1.646,1.854-2.979,4.21-3.017C167.033,347.343,168.957,348.65,168.957,350.264L168.957,350.264z M168.957,350.264"/>
	<path fill="#9E9E9E" d="M183.976,347.707c0.28,1.588-1.35,3.214-3.678,3.648c-2.29,0.421-4.407-0.561-4.701-2.13
		c-0.283-1.626,1.375-3.26,3.661-3.681C181.59,345.142,183.679,346.093,183.976,347.707L183.976,347.707z M183.976,347.707"/>
</g>
<g>
	<path fill="#9E9E9E" d="M738.518,203.875H629.382c-2.815,0-5.1,2.286-5.1,5.102v53.357c0,2.815,2.284,5.107,5.1,5.107h42.574
		v66.292c0,0-9.56,3.259-35.987,3.259c-31.182,0-74.738-11.393-74.738-107.174c0-95.8,45.355-108.405,87.938-108.405
		c36.859,0,52.738,6.489,62.842,9.617c3.176,0.972,6.111-2.189,6.111-5.005l12.175-51.555c0-1.319-0.446-2.906-1.948-3.984
		c-4.104-2.927-29.138-16.935-92.379-16.935c-72.857,0-147.59,30.996-147.59,180.002c0,149.01,85.562,171.215,157.664,171.215
		c59.701,0,95.918-25.511,95.918-25.511c1.492-0.824,1.653-2.91,1.653-3.866V208.977
		C743.614,206.16,741.332,203.875,738.518,203.875z"/>
	<path fill="#9E9E9E" d="M1300.947,71.404c0-2.839-2.25-5.13-5.065-5.13h-61.448c-2.808,0-5.09,2.291-5.09,5.13
		c0,0.013,0.017,118.752,0.017,118.752h-95.782V71.404c0-2.839-2.262-5.13-5.071-5.13h-61.446c-2.797,0-5.075,2.291-5.075,5.13
		v321.548c0,2.836,2.278,5.145,5.075,5.145h61.446c2.81,0,5.071-2.308,5.071-5.145V255.414h95.782c0,0-0.167,137.528-0.167,137.538
		c0,2.836,2.279,5.145,5.09,5.145h61.594c2.814,0,5.064-2.308,5.07-5.145V71.404z"/>
	<g>
		<g>
			<path fill="#9E9E9E" d="M854.474,113.598c0-22.125-17.739-40.005-39.626-40.005c-21.865,0-39.617,17.88-39.617,40.005
				c0,22.104,17.752,40.034,39.617,40.034C836.734,153.631,854.474,135.702,854.474,113.598z"/>
			<path fill="#9E9E9E" d="M850.08,325.124c0-8.24,0-148.428,0-148.428c0-2.818-2.274-5.122-5.084-5.122H783.74
				c-2.811,0-5.324,2.898-5.324,5.716c0,0,0,178.605,0,212.652c0,6.248,3.895,8.107,8.934,8.107c0,0,26.146,0,55.189,0
				c6.057,0,7.541-2.974,7.541-8.208C850.08,378.443,850.08,333.791,850.08,325.124z"/>
		</g>
	</g>
	<path fill="#9E9E9E" d="M1534.482,172.057h-60.979c-2.797,0-5.073,2.306-5.073,5.142v157.664c0,0-15.491,11.335-37.479,11.335
		c-21.986,0-27.822-9.978-27.822-31.506c0-21.555,0-137.493,0-137.493c0-2.836-2.271-5.142-5.07-5.142h-61.887
		c-2.795,0-5.082,2.306-5.082,5.142c0,0,0,83.962,0,147.903c0,63.947,35.64,79.592,84.668,79.592
		c40.221,0,72.65-22.221,72.65-22.221s1.545,11.71,2.242,13.099c0.701,1.384,2.52,2.783,4.487,2.783l39.37-0.174
		c2.795,0,5.082-2.308,5.082-5.134l-0.019-215.849C1539.571,174.362,1537.292,172.057,1534.482,172.057z"/>
	<path fill="#9E9E9E" d="M1701.145,164.834c-34.633,0-58.189,15.452-58.189,15.452V71.404c0-2.839-2.27-5.13-5.071-5.13h-61.622
		c-2.803,0-5.079,2.291-5.079,5.13v321.548c0,2.836,2.276,5.145,5.087,5.145c0.005,0,42.74,0,42.753,0
		c1.925,0,3.384-0.993,4.46-2.73c1.062-1.727,2.597-14.826,2.597-14.826s25.196,23.879,72.899,23.879
		c56,0,88.116-28.405,88.116-127.519C1787.095,177.786,1735.803,164.834,1701.145,164.834z M1677.094,346.002
		c-21.151-0.645-35.496-10.242-35.496-10.242V233.933c0,0,14.152-8.674,31.516-10.226c21.959-1.966,43.118,4.667,43.118,57.049
		C1716.231,335.993,1706.682,346.895,1677.094,346.002z"/>
	<path fill="#9E9E9E" d="M1026.688,171.544h-46.095c0,0-0.069-60.882-0.069-60.895c0-2.306-1.188-3.457-3.853-3.457h-62.813
		c-2.443,0-3.753,1.075-3.753,3.421v62.927c0,0-31.479,7.599-33.608,8.213c-2.117,0.615-3.679,2.569-3.679,4.901v39.543
		c0,2.844,2.271,5.138,5.081,5.138h32.206c0,0,0,41.359,0,95.133c0,70.66,49.564,77.6,83.009,77.6
		c15.283,0,33.562-4.907,36.582-6.021c1.824-0.671,2.887-2.562,2.887-4.611l0.05-43.5c0-2.836-2.396-5.134-5.095-5.134
		c-2.686,0-9.557,1.093-16.633,1.093c-22.64,0-30.312-10.526-30.312-24.153c0-13.617-0.003-90.406-0.003-90.406h46.098
		c2.81,0,5.086-2.293,5.086-5.138v-49.531C1031.773,173.83,1029.497,171.544,1026.688,171.544z"/>
</g>
</svg>
