<?xml version="1.0" encoding="utf-8"?>
<!-- Generator: Adobe Illustrator 16.0.0, SVG Export Plug-In . SVG Version: 6.00 Build 0)  -->
<!DOCTYPE svg PUBLIC "-//W3C//DTD SVG 1.1//EN" "http://www.w3.org/Graphics/SVG/1.1/DTD/svg11.dtd">
<svg version="1.1" id="Capa_1" xmlns="http://www.w3.org/2000/svg" xmlns:xlink="http://www.w3.org/1999/xlink" x="0px" y="0px"
	 width="691.649px" height="768px" viewBox="0 0 691.649 768" enable-background="new 0 0 691.649 768" xml:space="preserve">
<g>
	<g id="line_8_">
		<path d="M625.043,749.078H74.152c-3.879,0-4.647,1.396-6.656,6.197c-1.564,3.704-0.58,5.903,3.678,5.974h550.938
			c3.881,0,4.602-1.364,6.621-6.196C630.32,751.359,629.326,749.204,625.043,749.078z"/>
	</g>
	<g id="Motion_3_">
		<g>
			<path d="M636.848,693.706c-2.129,4.329-6.588,8.93-13.307,13.777c-6.713,4.836-12.387,7.229-16.965,7.229
				c-2.328,0-3.479-0.939-3.479-2.94c0-0.874,0.332-2.105,0.889-3.641l11.836-25.527c2.756-6.184,4.129-12.015,4.129-17.47
				c0-10.988-5.348-16.518-16.197-16.518c-11.072,0-19.807,3.174-26.135,9.512l-21.25-11.114l-9.988,21.963
				c-2.119,0.729-3.975,1.149-5.51,1.149c-1.729,0-3.869-0.328-6.49-0.877c2.789-4.716,4.184-8.943,4.184-12.687
				c0-7.564-4.658-11.33-13.893-11.33c-7.109,0-13.127,2.081-18.043,6.339h-9.459c-8.053,0-15.785,3.4-23.366,10.162
				c-6.655,5.913-11.812,12.931-15.501,21.097l-9.279,19.911c-1.139,2.604-2.059,5.015-2.878,7.318
				c-4.999,3.073-9.387,4.652-13.086,4.652c-2.307,0-3.491-0.939-3.491-2.94c0-0.874,0.356-2.105,0.951-3.641l21.506-47.271
				l-25.447-13.847l-25.929,56.721c-1.691,1.533-3.57,2.991-5.747,4.527c-7.086,4.922-13.079,7.379-17.829,7.379
				c-1.551,0-2.309-0.543-2.309-1.607c0-0.261,0.1-0.654,0.227-1.099l56.699-124.343h-33.551l-36.228,79.463
				c-3.203,1.346-11.787,1.743-14.423,1.194c2.74-4.716,4.114-8.943,4.114-12.687c0-7.564-4.603-11.33-13.859-11.33
				c-7.094,0-13.098,2.081-18.007,6.339h-9.496c-8.041,0-15.796,3.4-23.396,10.162c-6.614,5.913-11.792,12.931-15.465,21.097
				l-9.239,19.911c-1.356,2.866-2.268,5.51-3.119,8.017c-5.358,3.175-10.063,4.883-14.06,4.883c-1.346,0-2.069-0.543-2.069-1.607
				c0-0.261,0.083-0.654,0.258-1.099l46.955-103.48c0.899-1.962,1.383-3.871,1.383-5.666c0-4.952-3.084-9.031-9.256-12.205
				c-5.238-2.718-10.951-4.088-17.111-4.088h-2.516c-13.317,0-23.154,3.012-29.608,9.047c-0.191-3.478-4.125-5.91-11.764-7.459
				c-5.171-1.061-10.49-1.588-16.011-1.588c-10.499,0-21.222,3.012-32.163,9.047c-2.788-5.287-11.766-7.95-27.075-7.95
				l-15.348,0.035l0.094-0.035H41.978c-3.876,0-4.624,1.385-6.667,6.177c-1.56,3.725-0.53,6.645,3.724,6.767l55.158-0.024
				l34.908,0.024c1.735,0,3.393,0.665,5.069,2.05c1.739,1.381,2.566,2.808,2.566,4.282c0,0.589-0.07,1.122-0.222,1.587
				L79.128,735.571h35.169l49.294-108.225c2.28-5.145,15.996-28.798,29.745-23.876c6.591,2.365-1.961,17.078-2.695,18.748
				l-51.386,113.353h33.559l49.28-108.225c2.283-5.293,6.139-12.336,13.126-17.989c6.941-5.677,14.958-7.168,18.159-5.677
				c5.854,2.671-1.017,15.14-1.758,16.658l-43.666,95.988c-0.865,1.948-1.337,3.908-1.337,5.912c0,3.72,1.572,6.875,4.718,9.451
				c3.182,2.586,6.738,3.881,10.758,3.881c10.678,0,22.314-3.489,34.823-10.284c0.78,6.739,5.12,10.284,13.302,10.284h26.142
				c15.254,0,28.817-12.989,40.688-38.971c2.506-5.565,4.329-9.715,5.56-12.425c4.796-0.479,8.346-0.362,13.04-2.327l-14.174,31.087
				c-1.421,3.151-2.11,6.184-2.11,9.062c0,3.923,1.319,7.117,3.916,9.693c2.625,2.586,6.267,3.881,10.926,3.881
				c10.786,0,22.477-3.514,35.142-10.404c1.998-1.1,3.643-2.194,5.405-3.279c0.234,3.49,1.478,6.594,3.817,9.234
				c2.647,2.964,5.959,4.449,9.983,4.449c10.805,0,22.511-3.514,35.149-10.404c0-0.035,0.035-0.035,0.07-0.035
				c0.796,6.81,5.097,10.439,13.352,10.439h26.131c15.262,0,28.835-12.989,40.769-38.971c2.422-5.565,4.289-9.715,5.496-12.425
				c3.854-0.362,7.379-0.916,10.701-1.694l-24.07,53.09h33.729l30.082-66.321c1.551-3.326,3.988-4.979,7.381-4.979
				c2.16,0,3.271,0.778,3.271,2.456c0,0.592-0.129,1.357-0.492,2.251l-20.34,44.402c-1.598,3.428-2.295,6.531-2.295,9.261
				c0,5.12,2.518,8.863,7.604,11.078c2.484,1.236,4.801,1.853,6.953,1.853c10.785,0,22.49-3.514,35.143-10.404
				c13.432-7.257,22.004-15.031,25.717-23.339l0.213-0.24L636.848,693.706z M297.754,716.327c-2.328,4.812-5.354,7.214-9.054,7.214
				c-2.14,0-3.229-1.12-3.229-3.408c0-1.17,0.308-2.455,0.948-3.806l20.57-45.28c1.068-2.555,2.85-4.559,5.322-5.912
				c-0.424,0.925-0.698,2.145-0.698,3.678c0,4.376,1.431,6.882,4.162,7.654L297.754,716.327z M335.678,667.437
				c-0.297,0.17-0.738,0.211-1.136,0.211c-1.418,0-2.647-0.624-3.751-1.942c-1.038-1.257-1.594-2.657-1.594-4.199
				c0-2.999,1.594-4.529,4.881-4.529c2,0,2.968,1.468,2.968,4.312C337.046,663.402,336.59,665.47,335.678,667.437z M484.609,716.327
				c-2.257,4.812-5.304,7.214-9.008,7.214c-2.105,0-3.239-1.12-3.239-3.408c0-1.17,0.354-2.455,0.922-3.806l20.622-45.28
				c1.063-2.555,2.834-4.559,5.321-5.912c-0.487,0.925-0.713,2.145-0.713,3.678c0,4.376,1.396,6.882,4.177,7.654L484.609,716.327z
				 M522.59,667.437c-0.297,0.17-0.711,0.211-1.158,0.211c-1.408,0-2.637-0.624-3.713-1.942c-1.076-1.257-1.57-2.657-1.57-4.199
				c0-2.999,1.57-4.529,4.834-4.529c1.963,0,3.039,1.468,3.039,4.312C524.021,663.402,523.514,665.47,522.59,667.437z"/>
		</g>
		<g>
			<path d="M415.156,639.773h-16.589l0,0h-30.104c-3.888,0-4.647,1.364-6.657,6.177c-1.559,3.688-0.533,6.613,3.726,6.776
				l27.928-0.037v0.037h18.764c3.88,0,4.625-1.408,6.647-6.221C420.431,642.808,419.402,639.879,415.156,639.773z"/>
		</g>
		<g>
			<path d="M441.262,637.875c2.792,1.516,5.894,2.277,9.511,2.277c4.431,0,8.903-0.977,13.36-2.96
				c5.428-2.388,9.03-5.632,10.925-9.73c0.605-1.33,0.886-2.623,0.886-3.848c0-2.823-1.349-5.031-4.188-6.536
				c-2.764-1.497-5.936-2.23-9.48-2.23c-4.457,0-8.89,1.014-13.352,3.131c-5.436,2.422-9.031,5.573-10.922,9.483
				c-0.617,1.521-0.924,2.89-0.924,4.099C437.079,634.31,438.474,636.427,441.262,637.875z"/>
		</g>
	</g>
	<g id="in_3_">
		<g>
			<path d="M589.621,575.978c1.559,0.878,3.311,1.288,5.318,1.288c2.473,0,4.98-0.554,7.463-1.661
				c2.98-1.314,5.023-3.135,6.053-5.421c0.342-0.757,0.5-1.481,0.5-2.149c0-1.583-0.75-2.803-2.311-3.641
				c-1.535-0.862-3.275-1.261-5.271-1.261c-2.494,0-5.014,0.582-7.459,1.764c-3.041,1.329-5.072,3.096-6.092,5.287
				c-0.293,0.838-0.482,1.61-0.482,2.286C587.34,573.99,588.061,575.144,589.621,575.978z"/>
		</g>
		<g>
			<path d="M648.963,614.247c-3.709,2.688-6.914,4.024-9.443,4.024c-1.314,0-1.932-0.498-1.932-1.622
				c0-0.495,0.156-1.187,0.477-2.043l6.621-14.226c1.537-3.436,2.293-6.676,2.293-9.694c0-6.114-3.025-9.187-9.02-9.187
				c-6.174,0-11.008,1.747-14.545,5.304l-11.836-6.186l-15.975,35.112c-2.801,1.714-5.191,2.541-7.211,2.541
				c-1.291,0-1.941-0.498-1.941-1.622c0-0.495,0.191-1.187,0.51-2.043l11.977-26.299l-14.168-7.689L567.9,617.526
				c-0.604,1.364-0.912,2.741-0.912,4.17c0,2.19,0.732,4.094,2.223,5.739c1.408,1.654,3.322,2.429,5.557,2.429
				c5.051,0,10.49-1.488,16.309-4.191l-1.893,4.191h18.775l16.717-36.923c0.867-1.802,2.275-2.785,4.143-2.785
				c1.229,0,1.797,0.508,1.797,1.475c0,0.281-0.07,0.69-0.25,1.188l-11.338,24.707c-0.877,1.973-1.287,3.647-1.287,5.184
				c0,2.846,1.426,4.891,4.242,6.185c1.432,0.643,2.672,0.97,3.84,0.97c6.045,0,12.572-1.906,19.607-5.762
				c7.473-4.053,12.254-8.372,14.297-12.976l0.141-0.131l-3.504-4.442C655.162,608.99,652.689,611.581,648.963,614.247z"/>
		</g>
	</g>
	<g id="Thinkers_3_">
		<g id="thinkers_3_">
			<g>
				<path d="M245.721,461.537c2.608,1.427,5.568,2.109,8.961,2.109c4.185,0,8.396-0.909,12.602-2.788
					c5.097-2.262,8.517-5.312,10.256-9.176c0.601-1.259,0.87-2.472,0.87-3.614c0-2.69-1.322-4.757-3.923-6.177
					c-2.628-1.411-5.607-2.142-8.942-2.142c-4.183,0-8.402,1.026-12.649,3.015c-5.073,2.27-8.488,5.226-10.236,8.918
					c-0.545,1.463-0.87,2.687-0.87,3.864C241.79,458.09,243.109,460.105,245.721,461.537z"/>
			</g>
			<g>
				<path d="M661.535,531.481c-8.74,5.292-16.482,7.889-23.307,7.889c12.924-8.95,19.402-18,19.402-27.094
					c0-6.948-5.236-16.755-15.688-29.395c6.1-7.689,10.107-13.464,11.941-17.293c1.029-2.422,1.525-4.56,1.525-6.399
					c0-4.547-3.668-6.809-11.057-6.809c-8.773,0-15.678,5.502-20.76,16.647c-2.322,5.077-3.479,9.919-3.479,14.479
					c0,1.696,0.25,3.252,0.674,4.688c-6.801,9.221-30.459,33.651-44.848,42.503c-3.346,1.997-8.221,3.101-10.527,3.101
					c-2.137,0-3.25-0.896-3.25-2.741c0-0.976,0.246-2.133,0.852-3.439l9.625-21.298c0.404-0.703,0.613-1.561,0.613-2.54
					c0-4.281-1.674-7.366-4.979-9.198l-46.682-25.756c0,0-17.262,49.645-29.284,61.545c-6.92,6.84-12.607,9.818-34.966,10.065
					h-6.325c-1.764,0-2.625-1.065-2.625-3.194c0-1.716,0.53-3.681,1.537-5.942l5.226-11.352h21.793
					c10.736,0,17.923-4.051,21.564-12.144c5.078-11.227,7.628-18.939,7.628-23.24c0-6.938-4.649-10.458-13.965-10.458h-21.505
					c-7.744,0-14.946,2.843-21.639,8.531c-5.951,5.101-10.664,11.534-14.178,19.188l-6.964,15.361
					c-2.602,5.557-4.259,10.321-5.202,14.521c-2.816,1.225-5.371,1.93-7.641,1.93c-2.351,0-3.513-1.083-3.513-3.218
					c0-1.301,0.487-2.861,1.35-4.697c3.072-6.669,4.551-12.097,4.551-16.215c0-4.39-1.876-7.089-5.663-8.071
					c8.704-3.572,14.448-8.338,17.252-14.319c1.279-2.971,1.949-5.63,1.949-7.877c0-5.678-4.242-8.528-12.699-8.528
					c-9.976,0-18.016,3.101-24.119,9.359l29.632-65.25h-31.632l-51.883,114.047c-4.927,3.112-9.222,4.77-12.805,4.77
					c-2.211,0-3.283-0.943-3.283-2.784c0-0.885,0.28-2.02,0.881-3.439l11.106-24.082c2.601-5.843,3.878-11.313,3.878-16.425
					c0-10.385-5.026-15.59-15.207-15.59c-10.473,0-18.67,3.013-24.628,9l-20.055-10.451l-27.02,59.459
					c-4.702,2.796-8.762,4.312-12.231,4.312c-2.129,0-3.269-0.943-3.269-2.784c0-0.885,0.261-2.02,0.865-3.439l20.313-44.532
					l-24.002-13.016l-26.2,57.419c-6.071,4.138-11.165,6.353-15.208,6.353c-2.328,0-3.478-0.943-3.478-2.784
					c0-0.885,0.382-2.02,1.08-3.439l10.888-24.082c2.602-5.843,3.938-11.313,3.938-16.425c0-10.385-5.097-15.59-15.272-15.59
					c-4.782,0-10.018,1.52-15.673,4.522l27.897-61.019h-9.156h-22.417H12.443c-3.868,0-4.637,1.372-6.66,6.224
					c-1.549,3.653-0.565,5.825,3.701,5.928h90.635c1.653,0,3.213,0.646,4.835,1.93c1.571,1.279,2.398,2.636,2.398,4.056
					c0,0.564-0.082,1.08-0.238,1.502L53.52,553.245h34.62l52.097-118.785c1.334-2.854,2.059-5.343,2.21-7.487h23.21l-57.462,126.272
					h31.593l28.376-62.485c1.42-3.12,3.842-4.699,7.167-4.699c1.875,0,2.827,0.753,2.827,2.34c0,0.585-0.121,1.282-0.463,2.125
					l-19.144,41.826c-1.291,3.256-1.938,6.191-1.938,8.707c0,4.73,2.207,8.185,6.727,10.489c2.317,1.1,4.684,1.697,6.954,1.697
					c10.165,0,21.247-3.257,33.13-9.804c0.615-0.354,1.076-0.667,1.652-1.014c0.488,2.448,1.65,4.648,3.385,6.66
					c2.472,2.726,5.569,4.157,9.368,4.157c8.582,0,17.816-2.484,27.619-7.171l-3.206,7.171h31.832l28.318-62.485
					c1.442-3.12,3.783-4.699,6.965-4.699c2.019,0,3.001,0.753,3.001,2.34c0,0.585-0.07,1.282-0.365,2.125l-19.225,41.826
					c-1.432,3.256-2.153,6.191-2.153,8.707c0,4.87,2.425,8.349,7.21,10.489c2.32,1.1,4.532,1.697,6.516,1.697
					c8.717,0,18.211-2.582,28.189-7.433l-3.333,7.433h31.818l16.555-36.702c1.453-3.12,3.78-4.699,6.975-4.699
					c1.903,0,2.851,0.823,2.851,2.375c0,1.287-1.646,5.186-4.943,11.726c-3.275,6.539-4.882,11.647-4.882,15.325
					c0,4.608,2.338,7.974,6.975,10.278c2.364,1.1,4.532,1.697,6.762,1.697c9.745,0,20.376-3.093,31.773-9.164
					c2.693,6.083,10.11,9.164,22.265,9.164c0,0,38.901,3.836,55.025-8.837c15.056-11.823,33.333-39.7,35.642-44.711
					c1.57-3.533,3.271-5.339,5.014-5.339c1.131,0,2.33,0.426,3.486,1.205c1.146,0.765,1.75,1.658,1.75,2.667
					c0,0.414-0.096,0.772-0.213,1.038l-15.266,33.286c-1.311,2.971-1.951,5.81-1.951,8.504c0,8.123,4.539,12.187,13.73,12.187
					c5.885,0,12.037-1.233,18.549-3.436v0.245c1.703-0.687,3.348-1.356,4.93-2.027c0.604-0.242,1.209-0.508,1.803-0.784
					c11.596-4.979,19.686-9.897,23.953-14.688c0,0.14,0,0.347,0,0.623c0,13.388,9.59,20.067,28.789,20.067
					c11.742,0,23.354-2.438,34.824-7.254c11.291-4.776,20.252-11.277,26.912-19.418l-5.404-8.724
					C672.922,523.21,667.801,527.781,661.535,531.481z M468.446,490.76c1.173-2.722,3.252-4.079,6.328-4.079
					c2.461,0,3.677,0.861,3.677,2.566c0,0.307-0.072,0.726-0.198,1.278l-8.079,17.474h-9.8L468.446,490.76z M406.561,489.247
					c-1.018,2.284-3.926,4.066-8.704,5.334c-6.69,1.747-10.711,2.968-12.024,3.816c7.284-8.224,13.328-12.337,18.116-12.337
					c1.892,0,2.862,0.698,2.862,2.134C406.811,488.466,406.703,488.864,406.561,489.247z M625.59,523.808
					c-3.334,7.249-8.537,10.86-15.465,10.86c-2.316,0-3.514-2.063-3.514-6.186c0-2.105,0.273-4.362,0.885-6.621
					c7.982-8.926,14.014-15.593,18.094-20.036c1.729,2.31,2.613,5.546,2.613,9.828C628.203,515.896,627.318,519.947,625.59,523.808z
					 M636.441,469.028c0-1.163,0.25-2.243,0.727-3.245c0.668-1.544,1.996-2.354,3.852-2.354c1.076,0,1.514,0.296,1.514,0.881
					c0,0.834-1.914,3.276-5.842,7.233C636.504,470.576,636.441,469.695,636.441,469.028z"/>
			</g>
		</g>
		<g id="line_6_">
			<polygon points="211.877,427.073 217.422,414.821 374.695,414.821 369.127,427.073 			"/>
			<path d="M661.285,414.876h-10.857v-0.055H437.55l-5.529,12.252H646.35v-0.058h11.945c3.891,0,4.623-1.369,6.672-6.181
				C666.51,417.146,665.508,414.985,661.285,414.876z"/>
		</g>
	</g>
</g>
<g>
	<g id="c_3_">
		<path d="M87.395,280.902c-8.95-1.959-18.554-2.539-28.946-1.415c-4.718,12.63-9.46,25.256-14.214,37.896
			c10.712-2.406,20.683-3.116,30.022-2.517C78.645,303.556,83.031,292.223,87.395,280.902z"/>
		<path d="M90.316,281.558c-4.352,11.212-8.693,22.389-13.032,33.574c9.202,0.905,17.82,3.069,26.048,6.106
			c3.961-9.824,7.913-19.665,11.873-29.452C107.387,287.37,99.16,283.798,90.316,281.558z"/>
		<path d="M129.408,334.087c3.509-8.235,7.019-16.49,10.509-24.73c-7.116-5.966-14.459-11.459-22.168-16.069
			c-3.915,9.66-7.854,19.308-11.729,28.98C114.118,325.485,121.863,329.589,129.408,334.087z"/>
		<path d="M131.852,335.583c7.471,4.623,14.806,9.659,22.079,14.702c3.05-6.65,6.087-13.285,9.114-19.901
			c-6.844-6.52-13.715-13-20.812-19.048C138.77,319.418,135.331,327.506,131.852,335.583z"/>
		<path d="M165.313,332.492c-3.001,6.485-6.016,12.962-8.984,19.454c7.285,5.072,14.556,10.079,22.075,14.696
			c2.578-5.048,5.167-10.073,7.721-15.134C179.067,345.454,172.172,338.978,165.313,332.492z"/>
		<path d="M180.876,368.145c7.529,4.53,15.262,8.597,23.42,11.824c2.098-3.454,4.211-6.953,6.375-10.388
			c-7.779-4.638-15.079-10.126-22.218-16.079C185.95,358.365,183.396,363.272,180.876,368.145z"/>
		<path d="M232.997,387.072c1.688-1.897,3.38-3.878,5.068-5.803c-8.831-2.24-17.083-5.789-24.873-10.203
			c-2.095,3.305-4.165,6.597-6.267,9.919C215.153,384.025,223.762,386.212,232.997,387.072z"/>
		<path d="M240.99,381.95c-1.657,1.805-3.299,3.607-4.979,5.374c9.327,0.623,19.264-0.086,29.987-2.473
			c1.337-0.501,2.624-1.02,3.926-1.529C259.564,384.46,249.928,383.875,240.99,381.95z"/>
	</g>
	<g id="bike_3_">
		<g>
			<path d="M445.235,175.871l-22.322-2.296c0,0-14-27.348-24.264-47.285c-1.764-3.32-4.574-5.274-6.976-6.951l-24.427-1.62
				c-6.328,2.866-10.594,6.976-10.594,6.976s-26.427,25.107-41.245,38.765c-19.399,17.967-3.627,39.7-3.627,39.7l42.907,43.488
				c0,0-1.678,34.732-1.915,38.104c-0.227,3.395-0.438,17.816,11.007,18.54c11.473,0.72,14.854-11.801,14.854-11.801
				s1.606-34.711,2.495-46.545c0.839-11.843-4.601-16.467-4.601-16.467l-21.317-23.394l32.621-34.4c0,0,8.255,14.04,11.126,20.17
				c2.839,6.136,9.744,7.284,9.744,7.284s26.7,1.515,34.903,2.045c8.206,0.5,14.995-4.408,15.489-11.474
				C459.921,176.792,445.235,175.871,445.235,175.871z"/>
		</g>
		<path d="M483.868,220.87c0.41,1.219-0.413,2.632-1.855,3.11c-1.455,0.466-2.98-0.119-3.396-1.37l-0.083-0.127
			c0,0-14.235-1.799-15.242-4.703l-3.829-10.861c-1.014-2.901,9.175-12.849,9.175-12.849l-0.315-0.842
			c-0.405-1.231,0.41-2.638,1.875-3.104c1.435-0.48,2.968,0.128,3.409,1.341L483.868,220.87z"/>
		<g id="b_3_">
			<path d="M262.344,315.688c5.324,0,9.637-4.245,9.637-9.447c0-5.202-4.313-9.429-9.637-9.429c-5.332,0-9.671,4.227-9.671,9.429
				C252.673,311.443,257.012,315.688,262.344,315.688z"/>
			<path d="M262.344,361.239c31.035,0,56.199-24.628,56.199-54.998c0-30.396-25.164-54.993-56.199-54.993
				c-31.04,0-56.215,24.597-56.215,54.993C206.129,336.61,231.304,361.239,262.344,361.239z M262.403,353.177
				c-6.833,0-12.393-5.43-12.393-12.155c0-6.736,5.56-12.156,12.393-12.156c6.881,0,12.427,5.42,12.427,12.166
				C274.831,347.747,269.285,353.177,262.403,353.177z M303.939,329.634c-3.45,5.806-11.008,7.814-16.956,4.453
				c-5.98-3.379-7.994-10.783-4.588-16.589c3.454-5.836,11.035-7.823,16.981-4.463C305.323,316.405,307.378,323.834,303.939,329.634
				z M286.868,278.254c5.934-3.365,13.55-1.374,16.989,4.44c3.404,5.841,1.396,13.252-4.562,16.617
				c-5.924,3.346-13.532,1.341-16.983-4.462C278.919,289.042,280.952,281.593,286.868,278.254z M262.258,259.292
				c6.847,0,12.432,5.448,12.432,12.165c0,6.697-5.585,12.122-12.432,12.122c-6.866,0-12.427-5.424-12.427-12.122
				C249.831,264.739,255.392,259.292,262.258,259.292z M262.344,290.117c9.093,0,16.468,7.214,16.468,16.124
				c0,8.891-7.375,16.109-16.468,16.109c-9.104,0-16.471-7.218-16.471-16.109C245.873,297.331,253.239,290.117,262.344,290.117z
				 M220.748,282.852c3.437-5.805,11.016-7.814,16.967-4.451c5.958,3.327,7.967,10.796,4.575,16.602
				c-3.438,5.811-11.066,7.791-16.989,4.434C219.352,296.065,217.293,288.662,220.748,282.852z M225.392,313.174
				c5.912-3.365,13.517-1.364,16.967,4.471c3.404,5.804,1.372,13.258-4.551,16.588c-5.95,3.352-13.55,1.378-16.993-4.467
				C217.422,323.964,219.433,316.557,225.392,313.174z"/>
			<path d="M498.457,316.994c5.298,0,9.637-4.221,9.637-9.442c0-5.189-4.339-9.429-9.637-9.429c-5.32,0-9.647,4.24-9.647,9.429
				C488.809,312.773,493.136,316.994,498.457,316.994z"/>
			<path d="M498.457,362.588c31.061,0,56.202-24.655,56.202-55.018c0-30.406-25.141-55.005-56.202-55.005
				c-31.071,0-56.212,24.6-56.212,55.005C442.245,337.934,467.385,362.588,498.457,362.588z M498.553,354.504
				c-6.875,0-12.416-5.438-12.416-12.154c0-6.735,5.541-12.155,12.416-12.155c6.831,0,12.412,5.419,12.412,12.155
				C510.965,349.067,505.384,354.504,498.553,354.504z M540.057,330.964c-3.443,5.822-11.033,7.798-16.992,4.449
				c-5.951-3.361-7.969-10.786-4.529-16.586c3.416-5.841,11.02-7.828,16.957-4.463C541.436,317.711,543.494,325.149,540.057,330.964
				z M523.016,279.571c5.936-3.369,13.504-1.39,16.93,4.447c3.439,5.824,1.42,13.253-4.525,16.611
				c-5.947,3.358-13.541,1.354-16.969-4.465C514.998,290.354,517.066,282.947,523.016,279.571z M498.375,260.624
				c6.878,0,12.415,5.44,12.415,12.156c0,6.708-5.537,12.124-12.415,12.124c-6.855,0-12.463-5.416-12.463-12.124
				C485.912,266.063,491.519,260.624,498.375,260.624z M498.457,291.443c9.094,0,16.448,7.235,16.448,16.128
				c0,8.911-7.354,16.085-16.448,16.085c-9.078,0-16.444-7.174-16.444-16.085C482.012,298.678,489.378,291.443,498.457,291.443z
				 M456.896,284.147c3.404-5.783,10.983-7.793,16.932-4.428c5.958,3.34,7.98,10.79,4.551,16.591
				c-3.437,5.822-11.017,7.809-16.952,4.451C455.476,297.415,453.445,289.987,456.896,284.147z M461.508,314.48
				c5.912-3.345,13.523-1.352,16.92,4.463c3.475,5.832,1.465,13.256-4.496,16.631c-5.943,3.344-13.559,1.357-16.968-4.476
				C453.527,325.319,455.536,317.84,461.508,314.48z"/>
			<path d="M569.816,307.571c0-35.313-26.82-64.5-61.557-69.145l1.256-9.354c-0.711-0.096-1.422-0.196-2.153-0.284
				c-15.243-1.61-29.917,1.033-42.864,6.951l-11.763-32.646h-8.584l1.95,5.73h-80.123l7.709,8.358h75.236l0,0l0,0l0,0
				l-66.498,73.926l-0.767,3.896c-3.667,11.573-12.783,13.325-17.844,13.022c-4.633-0.296-8.799-1.955-10.842-5.443
				c-4.02,2.696-6.659,6.591-7.673,11.292l-11.882-1.561c0.093-1.314,0.269-3.523,0.315-4.847l8.407,1.156
				c0.04-0.714,0.06-1.441,0.06-2.156c0-25.115-11.952-47.475-30.588-61.964l13.965-20.202l-6.124-6.301l-16.447,20.64
				c-12.182-7.184-26.427-11.292-41.659-11.292c-34.81,0-64.453,21.461-75.875,51.611l10.392,1.833
				c0.05-0.07,0.108-0.166,0.132-0.285c-3.216,7.98-5.014,16.647-5.014,25.736c0,7.265,1.15,14.288,3.264,20.897
				c8.96,28.314,35.969,48.935,67.801,48.935c1.314,0,2.589-0.03,3.843-0.099c32.741-1.582,59.627-24.696,66.249-55.191
				l13.218,1.568c1.915,8.591,9.804,15.034,19.178,15.034c10.868,0,19.653-8.602,19.653-19.237c0-3.783-1.1-7.325-3.038-10.288
				l71.274-80.36l4.195,12.42c-20.725,12.334-35.527,33.609-38.346,59.067c-0.99,8.837-0.421,17.53,1.47,25.729h9.554
				c0.332,1.265,0.675,2.483,1.063,3.72c8.95,28.343,35.978,48.956,67.789,48.956c1.287,0,2.602-0.053,3.863-0.1
				C539.771,375.476,569.816,344.982,569.816,307.571z M262.344,245.37c34.347,0,62.205,27.26,62.205,60.871
				c0,33.602-27.858,60.886-62.205,60.886c-34.362,0-62.219-27.284-62.219-60.886C200.125,272.63,227.981,245.37,262.344,245.37z
				 M498.457,246.702c34.336,0,62.219,27.24,62.219,60.869c0,33.604-27.883,60.87-62.219,60.87
				c-34.358,0-62.205-27.267-62.205-60.87C436.251,273.942,464.098,246.702,498.457,246.702z"/>
		</g>
	</g>
	<g id="cam_3_">
		<rect x="340.379" y="61.837" width="26.438" height="9.637"/>
		<path d="M383.445,49.055c0-3.683,2.991-6.631,6.8-6.631c3.744,0,6.739,2.948,6.739,6.631c0,0.186,0,0.403-0.022,0.636h5.415
			l32.111-25.643c1.077-0.845,1.171-2.342,0.368-3.407l-8.134-9.752c-0.89-1.018-2.438-1.207-3.487-0.378L396.309,32
			c-9.222,6.976-20.741,11.055-33.211,11.055h-0.145c-0.034,0-0.168,0-0.285,0h-25.35c-1.333,0-2.46,1.092-2.46,2.416v4.219h48.587
			C383.445,49.458,383.445,49.24,383.445,49.055z"/>
		<path d="M390.245,43.713c-3.216,0-5.758,2.517-5.758,5.639c0,0.194,0,0.419,0,0.614h11.444c0.07-0.195,0.07-0.419,0.07-0.614
			C396.001,46.229,393.401,43.713,390.245,43.713z"/>
		<rect x="431.5" y="81.596" width="10.57" height="2.46"/>
		<rect x="431.5" y="85.388" width="10.57" height="1.305"/>
		<rect x="431.5" y="75.347" width="10.57" height="4.516"/>
		<rect x="431.5" y="67.803" width="10.57" height="5.732"/>
		<rect x="422.393" y="60.97" width="8.126" height="33.662"/>
		<path d="M459.013,97.339V57.444c-6.988,2.961-12.428,6.485-15.832,10.388v19.102C446.585,90.812,452.025,94.317,459.013,97.339z"
			/>
		<path d="M462.772,101.36h4.613h0.778h6.385c1.135,0,2.046-0.896,2.046-1.987v-43.56c0-1.053-0.911-1.962-2.046-1.962h-6.385
			h-0.778h-4.613c-1.134,0-2.024,0.909-2.024,1.962v1.85v39.915v1.795C460.748,100.463,461.638,101.36,462.772,101.36z"/>
		<path d="M315.646,78.668c0,0,1.355-0.834,2.896-2.14V61.496c-1.541-1.367-2.896-2.161-2.896-2.161
			c-0.862-0.53-1.583-0.121-1.583,0.858v17.619C314.063,78.774,314.784,79.148,315.646,78.668z"/>
		<path d="M320.067,80.514h3.797V57.546h-3.797c-0.285,0-0.593,0.218-0.593,0.52v21.837
			C319.474,80.23,319.782,80.514,320.067,80.514z"/>
		<path d="M329.126,79.903V58.066c0-0.302-0.297-0.52-0.628-0.52h-3.771v22.968h3.771C328.829,80.514,329.126,80.23,329.126,79.903z
			"/>
		<path d="M394.075,90.683c0,2.684,2.212,4.871,4.919,4.871c2.696,0,4.927-2.188,4.927-4.871c0-2.655-2.23-4.796-4.927-4.796
			C396.287,85.887,394.075,88.028,394.075,90.683z M403.2,90.683c0,2.31-1.852,4.144-4.206,4.144c-2.354,0-4.208-1.834-4.208-4.144
			c0-2.308,1.854-4.141,4.208-4.141C401.348,86.542,403.2,88.375,403.2,90.683z"/>
		<path d="M333.619,101.128h23.366v2.95c0,2.624,2.221,4.779,4.942,4.779h2.221c0.308,2.447,1.726,4.33,3.5,4.33l25.229,1.806
			c5.184,0,8.314-3.689,8.587-6.136h2.271c2.745,0,4.873-2.155,4.873-4.779v-2.95h9.247c1.372,0,2.467-1.116,2.467-2.406V54.216
			c0-1.347-1.095-2.445-2.467-2.445h-84.236c-1.373,0-2.411,1.098-2.411,2.445v44.506
			C331.208,100.013,332.246,101.128,333.619,101.128z M387.087,94.317c-1.976,0-3.643-1.647-3.643-3.635
			c0-1.976,1.667-3.598,3.643-3.598c2.055,0,3.688,1.622,3.688,3.598C390.775,92.67,389.142,94.317,387.087,94.317z M403.92,90.683
			c0,2.684-2.23,4.871-4.927,4.871c-2.707,0-4.919-2.188-4.919-4.871c0-2.655,2.212-4.796,4.919-4.796
			C401.69,85.887,403.92,88.028,403.92,90.683z M337.318,59.402h63.956v23.244h-63.956V59.402z"/>
	</g>
</g>
</svg>
