<?xml version="1.0" encoding="iso-8859-1"?>
<!-- Generator: Adobe Illustrator 19.0.0, SVG Export Plug-In . SVG Version: 6.00 Build 0)  -->
<svg version="1.1" id="Capa_1" xmlns="http://www.w3.org/2000/svg" xmlns:xlink="http://www.w3.org/1999/xlink" x="0px" y="0px"
	 viewBox="0 0 480 480" style="enable-background:new 0 0 480 480;" xml:space="preserve">
<g>
	<g>
		<path d="M472,0H8C3.576,0,0,3.576,0,8v288v64c0,4.424,3.576,8,8,8h180.688l-26.344,26.344C160.84,395.84,160,397.872,160,400v72
			c0,4.424,3.576,8,8,8h232c4.424,0,8-3.576,8-8V368h64c4.424,0,8-3.576,8-8v-64V8C480,3.576,476.424,0,472,0z M16,352v-48h184v16
			H96v16h104v16H16z M392,464H176v-60.688l24-24V416h16V232c0-1.288,0.192-2.52,0.48-3.712c0.016-0.056,0.064-0.096,0.072-0.152
			c0.64-2.56,1.88-4.832,3.528-6.704c0.096-0.104,0.176-0.224,0.272-0.328c0.4-0.432,0.848-0.808,1.288-1.192
			c0.296-0.256,0.592-0.512,0.904-0.744c0.392-0.296,0.808-0.56,1.224-0.808c0.424-0.256,0.864-0.496,1.312-0.712
			c0.384-0.192,0.776-0.368,1.184-0.528c0.56-0.216,1.144-0.384,1.736-0.544c0.344-0.088,0.68-0.2,1.024-0.264
			C230,216.12,230.984,216,232,216c1.064,0,2.104,0.112,3.112,0.312c0.672,0.136,1.304,0.368,1.944,0.584
			c0.304,0.104,0.624,0.168,0.928,0.288c0.864,0.352,1.688,0.792,2.464,1.288c0.04,0.024,0.08,0.04,0.12,0.064
			c4.128,2.672,6.968,7.208,7.296,12.464c0,0.064,0.04,0.112,0.048,0.176c0.016,0.28,0.088,0.544,0.088,0.824v72v80h16v-80
			c0-8.824,7.176-16,16-16c8.824,0,16,7.176,16,16v80h16v-80c0-8.824,7.176-16,16-16c8.824,0,16,7.176,16,16v80h16v-80
			c0-8.824,7.176-16,16-16c8.824,0,16,7.176,16,16V464z M204.56,215.632C177.624,202.264,160,174.376,160,144
			c0-44.112,35.888-80,80-80s80,35.888,80,80c0,36.048-24.008,67.248-58.096,76.888c-0.008-0.024-0.016-0.04-0.024-0.064
			c-0.464-1.232-1.024-2.392-1.632-3.552c-0.24-0.472-0.488-0.928-0.752-1.384c-0.608-1.04-1.248-2.04-1.968-2.992
			c-0.376-0.504-0.792-0.968-1.2-1.448c-0.736-0.872-1.456-1.752-2.28-2.544c-1.16-1.112-2.408-2.144-3.72-3.072
			c-0.68-0.48-1.416-0.856-2.136-1.28c-0.912-0.544-1.832-1.072-2.808-1.528c-0.712-0.328-1.432-0.616-2.168-0.896
			c-1.136-0.432-2.304-0.784-3.496-1.088c-0.64-0.16-1.264-0.344-1.92-0.464c-1.888-0.344-3.816-0.576-5.8-0.576
			c-1.96,0-3.856,0.24-5.728,0.576c-0.456,0.08-0.904,0.168-1.36,0.272c-1.808,0.408-3.576,0.928-5.256,1.632
			c-0.16,0.072-0.312,0.16-0.472,0.232c-1.528,0.672-2.976,1.48-4.368,2.376c-0.416,0.264-0.824,0.528-1.224,0.816
			c-1.424,1.008-2.784,2.096-4.032,3.328c-0.272,0.272-0.504,0.584-0.768,0.864c-0.928,0.984-1.792,2.032-2.592,3.136
			c-0.424,0.584-0.832,1.168-1.216,1.784C204.848,215.232,204.688,215.416,204.56,215.632z M464,352h-56v-48h56V352z M464,288
			h-60.448c-5.552-9.52-15.76-16-27.552-16c-9.608,0-18.128,4.336-24,11.056c-5.872-6.72-14.392-11.056-24-11.056
			c-9.608,0-18.128,4.336-24,11.056c-5.872-6.72-14.392-11.056-24-11.056c-5.856,0-11.272,1.696-16,4.448v-39.616
			c42.096-10.816,72-48.784,72-92.832c0-52.936-43.064-96-96-96c-52.936,0-96,43.064-96,96c0,37.432,22.304,71.68,56.08,87.176
			c-0.008,0.28-0.08,0.544-0.08,0.824v56H16V16h448V288z"/>
	</g>
</g>
<g>
	<g>
		<rect x="32" y="320" width="16" height="16"/>
	</g>
</g>
<g>
	<g>
		<rect x="64" y="320" width="16" height="16"/>
	</g>
</g>
<g>
	<g>
		<rect x="432" y="320" width="16" height="16"/>
	</g>
</g>
<g>
	<g>
		<path d="M291.248,136.688l-72-32c-2.48-1.096-5.336-0.864-7.608,0.6c-2.272,1.48-3.64,4-3.64,6.712v64
			c0,2.712,1.368,5.232,3.64,6.712c1.32,0.848,2.84,1.288,4.36,1.288c1.104,0,2.208-0.224,3.248-0.688l72-32
			c2.896-1.288,4.752-4.144,4.752-7.312C296,140.832,294.144,137.976,291.248,136.688z M224,163.688v-39.376L268.304,144
			L224,163.688z"/>
	</g>
</g>
<g>
	<g>
		<path d="M437.656,138.344l-40-40l-11.312,11.312L420.688,144l-34.344,34.344l11.312,11.312l40-40
			C440.784,146.528,440.784,141.472,437.656,138.344z"/>
	</g>
</g>
<g>
	<g>
		<path d="M93.656,109.656L82.344,98.344l-40,40c-3.128,3.128-3.128,8.184,0,11.312l40,40l11.312-11.312L59.312,144L93.656,109.656z
			"/>
	</g>
</g>
<g>
</g>
<g>
</g>
<g>
</g>
<g>
</g>
<g>
</g>
<g>
</g>
<g>
</g>
<g>
</g>
<g>
</g>
<g>
</g>
<g>
</g>
<g>
</g>
<g>
</g>
<g>
</g>
<g>
</g>
</svg>
